<?xml version="1.0" encoding="UTF-8"?>
<svg width="24px" height="24px" viewBox="0 0 24 24" version="1.1" xmlns="http://www.w3.org/2000/svg" xmlns:xlink="http://www.w3.org/1999/xlink">
    <!-- Generator: Sketch 61 (89581) - https://sketch.com -->
    <title>添加回答</title>
    <desc>Created with Sketch.</desc>
    <g id="添加回答" stroke="none" stroke-width="1" fill="none" fill-rule="evenodd">
        <g id="编组" transform="translate(9.000000, 8.000000)">
            <path d="M0.5,0 L9.5,0 C9.77614237,-5.07265313e-17 10,0.223857625 10,0.5 L10,7.10869565 C10,7.38483803 9.77614237,7.60869565 9.5,7.60869565 L6.92764198,7.60869565 C6.76412526,7.60869565 6.61094056,7.68865051 6.5174429,7.82279932 L5.41019908,9.41145349 C5.2523029,9.63800019 4.94065037,9.69365243 4.71410367,9.53575624 C4.66565365,9.50198805 4.62356911,9.4599035 4.58980092,9.41145349 L3.4825571,7.82279932 C3.38905944,7.68865051 3.23587474,7.60869565 3.07235802,7.60869565 L0.5,7.60869565 C0.223857625,7.60869565 3.38176876e-17,7.38483803 0,7.10869565 L0,0.5 C-3.38176876e-17,0.223857625 0.223857625,4.94815741e-16 0.5,0 Z" id="矩形" stroke="#303133"></path>
            <rect id="矩形" fill="#303133" x="3" y="3.5" width="4" height="1" rx="0.5"></rect>
            <rect id="矩形备份" fill="#303133" transform="translate(5.000000, 4.000000) rotate(-270.000000) translate(-5.000000, -4.000000) " x="3" y="3.5" width="4" height="1" rx="0.5"></rect>
        </g>
    </g>
</svg>