<?xml version="1.0" encoding="UTF-8"?>
<svg width="22px" height="22px" viewBox="0 0 22 22" version="1.1" xmlns="http://www.w3.org/2000/svg" xmlns:xlink="http://www.w3.org/1999/xlink">
    <!-- Generator: Sketch 61 (89581) - https://sketch.com -->
    <title>踩</title>
    <desc>Created with Sketch.</desc>
    <g id="踩" stroke="none" stroke-width="1" fill="none" fill-rule="evenodd">
        <g id="点赞" transform="translate(11.000000, 11.000000) rotate(-180.000000) translate(-11.000000, -11.000000) translate(4.000000, 4.000000)" fill="#606266" fill-rule="nonzero">
            <g id="like" transform="translate(0.000000, 0.000000)">
                <path d="M13.1015625,6.02197266 L13.0883789,5.97802734 C13.0810547,5.95458984 13.0737305,5.93408203 13.0708008,5.91943359 C12.890625,5.21044922 12.440918,4.91748047 12.0952148,4.79589844 C11.8608398,4.71679688 11.6162109,4.67724609 11.3701172,4.67724609 L11.3583984,4.67724609 C10.9306641,4.67431641 10.5,4.67431641 10.0708008,4.67431641 C9.75585937,4.67431641 9.44091797,4.67578125 9.13183594,4.67578125 L8.81542969,4.67578125 C8.84912109,4.47070313 8.88134766,4.27441406 8.91943359,4.078125 C9.04833984,3.42041016 9.02490234,2.84619141 8.84472656,2.32324219 C8.73339844,1.99804688 8.60888672,1.67431641 8.49023437,1.36230469 C8.44628906,1.24658203 8.40234375,1.13085938 8.35839844,1.01660156 C8.21044922,0.62109375 7.9453125,0.341308594 7.57177734,0.184570313 C7.28613281,0.0600585938 6.99609375,2.66453526e-14 6.71044922,2.66453526e-14 C6.37939453,2.66453526e-14 6.05566406,0.0805664063 5.74658203,0.241699219 C5.26171875,0.495117188 5.00097656,0.927246094 5.015625,1.45898438 C5.02001953,1.63476563 5.02441406,1.81494141 5.02734375,1.98925781 C5.03320312,2.28515625 5.0390625,2.59130859 5.05224609,2.89306641 C5.05664062,2.94287109 5.04638672,2.99414063 5.02001953,3.03808594 C4.91308594,3.22412109 4.80322266,3.41162109 4.69775391,3.59619141 C4.44726562,4.03271484 4.18798828,4.48535156 3.91992187,4.91455078 C3.53173828,5.53125 2.71289062,5.625 2.71289062,5.625 L1.0546875,5.625 C0.471679687,5.625 0,6.09667969 0,6.6796875 L0,12.0703125 C0,12.6533203 0.471679687,13.125 1.0546875,13.125 L4.67724609,13.125 L4.67578125,13.125 L4.69189453,13.125 C5.46533203,13.125 6.24755859,13.1220703 7.02392578,13.1220703 C7.51904297,13.1220703 8.01269531,13.125 8.49902344,13.125 L9.87451172,13.125 C10.1850586,13.125 10.5527344,13.1044922 10.9291992,12.9814453 C11.7143555,12.7250977 12.2211914,12.0849609 12.2827148,11.2705078 C12.3032227,11.0463867 12.2900391,10.8193359 12.2446289,10.5981445 C12.4921875,10.2114258 12.6035156,9.80273438 12.5771484,9.38085938 C12.5683594,9.26074219 12.5463867,9.140625 12.5126953,9.02490234 C12.7485352,8.67333984 12.8613281,8.296875 12.8510742,7.90283203 C12.84375,7.75634766 12.8188477,7.61132813 12.7792969,7.46923828 C12.9140625,7.27001953 13.012207,7.05029297 13.0678711,6.81591797 L13.125,6.74121094 L13.125,6.09667969 L13.1015625,6.02197266 Z M2.6953125,12.0703125 L1.0546875,12.0703125 L1.0546875,6.6796875 L2.6953125,6.6796875 L2.6953125,12.0703125 Z M12.0703125,6.45703125 L12.0424805,6.57128906 C12.0161133,6.68261719 11.9692383,6.78662109 11.90625,6.88037109 L11.6293945,7.2890625 L11.765625,7.76367188 C11.7832031,7.82373047 11.793457,7.88671875 11.7978516,7.94970703 C11.8007813,8.11816406 11.7495117,8.27490234 11.6381836,8.44042969 L11.362793,8.85058594 L11.5019531,9.32373047 C11.5151367,9.36621094 11.5224609,9.41015625 11.5253906,9.45410156 C11.5356445,9.64746094 11.4814453,9.83642578 11.3554688,10.03125 L11.1240234,10.3974609 L11.2016602,10.7666016 L11.0742188,10.7666016 L11.2016602,10.7666016 L11.2133789,10.8164063 C11.2382813,10.9335938 11.2456055,11.0537109 11.2338867,11.1723633 L11.2324219,11.1811523 L11.2324219,11.1899414 C11.2177734,11.3803711 11.1577148,11.5444336 11.0522461,11.6777344 C10.9453125,11.8125 10.7944336,11.9165039 10.6040039,11.9780273 C10.3681641,12.0556641 10.1147461,12.0688477 9.87597656,12.0688477 L8.50048828,12.0688477 C8.25878906,12.0688477 8.015625,12.065918 7.76953125,12.065918 C7.52197266,12.065918 7.27441406,12.0644531 7.02539063,12.0644531 C6.328125,12.0644531 5.50634766,12.0688477 4.69042969,12.0688477 L3.75439453,12.0688477 L3.76611328,6.38964844 C4.21142578,6.17285156 4.5703125,5.86083984 4.81347656,5.47558594 L4.81494141,5.47265625 L4.81640625,5.46972656 C5.09033203,5.03027344 5.35107422,4.57617188 5.60302734,4.13671875 L5.61328125,4.12060547 L5.61474609,4.11914063 L5.61621094,4.11767578 C5.68212891,4.00195313 5.75244141,3.88037109 5.81982422,3.76318359 C5.85791016,3.69726563 5.89599609,3.6328125 5.93261719,3.56835938 C6.06445313,3.34423828 6.12451172,3.08935547 6.10693359,2.83154297 C6.09521484,2.5546875 6.08935547,2.26904297 6.08496094,1.99365234 L6.08496094,1.96875 C6.08056641,1.76806641 6.07763672,1.59814453 6.07324219,1.4296875 C6.0703125,1.34033203 6.09375,1.30224609 6.10107422,1.2890625 C6.13037109,1.23925781 6.19189453,1.19970703 6.23876953,1.17626953 C6.39550781,1.09423828 6.55078125,1.0546875 6.71337891,1.0546875 C6.85839844,1.0546875 7.01220703,1.08837891 7.16894531,1.15283203 C7.25683594,1.18945313 7.32275391,1.24072266 7.37548828,1.3828125 C7.41943359,1.49853516 7.46484375,1.6171875 7.50878906,1.734375 C7.640625,2.07861328 7.74902344,2.36572266 7.8515625,2.66162109 C7.96875,3.00439453 7.98193359,3.39990234 7.88818359,3.87011719 C7.84863281,4.07226563 7.81494141,4.26855469 7.77685547,4.50146484 L7.57470703,5.72753906 L9.13037109,5.72753906 C9.28417969,5.72753906 9.43945312,5.72753906 9.59619141,5.72607422 L10.0693359,5.72607422 C10.4472656,5.72607422 10.894043,5.72607422 11.3481445,5.73046875 L11.3554687,5.72900391 L11.362793,5.72753906 L11.3686523,5.72753906 C11.4975586,5.72753906 11.625,5.74951172 11.7480469,5.7890625 C11.8637695,5.83154297 11.9794922,5.91064453 12.046875,6.17578125 C12.0541992,6.20654297 12.0703125,6.234375 12.0703125,6.2578125 L12.0703125,6.45703125 L12.0703125,6.45703125 Z" id="Shape"></path>
            </g>
        </g>
    </g>
</svg>