<?xml version="1.0" encoding="UTF-8"?>
<svg width="22px" height="22px" viewBox="0 0 22 22" version="1.1" xmlns="http://www.w3.org/2000/svg" xmlns:xlink="http://www.w3.org/1999/xlink">
    <!-- Generator: Sketch 61 (89581) - https://sketch.com -->
    <title>踩2</title>
    <desc>Created with Sketch.</desc>
    <g id="踩2" stroke="none" stroke-width="1" fill="none" fill-rule="evenodd">
        <g id="like_1备份" transform="translate(11.000000, 11.000000) rotate(-180.000000) translate(-11.000000, -11.000000) translate(4.000000, 4.000000)" fill="#606266" fill-rule="nonzero">
            <path d="M1.76682692,5.65384615 L1.06009615,5.65384615 C0.474098558,5.65384615 0,6.12794471 0,6.71394231 L0,12.1322115 C0,12.7182091 0.474098558,13.1923077 1.06009615,13.1923077 L1.76682692,13.1923077 C2.35282452,13.1923077 2.82692308,12.7182091 2.82692308,12.1322115 L2.82692308,6.71394231 C2.82692308,6.12794471 2.35282452,5.65384615 1.76682692,5.65384615 Z M13.1510817,6.03813101 C13.0524339,5.65384615 12.8404147,5.35201322 12.4590745,5.21802885 C12.2603065,5.15324519 12.0527043,5.11938101 11.8436298,5.12085337 C10.7349459,5.11201923 9.62626202,5.11790865 8.51757813,5.11790865 C8.37475962,5.11790865 8.37034255,5.10907452 8.39242788,4.97214543 C8.46162861,4.5672476 8.51905048,4.1608774 8.59855769,3.75892428 C8.70603966,3.21415264 8.71929087,2.67232572 8.53819111,2.14375 C8.37475962,1.66817909 8.18924279,1.1984976 8.01108774,0.72734375 C7.91096755,0.460847356 7.74311899,0.266496394 7.47367788,0.154597356 C6.96571514,-0.0588942308 6.46364183,-0.0544771635 5.97629207,0.198768029 C5.665625,0.362199519 5.48305288,0.621334135 5.49335938,0.990895433 C5.50808293,1.51210937 5.51102764,2.03332332 5.53311298,2.55453726 C5.54341947,2.72238582 5.50219351,2.89023437 5.41826923,3.03452524 C5.01631611,3.7250601 4.72478966,4.26246995 4.30516827,4.94269832 C4.22713341,5.06784856 3.99008413,5.30784255 3.88849159,5.41532452 C3.58813101,5.73188101 3.43353365,5.93801082 3.4320613,6.28548678 C3.43058894,7.55024038 3.42764423,10.3344651 3.4217514,12.1277945 C3.42028245,12.7152644 3.89585337,13.1923077 4.48332332,13.1908387 C6.03224159,13.189363 8.84591346,13.1864183 10.2255108,13.1864183 C10.5553185,13.1864183 10.8792368,13.1658053 11.1972656,13.0627404 C11.8274339,12.8566106 12.2234976,12.3677885 12.2735577,11.7081731 C12.2926983,11.4578726 12.2809195,11.2090445 12.1911058,10.9675781 C12.1778546,10.9337139 12.1999399,10.8748197 12.22497,10.8409555 C12.4737981,10.5082031 12.622506,10.1401142 12.5960036,9.72049279 C12.5871695,9.57620192 12.5415264,9.43191106 12.4973558,9.29203726 C12.4737981,9.21694712 12.4737981,9.16688702 12.5253305,9.10357572 C12.7623798,8.80615986 12.9066707,8.46751803 12.8948918,8.08470553 C12.8890024,7.90360577 12.8227464,7.72545072 12.7888822,7.54582332 C12.7800481,7.503125 12.7741587,7.4398137 12.7977163,7.4133113 C13.0009014,7.18656851 13.1142728,6.91859976 13.1731671,6.62265625 C13.1775841,6.6108774 13.1849459,6.60204327 13.19378,6.59320913 L13.19378,6.17653245 C13.1790565,6.13088942 13.1643329,6.08524639 13.1510817,6.03813101 Z" id="Shape"></path>
        </g>
    </g>
</svg>