<?xml version="1.0" encoding="UTF-8"?>
<svg width="153px" height="123px" viewBox="0 0 153 123" version="1.1" xmlns="http://www.w3.org/2000/svg" xmlns:xlink="http://www.w3.org/1999/xlink">
    <!-- Generator: Sketch 61 (89581) - https://sketch.com -->
    <title>空状态</title>
    <desc>Created with Sketch.</desc>
    <defs>
        <linearGradient x1="97.2693041%" y1="23.3623789%" x2="0.479158683%" y2="74.9437955%" id="linearGradient-1">
            <stop stop-color="#E3E1E6" offset="0%"></stop>
            <stop stop-color="#F9F9FB" offset="99.963049%"></stop>
        </linearGradient>
        <linearGradient x1="100%" y1="50%" x2="0%" y2="50%" id="linearGradient-2">
            <stop stop-color="#FFE512" offset="0%"></stop>
            <stop stop-color="#FFB64D" offset="100%"></stop>
        </linearGradient>
        <linearGradient x1="100%" y1="50%" x2="0%" y2="50%" id="linearGradient-3">
            <stop stop-color="#FFE512" offset="0%"></stop>
            <stop stop-color="#FFB64D" offset="100%"></stop>
        </linearGradient>
        <linearGradient x1="100%" y1="50%" x2="0%" y2="50%" id="linearGradient-4">
            <stop stop-color="#FFE512" offset="0%"></stop>
            <stop stop-color="#FFB64D" offset="100%"></stop>
        </linearGradient>
        <linearGradient x1="100%" y1="50%" x2="0%" y2="50%" id="linearGradient-5">
            <stop stop-color="#FFE512" offset="0%"></stop>
            <stop stop-color="#FFB64D" offset="100%"></stop>
        </linearGradient>
        <linearGradient x1="20.3095568%" y1="8.56667039%" x2="95.8404293%" y2="90.0539311%" id="linearGradient-6">
            <stop stop-color="#CED4FE" offset="0%"></stop>
            <stop stop-color="#7A8BDB" stop-opacity="0.442170516" offset="100%"></stop>
        </linearGradient>
        <linearGradient x1="-21.1052835%" y1="-14.5507812%" x2="97.8725864%" y2="50%" id="linearGradient-7">
            <stop stop-color="#E8ECF2" offset="0%"></stop>
            <stop stop-color="#F5F7FB" offset="100%"></stop>
        </linearGradient>
        <linearGradient x1="100%" y1="50%" x2="0%" y2="50%" id="linearGradient-8">
            <stop stop-color="#FFE512" offset="0%"></stop>
            <stop stop-color="#FFB64D" offset="100%"></stop>
        </linearGradient>
    </defs>
    <g id="空状态" stroke="none" stroke-width="1" fill="none" fill-rule="evenodd">
        <g id="Group-28" transform="translate(1.000000, 1.000000)">
            <g id="Group-27">
                <path d="M8.92662348,109.241124 C-8.23522478,98.909935 1.31259131,71.6231227 20.9319222,68.2897137 C33.8724973,66.0910542 16.7574067,33.2500886 32.944829,22.5167845 C44.1851748,15.0637108 62.102726,28.4740732 69.3380468,20.4323475 C85.3575689,2.62738669 111.618871,9.07621349 110.224912,33.2419641 C108.830953,57.4077147 124.461711,54.5733003 133.497308,61.6128534 C139.521039,66.3058888 143.080418,69.5701316 144.175447,71.4055819 L144.175447,71.4055819 C153.757897,87.4300466 152.571437,100.487018 140.616067,110.576496 C122.683013,125.710712 26.0884717,119.572312 8.92662348,109.241124 Z" id="Path-3-Copy" fill="url(#linearGradient-1)" fill-rule="nonzero"></path>
                <path d="M100.235139,43.1837799 C100.249481,43.0710937 100.259149,42.9568358 100.259149,42.8402205 C100.259149,41.2910597 98.9714595,40.035166 97.3827557,40.035166 C95.7942131,40.035166 94.5065235,41.2910597 94.5065235,42.8402205 C94.5065235,42.9568358 94.5160309,43.0710937 94.5303725,43.1837799 C94.2868862,43.1187142 94.0316365,43.0808378 93.7672017,43.0808378 C92.1784979,43.0808378 90.8906472,44.3367314 90.8906472,45.8860494 C90.8906472,47.4353673 92.1784979,48.6914181 93.7672017,48.6914181 C95.3554221,48.6914181 99.4102505,48.6914181 100.998793,48.6914181 C102.587175,48.6914181 103.875025,47.4353673 103.875025,45.8860494 C103.875025,44.3367314 102.587175,43.0808378 100.998793,43.0808378 C100.734036,43.0808378 100.478947,43.1187142 100.235139,43.1837799 Z" id="Fill-29" fill="url(#linearGradient-2)"></path>
                <path d="M130.196719,87.5461709 C130.207764,87.4550456 130.21521,87.3626493 130.21521,87.2683467 C130.21521,86.0155961 129.223488,85 127.999938,85 C126.776512,85 125.78479,86.0155961 125.78479,87.2683467 C125.78479,87.3626493 125.792112,87.4550456 125.803157,87.5461709 C125.615635,87.4935546 125.419053,87.4629253 125.215396,87.4629253 C123.991846,87.4629253 123,88.4785214 123,89.7313991 C123,90.9842768 123.991846,92 125.215396,92 C126.438574,92 129.561426,92 130.784852,92 C132.008154,92 133,90.9842768 133,89.7313991 C133,88.4785214 132.008154,87.4629253 130.784852,87.4629253 C130.580947,87.4629253 130.384489,87.4935546 130.196719,87.5461709 Z" id="Fill-29备份" fill-opacity="0.5" fill="url(#linearGradient-3)"></path>
                <path d="M52.3934373,88.7286031 C52.415528,88.5593703 52.4304206,88.3877773 52.4304206,88.2126439 C52.4304206,85.886107 50.4469762,84 47.9998759,84 C45.5530238,84 43.5695794,85.886107 43.5695794,88.2126439 C43.5695794,88.3877773 43.5842238,88.5593703 43.6063145,88.7286031 C43.2312695,88.6308871 42.8381052,88.5740041 42.4307929,88.5740041 C39.9836926,88.5740041 38,90.4601111 38,92.7868841 C38,95.113657 39.9836926,97 42.4307929,97 C44.8771486,97 51.1228514,97 53.5697035,97 C56.0163074,97 58,95.113657 58,92.7868841 C58,90.4601111 56.0163074,88.5740041 53.5697035,88.5740041 C53.1618948,88.5740041 52.7689787,88.6308871 52.3934373,88.7286031 Z" id="Fill-29备份-2" fill-opacity="0.5" fill="url(#linearGradient-4)"></path>
                <path d="M90.1142634,68.2718214 L90.0703121,68.2279991 L86.8436834,65.0108396 C86.5041978,65.1690027 86.1768367,65.3468103 85.8661468,65.5503069 L89.3110162,68.9850667 L89.3989187,69.0727112 L96.6150084,76.2676238 C96.8191039,75.9583494 96.9979401,75.6309416 97.1560636,75.2934597 L90.1577095,68.3156436 L90.1142634,68.2718214 Z M88.8487702,69.5336007 L88.8048189,69.4897784 L85.2801299,65.9754333 C85.0002564,66.1995818 84.7380644,66.4433747 84.4915332,66.7032861 L95.4591408,77.638707 C95.719312,77.3928993 95.9643277,77.1314767 96.1886307,76.8519208 L88.8927215,69.577423 L88.8487702,69.5336007 Z M91.3358053,66.9662197 L91.3358053,66.9662197 L88.7659196,64.4033721 C88.3521715,64.476913 87.9505479,64.5826909 87.5625644,64.7181873 L97.4495772,74.5761847 C97.5854724,74.1888361 97.6920669,73.7888948 97.765319,73.3768647 L91.3792514,67.010042 L91.3358053,66.9662197 Z M97.7991665,70.8870542 L92.689201,65.792085 L92.6452497,65.7482627 L91.2625532,64.3696239 C90.8907356,64.3152239 90.513361,64.2774461 90.1263879,64.2774461 C89.9738214,64.2774461 89.8247913,64.2915498 89.6742456,64.3001127 L97.8688823,72.4707006 C97.8779756,72.3205967 97.8916157,72.1720039 97.8916157,72.0198852 C97.8916157,71.6345514 97.8542319,71.2582843 97.7991665,70.8870542 Z M87.583277,70.79538 L87.5393258,70.7515577 L84.0222146,67.2442645 C83.7974064,67.5298649 83.5923005,67.8315838 83.4089177,68.1469027 L86.8684376,71.5962699 L86.8684376,71.5967736 L94.0102648,78.7176417 C94.3270169,78.534797 94.6296239,78.3307967 94.9155597,78.1061446 L87.6272283,70.8392023 L87.583277,70.79538 Z M93.151447,65.2435509 L97.486961,69.5663415 C96.808495,67.5419538 95.3141521,65.8938332 93.3929264,65.003284 C93.1312395,64.8818912 92.8634905,64.7730911 92.5871533,64.6809132 L93.1074958,65.1997287 L93.151447,65.2435509 Z M83.7867975,74.5802143 L83.7428462,74.5368958 L82.4707856,73.2680646 C82.5248406,73.6000057 82.5945564,73.9264061 82.6890263,74.2427324 C82.7966312,74.6003625 82.9330316,74.9433851 83.088124,75.2768374 C83.1250026,75.355919 83.1623865,75.4334895 83.2012859,75.5105562 L86.6254427,78.9246641 C87.0311077,79.1296718 87.4549595,79.3029461 87.8975033,79.4354203 C88.2147606,79.5301167 88.5416166,79.5991242 88.8745347,79.6535243 L83.8307487,74.6240366 L83.7867975,74.5802143 Z M86.2738326,72.0133371 L86.2743378,72.0128334 L83.0643802,68.8127998 C82.9012048,69.1689188 82.7658148,69.5386377 82.6577048,69.9209493 L85.5589931,72.814227 L85.6029444,72.8580492 L85.6029444,72.8585529 L92.2315017,79.4671537 C92.6154437,79.3598647 92.9857457,79.2238645 93.3429129,79.061168 L86.3177838,72.0571594 L86.2738326,72.0133371 Z M85.0083394,73.2751164 L85.0088446,73.2746127 L82.4743219,70.7480318 C82.4056165,71.1625805 82.3606549,71.5856921 82.3606549,72.0198852 C82.3606549,72.0657223 82.3672223,72.1100483 82.3677275,72.1558854 L84.2490435,74.032184 L84.2929947,74.0760063 L89.9899874,79.75628 C90.0359594,79.7567837 90.0804159,79.7633318 90.1263879,79.7633318 C90.561859,79.7633318 90.986216,79.7185022 91.4019848,79.6494947 L85.0522907,73.3189387 L85.0083394,73.2751164 L85.0083394,73.2751164 Z" id="Fill-40-Copy" fill="#FFFFFE" opacity="0.0299999993" transform="translate(90.126135, 72.020389) rotate(-100.000000) translate(-90.126135, -72.020389) "></path>
                <g id="Group-2" opacity="0.900000036" transform="translate(48.450666, 54.101576)">
                    <path d="M11.316814,7.31186014 C11.0431073,7.89042155 10.5957771,8.37255605 10.2304901,8.90168201 C9.87508497,9.41658833 9.74730919,9.88239248 9.65297114,10.479395 C9.58494663,10.9105388 9.42557162,11.2475885 8.88838479,11.3213529 C7.87525617,11.4605498 8.16493488,10.6512526 7.93477762,10.0624708 C7.67175715,9.38959324 7.11078472,8.85769001 6.71872451,8.25713261 C5.58597845,6.52144839 5.9092098,3.09062812 8.26375428,2.35865018 C10.8381145,1.55812915 12.1477013,5.55629065 11.316814,7.31186014" id="Fill-17" fill="#F2C3AA"></path>
                    <path d="M7.307408,5.32793692 C7.03733512,5.33898821 6.74040358,5.3608741 6.54018446,5.54592907 C6.33985917,5.73109239 6.36162212,6.1347896 6.62596232,6.17834469 C6.86556707,6.21789098 7.17587486,5.9626278 7.3222705,6.14898293 C7.40783604,6.25787066 7.33278041,6.41713928 7.26781005,6.54444584 C7.01865083,7.03308631 6.94412601,7.59962756 7.060372,8.12023011 C6.96174869,8.21351601 6.8079218,8.11665469 6.72140081,8.01957667 C6.29134372,7.5375453 5.95534504,6.97447112 5.73527386,6.36697508 C5.64896519,6.51400061 5.52231545,6.63914024 5.37284115,6.72505862 C5.4624408,6.49666525 5.40575098,6.24671102 5.35044124,6.01365877 C5.14724962,5.15740031 5.00892219,4.15411632 5.59482322,3.45441783 C5.90831584,3.08008239 6.38508364,2.86458219 6.86450546,2.77411328 C7.34392729,2.68353602 7.83258509,2.70553026 8.31572254,2.72784954 C8.52252363,2.73738398 8.7772032,2.78288931 8.82688642,2.97802046 C8.37347398,3.16361716 7.90434974,3.52505943 7.67737812,3.96321066 C7.60773668,4.09766805 7.33490363,5.32685346 7.307408,5.32793692" id="Fill-18" fill="#161E2C"></path>
                    <path d="M8.3045179,3.29131739 C8.28733461,3.30343674 8.27026218,3.31566334 8.25363319,3.32788994 C8.03911923,3.48597771 7.83790845,3.67817125 7.57816363,3.74820606 C7.20378964,3.84923637 6.80158981,3.67473922 6.4330914,3.79807771 C6.02113589,3.93589507 5.75030508,4.41251789 5.44965295,4.6946949 C4.95643711,5.15716061 4.34504459,5.49725309 3.68875379,5.69051914 C3.35351336,5.78918994 3.0061892,5.84989392 2.65631525,5.86898458 C2.49767469,5.8776719 2.28548878,5.90673688 2.13083918,5.86641056 C1.92330939,5.81235612 1.93040442,5.72108564 2.15156998,5.65255234 C2.84499886,5.43762161 3.06239518,4.49531555 3.00995843,3.87068654 C2.96860768,3.37776159 2.79289469,2.86231395 2.98723215,2.40488903 C3.1356736,2.05535848 3.45450676,1.87496253 3.76269737,1.67504693 C4.10259392,1.45453916 4.47109233,1.51384888 4.85710661,1.40788503 C5.25974988,1.29720214 5.58778442,0.990464683 5.99840961,0.912171555 C6.43220452,0.829588393 6.86566685,1.01566864 7.29968348,1.09717929 C7.6582045,1.16453283 8.03102645,1.16013554 8.38777371,1.08420194 C8.70749375,1.01620489 9.0194536,0.891043136 9.34660126,0.893938909 C9.8292854,0.898336194 10.2731686,1.18973678 10.5548637,1.56897582 C10.9532942,2.10533738 11.2108219,3.02319024 11.0703623,3.72943716 C11.0922017,3.61982678 10.7109544,3.22278409 10.6324656,3.13741241 C10.4669517,2.95712371 10.2671821,2.78809636 10.0144215,2.75903137 C9.4424951,2.69296484 8.7643649,2.9682778 8.3045179,3.29131739" id="Fill-19" fill="#161E2C"></path>
                    <path d="M23.7730348,9.97780286 C23.8124424,9.98036484 23.8530509,9.98337239 23.888747,9.99696204 C24.2222384,10.1229448 24.3222312,10.3923986 24.6082369,10.6060457 C24.7357387,10.7013961 25.1156241,10.553358 25.0966298,10.8896461 C25.0896434,11.0137352 25.0304773,11.3156037 25.0131205,11.5800449 C24.987904,11.9657905 25.1841781,12.4702784 25.412546,12.8414319 C26.3097524,14.2996459 27.5711248,15.4682445 28.8543297,16.5843781 C28.9273594,16.6479821 29.0046465,16.7131456 29.098417,16.7353123 C29.2660906,16.7747446 29.4295068,16.6673641 29.571418,16.5680037 C30.2296678,16.1074036 30.929945,15.7092937 31.660242,15.3806915 C32.3117237,15.0874001 33.0063245,14.8461281 33.718173,14.8681834 C34.4300215,14.8902388 35.1655583,15.2181726 35.5285235,15.8434079 C35.8002289,16.3115825 35.831886,16.9162106 35.6106137,17.4113417 C35.0616356,18.6392001 33.1303331,18.5802745 32.0111994,18.7639575 C30.9523234,18.9377268 29.8815486,19.0359733 28.8092456,19.0569147 C28.6768315,19.0595881 28.5403784,19.0602565 28.4175707,19.0095737 C28.2866848,18.9554379 28.1849454,18.8487257 28.0874633,18.7444642 C26.8329682,17.402876 25.7016083,15.9559124 24.5930633,14.4779822 C24.2883908,14.0718522 24.2318447,13.553886 23.9467123,13.1809503 C23.7648476,12.9429087 23.4544987,12.889664 23.2340996,12.7038645 C23.0162113,12.52007 22.7759447,12.2219888 22.6399283,11.969355 C22.3717161,11.4708822 22.6141659,10.9383238 22.7811845,10.4517698 C22.8227754,10.3305768 22.8505027,10.2485934 22.9369594,10.1668327 C23.0775607,10.0338323 23.2628094,10.015787 23.445984,9.99105834 C23.5543823,9.97635478 23.6645273,9.97056247 23.7730348,9.97780286" id="Fill-22" fill="#F2C3AA"></path>
                    <path d="M32.3752501,19.4106326 C31.4343415,19.5220607 30.4916578,19.5423609 29.5732706,19.4680755 C29.2458775,19.4415291 28.9147122,19.4012633 28.61095,19.2762274 C28.1371119,19.0810332 27.7694464,18.6977832 27.4165363,18.3249064 C26.1477908,16.9840892 24.8700589,15.6317834 23.8894326,14.0657677 C24.3474058,13.7898188 24.8053791,13.5137584 25.2633523,13.2378095 C25.3506645,13.1851628 25.4445224,13.1307315 25.5463682,13.1344123 C25.6769482,13.1389854 25.7831208,13.2366941 25.8765349,13.3284911 C26.6808725,14.118749 27.4852101,14.9091185 28.2895478,15.6993763 C28.4155791,15.8231853 28.5520392,15.9525712 28.7248886,15.986033 C28.8544701,16.0111295 28.9874909,15.9782253 29.1142989,15.9415288 C31.3196263,15.302407 33.2868697,13.6712522 35.2711983,12.5534026 C36.2521574,12.0011702 37.2727232,11.4362222 38.3934706,11.3464329 C40.7866246,11.1545848 42.2181237,13.9872439 40.4365991,15.7269266 C38.3241311,17.7897395 35.3589543,19.0577214 32.3752501,19.4106326" id="Fill-23" fill="#FFFFFE"></path>
                    <polyline id="Fill-24" fill="#F2C3AA" points="35.2578538 54.3170278 35.3004525 57.1846706 33.5216822 57.2072936 33.4746893 54.0281762 35.2578538 54.3170278"></polyline>
                    <path d="M33.8934507,56.753134 L35.3289766,57.2158881 L35.7568933,57.665165 L35.6845167,58.729864 L31.8042702,59.0239322 C31.4763668,58.5584163 31.6896456,57.9268658 32.2367175,57.7437084 L32.4171494,57.6831715 L33.8934507,56.753134" id="Fill-25" fill="#161E2C"></path>
                    <g id="Group-25" transform="translate(45.021670, 51.706916)">
                        <g id="Group-24">
                            <polyline id="Fill-26" fill="#F2C3AA" points="1.96271238 0.050462182 3.05912448 2.58902041 1.53593862 3.22957965 0.320479707 0.415293658 1.96271238 0.050462182"></polyline>
                            <path d="M1.50948429,3.11778835 C1.56453006,3.05957123 1.62861661,3.00431431 1.70300279,2.95212721 C1.88748052,2.82297512 3.37405969,2.06845497 3.5016606,2.40854818 C3.52237429,2.46380511 3.51573675,2.5246535 3.50852702,2.58287062 C3.38607592,3.56170757 3.14643799,4.52683993 2.79567854,5.45359942 C2.64564734,5.85015556 2.41802563,6.28914113 1.990019,6.38803348 C1.80245139,6.43134 1.60549968,6.39932607 1.41724543,6.35843156 C1.13972776,6.29824098 0.866558822,6.21886397 0.600828503,6.12117762 C0.503668709,6.08554568 0.40032914,6.0414717 0.349975419,5.95431048 C0.249039096,5.77965913 0.4249338,5.57277457 0.608839322,5.47870624 C0.792515964,5.3846379 1.01693334,5.31699202 1.10676896,5.13696847 C1.1469375,5.05616618 1.15265951,4.96407131 1.15769488,4.87482699 C1.19511685,4.21141498 1.07758669,3.57464471 1.50948429,3.11778835" id="Fill-27" fill="#161E2C"></path>
                        </g>
                        <path d="M1.86096868,6.40869711 C1.72846365,6.40869711 1.59452614,6.38576451 1.46452796,6.35891924 C1.17504627,6.29925101 0.890100775,6.22056286 0.612914587,6.12372426 C0.511566149,6.08840153 0.40377152,6.04471004 0.351247005,5.95830523 C0.245959229,5.78516955 0.429436908,5.58008039 0.62127076,5.4868284 C0.812865864,5.39357641 1.04695807,5.32651758 1.14066658,5.14805632 C1.1552302,5.12023289 1.16537698,5.09099654 1.17277816,5.06110808 L3.05912448,5.0462182 C3.00946493,5.18555275 2.95729854,5.32423519 2.90238655,5.46193947 C2.74588737,5.8550542 2.50845269,6.29023013 2.06199432,6.38826427 C1.99586118,6.40271942 1.9285343,6.40869711 1.86096868,6.40869711" id="Fill-102" fill="#161E2C"></path>
                    </g>
                    <path d="M36.9309845,41.6907402 C37.4690339,44.1114998 39.006993,45.8505002 40.6500638,47.6305812 C42.5301418,49.6675536 44.2988061,51.8040715 45.9454781,54.0281762 C46.6572878,53.7360728 47.3690976,53.4440802 48.0807948,53.1519768 C47.4858006,49.7502683 45.845881,46.6292579 44.5750896,43.4120241 C43.6918828,41.1764036 42.9764718,38.8122267 42.9376458,36.3962285 C42.9184016,35.1945964 43.2142669,34.0957208 43.3726094,32.9271966 C43.5689901,31.4795244 43.5801315,29.9957545 43.7574931,28.5414386 C43.8170263,28.0537877 43.850788,27.4769998 43.4697306,27.1597609 C43.3000217,27.0185813 43.0764065,26.9591198 42.8581932,26.9174857 C34.7643819,25.3752508 35.9078916,37.0878424 36.9309845,41.6907402" id="Fill-28" fill="#303133"></path>
                    <path d="M43.5163868,28.9436772 C43.520524,27.479702 43.3411672,26.0683782 43.066316,24.9922797 C40.799818,24.8714132 38.2385279,25.1213144 35.9970668,25.5743156 C33.8063439,26.0172721 32.4399533,26.4923493 32.4241114,28.8594569 C32.3950864,33.214957 30.6865996,36.9250629 29.9487885,41.1114602 C29.5200604,43.5443545 30.2608626,45.7206144 31.0816498,47.9738094 C32.0208633,50.5520747 32.8208233,53.1808942 33.4764338,55.8448147 C34.2357367,55.8402891 34.994818,55.8358739 35.7540101,55.8313483 C36.5030102,52.4723625 36.1940379,48.9835693 36.2577378,45.5433435 C36.30194,43.1527248 36.5476555,40.706033 37.429373,38.4631033 C38.3986085,35.9976468 39.7943565,36.9788181 41.3962707,35.5490609 C42.953761,34.1589301 43.5088919,31.4724921 43.5163868,28.9436772" id="Fill-29" fill="#303133"></path>
                    <path d="M40.790179,11.9294003 C41.0373463,12.1250413 41.2547529,12.3610172 41.4693147,12.5948702 C41.661556,12.8041424 41.8539067,13.0136381 42.046148,13.2231337 C42.7123728,13.9486032 43.0413822,15.0225617 43.326954,15.9494821 C44.8295433,20.827323 45.3702697,27.5193402 44.3945113,32.6160621 C40.693566,32.9425401 36.4099885,31.989698 32.7172493,31.4746181 C32.3581509,31.4244509 31.9513478,31.3423286 31.7650149,31.0249008 C31.6520992,30.8326117 31.6489262,30.5956302 31.6489262,30.3712743 C31.6493638,27.1357677 32.3188711,23.6583634 32.9469103,20.4687781 C33.2119122,19.1227546 33.5384051,17.7882394 33.9571343,16.4831095 C34.4003725,15.1015555 34.9000685,13.6098347 35.9373179,12.5647029 C37.0473279,11.4463871 39.1722668,10.8941008 40.5618309,11.7671669 C40.6409376,11.8169989 40.7168713,11.8715237 40.790179,11.9294003" id="Fill-30" fill="#FFFFFE"></path>
                    <path d="M42.4497255,13.7660018 C42.5355836,13.886712 42.6271064,14.0673835 42.7639462,14.275167 C43.4825776,15.365946 43.8020187,17.0330514 44.0560388,18.2985396 C44.5970672,20.9948877 44.5544158,23.8139709 43.8985397,26.4857945 C43.8745483,26.5836676 43.843004,26.6909906 43.7582566,26.7440896 C43.6746199,26.796626 43.5674361,26.7785979 43.4710262,26.7588268 C42.8691308,26.6350792 42.2672353,26.5115565 41.6654509,26.3878089 C41.5358307,26.3612594 41.3998794,26.3314475 41.3004706,26.2433617 C41.1060958,26.0711275 41.1311979,25.7641209 41.1675182,25.5052634 C41.4053219,23.8111585 41.4250926,22.0861167 41.2300514,20.3864994 C41.1378622,19.5834899 40.7332294,18.5954214 40.7817675,17.8035491 C40.8253075,17.0913253 41.2324949,16.3229651 41.2888081,15.5436926 C41.3226848,15.0762641 41.3732223,14.38159 41.7001052,14.0119221 C42.1326169,13.5227815 42.2796753,13.5263814 42.4497255,13.7660018" id="Fill-76" fill="#FFFFFE"></path>
                    <path d="M40.4273326,12.8597165 C40.5221753,12.4202499 40.5028331,11.905175 40.5606399,11.5259048 C40.6508668,11.482014 40.7369176,11.4335442 40.8162646,11.3819474 C42.3666073,10.3759207 44.967253,4.97467005 40.8345078,3.76571819 C37.0822322,2.66788939 37.2773027,7.9135678 38.0095585,10.1008493 C38.1349531,10.4750939 38.3024389,10.8287891 38.5504805,11.1354664 C38.7201643,11.3452042 38.7582992,11.3053339 38.7337918,11.5495812 C38.6957668,11.9175717 38.4148654,12.2279345 38.3657406,12.6059762 C38.2896906,13.1917455 38.4992677,13.9481641 38.6297176,14.5162877 C39.0864571,14.2094987 39.5431966,13.902598 40.000046,13.595809 C40.2405046,13.434206 40.3616131,13.165277 40.4273326,12.8597165" id="Fill-31" fill="#F2C3AA"></path>
                    <path d="M41.2341828,9.73640119 C41.5010998,10.0909725 42.0853566,9.9955824 42.4968343,9.80010382 C44.1870388,8.99742878 45.1818481,7.06493343 44.8069153,5.31316563 C44.4931606,3.84724018 42.5375427,2.74801462 42.1421401,4.56414066 C42.0018583,5.20805082 42.4169212,6.10032476 42.321858,6.81471211 C42.1860865,7.83559326 41.6824369,8.81189349 41.2341828,9.73640119" id="Fill-33" fill="#161E2C"></path>
                    <path d="M36.916394,8.09695794 C37.1687114,8.76004945 37.5220763,9.39331882 37.9639335,9.9746913 C37.9401505,8.74784466 38.1092876,7.51823867 38.4649464,6.33172089 C38.491989,6.24119319 38.5185487,6.13867296 38.4626526,6.05897038 C38.4106197,5.98457423 38.3046223,5.95687466 38.2073171,5.93830216 C36.471398,5.60845446 36.4764685,6.9410052 36.916394,8.09695794" id="Fill-32" fill="#161E2C"></path>
                    <path d="M38.195035,1.7383765 C38.0165316,1.80868779 37.8349769,1.88280264 37.6437232,1.95746084 C37.2477028,2.11188488 36.9607678,2.16404782 36.5525421,1.93268345 C36.4356104,1.86650172 35.6532685,1.12883082 35.8414708,0.975602185 C34.5933636,1.99104073 35.6199217,3.47322892 36.0879755,4.52235603 C36.4035713,5.22948988 36.4684123,6.2278668 37.177631,6.69005217 C37.9575754,7.19831481 38.4927587,6.55562393 39.2009966,6.26753237 C39.8257585,6.01345538 40.5010855,5.8759843 41.1367451,5.64972755 C42.1915281,5.27448041 43.7610068,4.61537994 43.4116284,3.21795653 C43.0036206,1.5857999 41.345435,1.17892897 39.855727,1.30368534 C39.2191956,1.356935 38.7209553,1.53102881 38.195035,1.7383765" id="Fill-34" fill="#161E2C"></path>
                    <path d="M14.2168706,57.2061025 C14.5404193,57.2178375 14.8512777,57.1397547 15.1689532,57.1082733 C15.3329824,53.7190048 15.0353386,50.1669133 14.9061289,46.761622 C14.0968902,46.8079977 13.2876515,46.8545992 12.4784128,46.900975 C13.0419223,48.721027 13.4442343,50.5985127 13.6794757,52.5000326 C13.7168123,52.8014188 14.1707243,57.20441 14.2168706,57.2061025" id="Fill-36" fill="#F2C3AA"></path>
                    <path d="M15.4925128,56.3077137 C15.6986732,56.268446 15.8203133,56.3665574 15.9577536,56.5009248 C16.0375122,56.5789969 16.0917308,56.6893866 16.1880472,56.7453344 C16.2842554,56.8011664 16.3787321,56.8121706 16.4931214,56.824449 C17.0954778,56.8892002 18.4834082,56.8624426 17.7440444,57.940741 C17.072535,58.9200014 15.2892743,58.5302201 14.2592297,58.2641495 C14.1914835,58.2467744 14.1199497,58.2357701 14.0702764,58.1797065 C14.0207113,58.123527 13.9871629,58.0436016 13.9660598,57.9607803 C13.8484239,57.5001086 13.6877162,56.9246454 14.2171318,56.7315502 C14.3285992,56.6908925 14.4356294,56.7091942 14.544283,56.7276118 C14.6557503,56.7464928 14.768841,56.7653737 14.8899399,56.7204301 C15.0858194,56.6478022 15.2864606,56.3469814 15.4925128,56.3077137" id="Fill-37" fill="#161E2C"></path>
                    <path d="M16.9993718,48.5782605 C15.2495446,48.5445979 13.4997173,48.5108249 11.7500012,48.4772727 C10.3345493,41.7892273 9.08800865,35.0659741 8.01193605,28.3160116 C7.92853681,27.7925302 7.84725035,27.2482994 7.99925936,26.7402698 C8.28659755,25.7796158 9.32319451,25.2314118 10.3157567,25.0474262 C11.8580866,24.7614595 14.6919928,25.1596718 15.48284,26.7513067 C16.318834,28.4334444 16.1785009,31.4376954 16.3812167,33.2965343 C16.9344316,38.3687739 17.1415953,43.4783183 16.9993718,48.5782605" id="Fill-38" fill="#21467C"></path>
                    <path d="M4.3498436,57.2061025 C4.02630608,57.2178375 3.71545836,57.1397547 3.39768893,57.1082733 C3.23366536,53.7190048 3.53140379,50.1669133 3.66050417,46.761622 C4.46971504,46.8081106 5.27892591,46.8545992 6.08824165,46.900975 C5.52464663,48.721027 5.12245331,50.5985127 4.88711515,52.5000326 C4.84977987,52.8014188 4.39598834,57.20441 4.3498436,57.2061025" id="Fill-39" fill="#F2C3AA"></path>
                    <path d="M3.07408184,56.3077137 C2.86791735,56.268446 2.74638312,56.3665574 2.60894013,56.5009248 C2.52907169,56.5789969 2.47496027,56.6893866 2.37864196,56.7453344 C2.28243186,56.8011664 2.18795334,56.8121706 2.07356181,56.824449 C1.47119356,56.8892002 0.0832358112,56.8624426 0.82261416,57.940741 C1.49402857,58.9200014 3.27732431,58.5302201 4.30749739,58.2641495 C4.37513666,58.2467744 4.44678017,58.2357701 4.49634622,58.1797065 C4.5460205,58.123527 4.57946135,58.0436016 4.60067303,57.9607803 C4.71820301,57.5001086 4.87891391,56.9246454 4.34959607,56.7315502 C4.23812656,56.6908925 4.13098596,56.7091942 4.02243846,56.7276118 C3.91086073,56.7464928 3.79776788,56.7653737 3.67677476,56.7204301 C3.48089144,56.6478022 3.28024632,56.3469814 3.07408184,56.3077137" id="Fill-40" fill="#161E2C"></path>
                    <path d="M6.81668588,48.4772727 C8.23214334,41.7892273 9.47868887,35.0659741 10.5547657,28.3160116 C10.6381652,27.7925302 10.7193408,27.2482994 10.5674424,26.7402698 C10.2799919,25.7796158 9.24339089,25.2314118 8.25093604,25.0474262 C6.70848885,24.7614595 3.87468275,25.1596718 3.08372126,26.7513067 C2.247724,28.4334444 2.38816887,31.4376954 2.18534112,33.2965343 C1.63212399,38.3687739 1.42507067,43.4783183 1.56729473,48.5782605 C3.31712885,48.5445979 5.06685177,48.5108249 6.81668588,48.4772727 Z" id="Fill-41" fill="#A86B13"></path>
                    <path d="M17.8449307,0.823557479 C17.821681,0.848975493 17.7979905,0.87540127 17.7834457,0.905410203 C17.6475836,1.18523231 17.7415742,1.41377049 17.68648,1.71979442 C17.6619081,1.85617831 17.3376241,1.99278614 17.5451085,2.19142736 C17.6215792,2.26477009 17.8343527,2.41761409 17.9990841,2.57236165 C18.2391842,2.79798852 18.4094251,3.23155042 18.4820391,3.60117538 C18.7674267,5.05313745 18.6561365,6.5438424 18.5003304,8.01484 C18.4914051,8.09870825 18.4809372,8.18615965 18.4349887,8.25647909 C18.3527883,8.38222548 18.1878365,8.41369007 18.0410658,8.43720454 C17.3602127,8.5464908 16.6894969,8.7201619 16.0402678,8.95530653 C15.4610082,9.16514511 14.8850543,9.43332196 14.4513534,9.87651359 C14.0177626,10.3194813 13.7470301,10.9679206 13.8831126,11.577393 C13.9849265,12.0337976 14.3167033,12.4306321 14.7435726,12.6063187 C15.8020408,13.0422321 16.9790715,11.8406431 17.7878532,11.280439 C18.5532207,10.7503558 19.2818956,10.1658535 19.9667155,9.53230665 C20.05134,9.45403708 20.1372868,9.37207238 20.1848882,9.26648125 C20.2354646,9.15383578 20.2372276,9.02562597 20.2376683,8.90178313 C20.2442796,7.30716665 20.1122741,5.72094819 19.9479835,4.12913105 C19.9028063,3.69176204 19.6371424,3.33411827 19.5990173,2.92922161 C19.5745555,2.67089845 19.7384054,2.45042237 19.7684868,2.20150499 C19.7983478,1.955163 19.775649,1.62405697 19.7139436,1.38420945 C19.592406,0.911120859 19.1304969,0.724684763 18.7427445,0.521452622 C18.6462196,0.470840541 18.5810984,0.436352662 18.4792844,0.43733891 C18.3137817,0.439152003 18.1870652,0.539480377 18.0578144,0.634545989 C17.9813438,0.690868726 17.9088399,0.75357396 17.8449307,0.823557479" id="Fill-42" fill="#F2C3AA"></path>
                    <path d="M17.8170326,12.4956699 C18.4985763,12.0096028 19.1362709,11.4637863 19.8005407,10.9198755 C19.9206828,10.8215635 20.0444791,10.7185433 20.1114708,10.5776332 C20.1708221,10.4527534 20.1796805,10.310386 20.1867672,10.171942 C20.2828809,8.29000165 20.243461,6.40099893 20.0689504,4.52477565 C19.4759908,4.57107309 18.8830312,4.61737053 18.2899608,4.66366796 C18.2716903,5.55452931 18.2534199,6.44550276 18.2350387,7.33647621 C18.2296129,7.60405971 18.2200901,7.88599205 18.081456,8.11377993 C17.9273198,8.36679038 17.6447366,8.50366489 17.3775449,8.62708735 C16.5523843,9.00822849 15.8585495,9.03759877 14.9792419,9.0462305 C13.468662,9.06113984 11.9599646,9.29419644 10.5141618,9.73800166 C10.2382224,9.82274951 9.93626145,9.93922176 9.8116901,10.2024333 C9.74292672,10.3478275 9.74104431,10.5151933 9.74037993,10.6765056 C9.73783313,11.4244391 9.73595072,12.1795469 9.89473767,12.9099927 C10.0205271,13.487982 10.3653405,14.5486754 10.9362649,14.848768 C11.4881436,15.1387715 12.4561461,14.8361006 13.0381434,14.7065126 C14.2621538,14.7065126 15.6449512,13.7722685 16.6796131,13.2124394 C17.0782414,12.9967584 17.4538379,12.7547337 17.8170326,12.4956699" id="Fill-43" fill="#FFC53D"></path>
                    <path d="M6.18658408,11.6292528 C5.8078532,12.1113187 5.33565066,12.5275873 4.96385584,13.0264382 C4.1827234,14.0743832 3.56563427,15.2493349 3.1317452,16.4872863 C2.02197564,19.6531656 2.00072708,23.0334457 1.99048813,26.3456904 C1.98707515,27.4481308 1.98377227,28.5505711 1.9802745,29.6530115 C1.9769463,30.7375479 2.07129874,30.9710835 3.23105196,30.8280751 C5.38023961,30.5632074 7.61442152,30.1128093 9.56180286,29.1420754 C10.4883724,28.6802634 11.354389,28.096816 12.3259878,27.7330286 C13.7391825,27.2039646 15.1881584,27.4435429 16.5863799,27.099338 C15.9793096,25.2344099 15.5449801,23.6458752 15.2334079,21.7245495 C14.9125876,19.7459309 14.6210529,17.5879363 14.1509422,15.6360618 C13.8687657,14.4646909 13.3442674,13.3705312 12.8107413,12.2934921 C12.6105865,11.8897564 12.4072388,11.4853492 12.1571003,11.1105955 C12.0261959,10.9143227 11.8829608,10.7258828 11.72189,10.5541161 C11.6060688,10.4305783 11.4926698,10.2137158 11.3321495,10.1655987 C10.8914345,10.0335565 10.4430127,9.92803466 9.99007703,9.84959265 C9.91025729,9.76197482 9.96673664,9.57991326 9.85950295,9.53101289 C9.83087794,9.51780867 9.79795918,9.51993478 9.76658177,9.52228468 C9.13044601,9.57006605 8.49442034,9.61784742 7.85828457,9.66562879 C7.83538457,9.78424296 7.87226679,9.90509513 7.89054276,10.0246045 C7.90881872,10.144002 7.90199276,10.2819749 7.81446629,10.363662 C7.76173022,10.41301 7.68917683,10.4324806 7.62058691,10.4534059 C7.59801719,10.4603437 7.57555757,10.4676172 7.55320804,10.4751145 C6.94063286,10.6829131 6.59922459,11.0925796 6.21884226,11.5877378 C6.20816293,11.6016134 6.19737351,11.6154891 6.18658408,11.6292528" id="Fill-44" fill="#FFC53D"></path>
                    <path d="M13.8477352,2.30981054 L13.8477352,2.30981054 L17.3392557,2.29141601 L13.8477352,2.30981054 M19.6166903,2.27961081 L19.6166903,2.27961081 L24.3458734,2.25472408 C24.3439087,2.25472408 24.3417257,2.25472408 24.339761,2.25472408 L19.6166903,2.27961081" id="Fill-46" fill="#C1CFD7"></path>
                    <polyline id="Fill-47" fill="#DCB29A" points="17.4992615 2.25711818 17.4992615 2.25711818 19.7814655 2.25083674 17.4992615 2.25711818"></polyline>
                    <path d="M43.1884392,28.3899656 C47.0402652,38.9875764 41.6247062,50.7204906 31.0920687,54.5963002 C20.5596524,58.4719985 8.89878263,53.0228096 5.04695659,42.4251988 C1.19490936,31.8274767 6.61068958,20.0946738 17.1432165,16.2189755 C27.6756328,12.3432771 39.3365026,17.7923547 43.1884392,28.3899656" id="Fill-56" fill="#C9CAD1"></path>
                    <path d="M40.6170572,29.3256557 C43.9496468,38.5103289 39.2641276,48.6788635 30.1516417,52.0378126 C21.0393766,55.3967616 10.9507501,50.6740706 7.61816053,41.4895087 C4.28579172,32.3049468 8.97109012,22.1364121 18.083576,18.7774631 C27.1959515,15.4185141 37.284578,20.1410938 40.6170572,29.3256557" id="Fill-57" fill="#FFFFFE"></path>
                    <path d="M23.9830321,53.1198569 C20.8822733,53.1198569 17.8618486,52.3067213 15.2170575,50.8168541 C15.4254586,50.9055498 15.6354174,50.9902789 15.8471565,51.0710416 C18.3264951,52.3320629 21.1002433,53.0146341 23.9420862,53.0146341 C25.9615628,53.0146341 28.0153092,52.669988 30.0219901,51.9432342 C39.1893009,48.623261 43.9110929,38.5851127 40.5880248,29.5035557 C40.5950345,29.5221763 40.6018218,29.5404664 40.6087203,29.5591971 C43.9672822,38.6537555 39.2450451,48.7227544 30.0610445,52.0487876 C28.0545861,52.7754312 26.0019523,53.1198569 23.9830321,53.1198569" id="Fill-58" fill="#295293"></path>
                    <path d="M24.148386,53.1198569 C21.3333935,53.1198569 18.5858523,52.4359523 16.1299391,51.1724674 C18.121518,51.9412668 20.2568167,52.3497328 22.4323438,52.3497328 C24.4321887,52.3497328 26.4659798,52.0045238 28.4532603,51.2765711 C37.5504882,47.9440402 42.2283288,37.8554809 38.9013892,28.7431555 C37.4173489,24.6789183 34.5913349,21.4965263 31.1088824,19.5120437 C35.3716546,21.3476018 38.9031527,24.8628385 40.6370496,29.5628475 C43.9287205,38.6621461 39.2515412,48.7199048 30.1708455,52.046364 C28.1831241,52.7745375 26.148782,53.1198569 24.148386,53.1198569" id="Fill-59" fill="#F2F4F3"></path>
                    <path d="M22.9922861,35.8876964 L23.2033003,36.5411442 C23.2591668,36.7141701 23.4463799,36.8096664 23.621362,36.7544593 L39.6332116,31.7074165 C39.8081936,31.6522094 39.9048305,31.4672056 39.8490742,31.2941797 L39.6381701,30.6408408 C39.5823037,30.4678149 39.3950905,30.3723185 39.2201085,30.4275256 L23.2081487,35.4745684 C23.0332768,35.5297756 22.93664,35.7146705 22.9922861,35.8876964" id="Fill-60" fill="#FFB64D"></path>
                    <path d="M24.1223771,34.0584713 L21.1123875,25.8648331 C20.9823179,25.5105438 20.5881846,25.3282645 20.2321752,25.457858 C19.8761658,25.5874516 19.6931713,25.9798041 19.8234651,26.3340934 L22.8333426,34.5277316 C22.5300338,34.8898345 22.4222779,35.3979394 22.5967506,35.8726692 C22.857114,36.5813595 23.6452684,36.9458064 24.3571751,36.6866194 C25.069194,36.4273207 25.4351829,35.6427272 25.1749316,34.9339253 C25.0004589,34.4591955 24.5890578,34.1402904 24.1223771,34.0584713" id="Fill-61" fill="#161E2C"></path>
                    <path d="M7.45081713,25.9653471 C7.45564933,25.9319714 7.4603717,25.8973959 7.4555395,25.86522 C7.41073189,25.5645116 7.20613244,25.4343901 7.08060524,25.1583318 C7.02448591,25.0351908 7.21414949,24.743099 6.93322335,24.7007795 C6.82955084,24.6851824 6.56993028,24.6824556 6.34852798,24.6512614 C6.02575944,24.6057788 5.64423582,24.3544795 5.37857502,24.0993628 C5.02143202,23.756444 4.65132995,23.385385 4.35206344,22.9964383 C3.72354886,22.1796066 3.11447288,21.2014592 2.65321808,20.2794832 C4.15229619,19.4552347 5.11214546,17.7479486 5.03230445,16.0479702 C5.02395794,15.8702938 5.00309165,15.6865094 4.91106033,15.5339193 C4.83319613,15.4049975 4.71030467,15.308797 4.58093368,15.2305932 C3.21364266,14.4026363 2.48233416,15.7247933 1.84821863,16.7655474 C1.45241808,17.4151734 1.09209022,18.099484 0.796887145,18.8004824 C0.383514985,19.781902 0.709688023,20.6390898 1.28186362,21.5064213 C1.88830387,22.4255614 2.5190149,23.3459013 3.31149457,24.1192137 C3.69664233,24.4950719 4.12517001,24.7718937 4.55216017,25.0914713 C4.97409849,25.4074496 4.80892534,25.5764004 5.10687398,25.9469141 C5.27314535,26.1538215 5.40317528,26.3957407 5.60601757,26.5689452 C5.96964011,26.8794699 6.45231031,26.7686539 6.88358355,26.7131369 C6.9908802,26.6992849 7.06347292,26.690232 7.14638896,26.6319881 C7.28103144,26.5373146 7.32891408,26.3855971 7.38173874,26.2366063 C7.41303817,26.148477 7.4375286,26.0574029 7.45081713,25.9653471" id="Fill-73" fill="#F2C3AA"></path>
                    <path d="M5.42065258,10.8170807 C3.63355075,11.9982789 2.22742198,13.771447 1.39638057,15.7155824 C1.02188172,16.5916934 0.396563514,17.2849935 0.224327529,18.2541002 C0.0519799206,19.2243036 0.206021177,20.2518616 0.605858699,21.1512216 C1.29982572,22.7115306 2.61419948,23.9193773 3.98460855,24.9619594 C4.29246781,24.5050963 4.60010383,24.0482333 4.90785147,23.5914799 C4.96288215,23.5096701 5.01981044,23.422706 5.02505677,23.3247754 C5.03041473,23.2221293 4.97817465,23.1261727 4.92749731,23.0363573 C4.48847973,22.2588348 4.04946215,21.4813123 3.61055619,20.7037897 C3.52036392,20.544118 3.42816241,20.378305 3.41197692,20.1963713 C3.36665753,19.6897205 3.90468569,19.2969016 3.98170632,18.8002303 C4.03193716,18.8399289 4.08216801,18.8796275 4.13239885,18.9193261 C4.08562836,18.8822595 6.99511049,15.8293046 7.16198852,15.6416684 C7.798804,14.925887 8.45325609,14.1793996 8.7275165,13.2676475 C9.31309653,11.3207706 7.19424788,9.64476534 5.42065258,10.8170807" id="Fill-74" fill="#FFC53D"></path>
                    <path d="M40.1114273,31.2199821 C40.088151,31.1867899 40.0645422,31.1521301 40.0520174,31.1147606 C39.9354142,30.7668071 40.0792839,30.5142529 40.0607737,30.1481227 C40.0525716,29.9847584 39.6948925,29.7749928 39.9665601,29.5748235 C40.066759,29.5011007 40.3375399,29.3553486 40.5529011,29.2000001 C40.8666877,28.9734126 41.1300424,28.4931419 41.2699218,28.0724817 C41.5348282,27.2764335 41.3712291,24.8387266 42.3998197,24.5676571 C44.8163425,23.9305702 42.5731727,28.5790577 42.4716437,29.0307651 C42.4046966,29.3289303 42.5626429,29.6120801 42.5604261,29.9076486 C42.558431,30.200056 42.4823951,30.5834597 42.3745483,30.8543035 C42.1619581,31.388314 41.5955683,31.5346306 41.1129731,31.7121072 C40.9928231,31.7563634 40.9119102,31.7865074 40.7934228,31.7695726 C40.6004512,31.7419124 40.4678872,31.6049664 40.3314438,31.4738911 C40.2505309,31.3962169 40.1753817,31.3116558 40.1114273,31.2199821" id="Fill-75" fill="#F2C3AA"></path>
                    <polyline id="Fill-100" fill="#A0877F" points="35.1045318 56.8078161 34.8440117 56.7031629 35.2992528 56.6984519 35.3004525 56.8046754 35.1045318 56.8078161"></polyline>
                    <path d="M31.8042702,58.5697725 C31.4763668,58.1397712 31.6896456,57.5564019 32.2367175,57.3872177 L32.4171494,57.3312991 L33.3912319,56.7644606 L34.8369516,56.753134 L35.1566999,56.8483384 L35.3289766,56.8996651 L35.7568933,57.3146664 L35.6845167,58.298139 L31.8042702,58.5697725" id="Fill-101" fill="#161E2C"></path>
                    <path d="M16.187839,58.5697725 C15.5145847,58.5697725 14.78776,58.4140729 14.2591997,58.28834 C14.1914522,58.2723435 14.1199169,58.2622123 14.0702426,58.2105968 C14.0206765,58.1588747 13.9871274,58.0852906 13.966024,58.0090404 C13.8965449,57.7583212 13.8119146,57.47081 13.8637534,57.2407797 L17.7825027,57.2072936 C17.9928879,57.3482765 18.0466747,57.5842788 17.7440836,57.990591 C17.4171423,58.4295362 16.8265703,58.5697725 16.187839,58.5697725" id="Fill-103" fill="#161E2C"></path>
                    <path d="M2.37872106,58.5697725 C1.73998394,58.5697725 1.14951465,58.4175758 0.822570424,57.9411943 C0.604391157,57.6231437 0.571491108,57.4013879 0.64897938,57.2450245 L4.71484094,57.2072936 C4.73724328,57.441665 4.6628935,57.7174709 4.60066479,57.9612172 C4.57945291,58.0439705 4.54601175,58.1238304 4.496337,58.1799638 C4.44677048,58.2359814 4.3751263,58.2469766 4.3074864,58.2643375 C3.77881292,58.4007937 3.05198159,58.5697725 2.37872106,58.5697725" id="Fill-104" fill="#161E2C"></path>
                </g>
                <path d="M49.7553684,101.268004 L49.715658,101.228492 L46.8003707,98.3277742 C46.4936425,98.4703803 46.1978688,98.6306987 45.9171578,98.8141792 L49.0296275,101.911094 L49.1090482,101.990118 L55.6288485,108.477334 C55.8132506,108.19848 55.9748307,107.903276 56.1176966,107.598989 L49.7946223,101.307516 L49.7553684,101.268004 Z M48.6119842,102.405674 L48.5722739,102.366162 L45.3876864,99.1974899 C45.1348182,99.399591 44.8979255,99.6194042 44.6751824,99.8537506 L54.584512,109.713556 C54.819579,109.491926 55.0409528,109.256218 55.2436125,109.004159 L48.6516946,102.445185 L48.6119842,102.405674 Z M50.8590422,100.090822 L50.8590422,100.090822 L48.5371279,97.7800577 C48.1633029,97.846365 47.8004325,97.9417385 47.4498859,98.0639075 L56.3828887,106.952266 C56.5056713,106.603017 56.6019803,106.242414 56.6681642,105.870912 L50.8982961,100.130334 L50.8590422,100.090822 Z M56.6987458,103.626001 L52.0818471,99.0321758 L52.0421368,98.9926639 L50.7928583,97.749629 C50.4569179,97.7005798 50.1159566,97.6665178 49.766323,97.6665178 C49.6284779,97.6665178 49.4938278,97.6792343 49.3578085,97.686955 L56.7617346,105.053878 C56.7699505,104.918539 56.7822744,104.784562 56.7822744,104.647406 C56.7822744,104.299973 56.7484978,103.960716 56.6987458,103.626001 Z M47.4686,103.543344 L47.4288897,103.503832 L44.2511489,100.341518 C44.0480327,100.599027 43.8627177,100.871068 43.6970297,101.155372 L46.8227363,104.265457 L46.8227363,104.265911 L53.2754398,110.686366 C53.5616282,110.521506 53.8350362,110.337572 54.0933817,110.135016 L47.5083104,103.582855 L47.4686,103.543344 Z M52.4994905,98.537596 L56.4166654,102.435194 C55.8036654,100.609926 54.4535135,99.1239161 52.7176692,98.3209618 C52.4812328,98.2115094 52.2393192,98.1134109 51.9896461,98.0302997 L52.4597801,98.4980841 L52.4994905,98.537596 Z M44.0384474,106.955899 L43.9987371,106.916841 L42.8494192,105.772813 C42.8982583,106.072104 42.9612472,106.3664 43.0466016,106.651612 C43.1438235,106.974065 43.2670625,107.283348 43.4071898,107.584002 C43.44051,107.655305 43.4742866,107.725245 43.5094326,107.794732 L46.6031883,110.873026 C46.9697102,111.057869 47.3526641,111.2141 47.7525062,111.333544 C48.039151,111.418926 48.3344682,111.481146 48.6352627,111.530195 L44.0781578,106.995411 L44.0384474,106.955899 Z M46.2855055,104.641502 L46.2859619,104.641047 L43.3857371,101.755771 C43.2383067,102.076862 43.1159806,102.410215 43.0183023,102.754922 L45.6396418,105.363615 L45.6793521,105.403127 L45.6793521,105.403581 L51.6683118,111.362156 C52.0152068,111.26542 52.3497779,111.142797 52.6724815,110.996103 L46.3252158,104.681013 L46.2855055,104.641502 Z M45.1421213,105.779171 L45.1425777,105.778717 L42.8526143,103.500652 C42.7905383,103.874426 42.7499151,104.25592 42.7499151,104.647406 C42.7499151,104.688734 42.7558488,104.7287 42.7563053,104.770029 L44.4560908,106.461773 L44.4958011,106.501285 L49.643084,111.622843 C49.6846201,111.623298 49.7247869,111.629202 49.766323,111.629202 C50.1597749,111.629202 50.5431852,111.588781 50.918836,111.526562 L45.1818316,105.818683 L45.1421213,105.779171 L45.1421213,105.779171 Z" id="Fill-40-Copy-2" fill="#FFFFFE" opacity="0.100000001" transform="translate(49.766095, 104.647860) rotate(-100.000000) translate(-49.766095, -104.647860) "></path>
                <path d="M93.6726113,23.8046933 C93.2393572,23.8046933 91.1093722,23.8046933 89.0043528,23.8046933 C88.2594163,21.8058457 87.251488,19.9315359 86.0215054,18.2221094 C86.3685428,17.9894763 86.7881511,17.85352 87.2400131,17.85352 C88.1045054,17.85352 88.8483565,18.3521281 89.1953939,19.0713418 C89.5922075,18.6235841 90.1755654,18.3393394 90.8273073,18.3393394 C92.0230204,18.3393394 92.9921822,19.2908816 92.9921822,20.464704 C92.9921822,20.6332412 92.9701628,20.7962975 92.9324818,20.9534161 C93.1522102,20.8354249 93.4043473,20.7682841 93.6726113,20.7682841 C94.5264041,20.7682841 95.2187732,21.4480658 95.2187732,22.2864887 C95.2187732,23.1249116 94.5264041,23.8046933 93.6726113,23.8046933" id="Fill-3" fill="url(#linearGradient-5)" opacity="0.229999989"></path>
                <g id="Group-23" opacity="0.900000036" transform="translate(44.363292, 0.000000)">
                    <path d="M44.9566642,22.7225897 C44.9566642,35.2720348 35.0022653,45.4453236 22.7226618,45.4453236 C10.4430583,45.4453236 0.488659393,35.2720348 0.488659393,22.7225897 C0.488659393,10.1731446 10.4430583,0 22.7226618,0 C35.0022653,0 44.9566642,10.1731446 44.9566642,22.7225897" id="Fill-15" fill="url(#linearGradient-6)"></path>
                    <path d="M44.9566642,22.7225897 C44.9566642,35.2720348 35.0022653,45.4453236 22.7226618,45.4453236 C10.4430583,45.4453236 0.488659393,35.2720348 0.488659393,22.7225897 C0.488659393,10.1731446 10.4430583,0 22.7226618,0 C35.0022653,0 44.9566642,10.1731446 44.9566642,22.7225897" id="Fill-15-Copy" fill="url(#linearGradient-7)"></path>
                    <path d="M26.4491579,8.09685534 C28.7970046,11.101398 29.0906833,16.0591365 26.5957814,16.9603962 C24.1007357,17.8618032 22.1927596,14.2563225 20.2850712,12.7539775 C18.3770951,11.2516325 15.7354258,8.54755884 17.9367929,5.84348514 C19.5367014,3.87821168 24.1007357,5.09245993 26.4491579,8.09685534 Z" id="Fill-16" fill="#4668FF"></path>
                    <path d="M11.8640145,14.6416733 C8.19274533,13.418662 6.57607038,10.5875356 6.19174418,7.8185503 C2.3518317,11.8333509 0,17.2280834 0,23.1611346 C0,32.1483647 5.39469328,39.9010389 13.1869471,43.490686 C12.912574,41.3848719 14.0257948,39.4195878 15.2804254,38.1915882 C17.5084688,36.0110906 18.3997444,32.9581946 14.6862417,30.6326061 C10.9727389,28.3064475 12.1611064,25.2536939 15.8746091,23.6547004 C19.5879663,22.0555644 18.8453823,16.9676893 11.8640145,14.6416733 Z" id="Fill-17" fill="#4668FF"></path>
                    <path d="M28.291273,0.488659393 C27.8626788,2.53819384 28.6448118,5.45218338 30.8967675,7.67136641 C34.4922295,11.2147348 39.885349,19.1872053 34.0427784,24.0592464 C28.2000609,28.931577 24.4549288,34.6896412 30.2976463,38.2328649 C32.4359172,39.5295475 34.5938701,40.2130634 36.4712832,40.5587297 C41.9306453,36.3862718 45.4453236,29.8604465 45.4453236,22.5247373 C45.4453236,11.9694684 38.1696502,3.09042026 28.291273,0.488659393" id="Fill-19" fill="#4668FF"></path>
                    <path d="M24.3351305,13.6358263 C26.4800591,13.0109052 22.1905123,6.13633962 20.3139326,7.5112238 C19.0847115,8.4118453 22.1905123,14.260892 24.3351305,13.6358263 Z" id="Fill-20" fill="#4668FF"></path>
                    <g id="Group-22" transform="translate(37.721921, 3.480724) rotate(-15.000000) translate(-37.721921, -3.480724) translate(35.221921, 1.980724)" fill="#FFFFFE">
                        <g id="Group-21" transform="translate(0.264151, 0.000000)">
                            <g id="Group-20" transform="translate(0.000000, 0.000000)">
                                <path d="M1.82273336,2.90927515 C1.37602688,2.90927515 0.965503172,2.66610627 0.75081872,2.27489533 C0.593875943,1.9890626 0.557843932,1.65890771 0.649205433,1.34563745 C0.740566935,1.03236719 0.948467116,0.773519725 1.23446178,0.616583084 C1.41416955,0.517988883 1.61694384,0.46597818 1.82092422,0.46597818 C2.26747994,0.46597818 2.67815442,0.708996303 2.89298963,1.10020724 C3.21652392,1.69101867 2.99957805,2.43484709 2.40904504,2.75851949 C2.2296388,2.85711369 2.02671374,2.90927515 1.82273336,2.90927515" id="Fill-27"></path>
                            </g>
                        </g>
                    </g>
                </g>
            </g>
            <path d="M42.0996803,33.9873491 L41.5859696,33.8051476 C41.4372095,33.7522627 41.3178447,33.6387841 41.2575063,33.492882 C41.1971679,33.3469799 41.2015139,33.1823353 41.2694654,33.0398199 L41.2694654,33.0398199 L41.5031916,32.5475916 C41.6778851,32.1792703 41.6020704,31.7408787 41.3138297,31.4526242 C41.0255891,31.1643697 40.5872186,31.0885513 40.2189149,31.2632533 L39.7267103,31.4973965 C39.58412,31.5650431 39.4195522,31.5691341 39.2737771,31.5086558 C39.1280021,31.4481775 39.0146581,31.3287882 38.9618252,31.1800655 L38.7792266,30.6667359 C38.6423259,30.2827564 38.27874,30.0263745 37.871103,30.0263745 C37.463466,30.0263745 37.0998801,30.2827564 36.9629794,30.6667359 L36.7803808,31.1804713 C36.7274632,31.329121 36.6140841,31.4484143 36.468319,31.5088111 C36.3225539,31.5692079 36.158033,31.5650607 36.0154957,31.4973965 L35.5232911,31.2632533 C35.1549874,31.0885513 34.7166169,31.1643697 34.4283762,31.4526242 C34.1401356,31.7408787 34.0643208,32.1792703 34.2390144,32.5475916 L34.4727406,33.0398199 C34.5405592,33.1823523 34.5448374,33.3469421 34.484515,33.4928056 C34.4241926,33.6386691 34.3049144,33.7521568 34.1562364,33.8051476 L33.6425257,33.9877549 C33.2584657,34.1244574 33.0019612,34.4880382 33.0019612,34.8957192 C33.0019612,35.3034003 33.2584657,35.666981 33.6425257,35.8036835 L34.1562364,35.9862909 C34.3048879,36.0391899 34.4241661,36.1526004 34.4844945,36.2984011 C34.5448229,36.4442019 34.5405519,36.6087386 34.4727406,36.7512128 L34.2390144,37.243441 C34.0643208,37.6117624 34.1401356,38.0501539 34.4283762,38.3384085 C34.7166169,38.626663 35.1549874,38.7024813 35.5232911,38.5277794 L36.0154957,38.294042 C36.1579991,38.2261118 36.3226298,38.2218289 36.4684721,38.2822578 C36.6143145,38.3426866 36.7276752,38.4621534 36.7803808,38.6109672 L36.9629794,39.1242967 C37.0998801,39.5082763 37.463466,39.7646581 37.871103,39.7646581 C38.27874,39.7646581 38.6423259,39.5082763 38.7792266,39.1242967 L38.9618252,38.6105614 C39.0147216,38.4619027 39.1281267,38.3426188 39.2739204,38.2822875 C39.4197141,38.2219562 39.584243,38.2262274 39.7267103,38.294042 L40.2189149,38.5277794 C40.5872186,38.7024813 41.0255891,38.626663 41.3138297,38.3384085 C41.6020704,38.0501539 41.6778851,37.6117624 41.5031916,37.243441 L41.2694654,36.7512128 C41.2016541,36.6087386 41.1973831,36.4442019 41.2577115,36.2984011 C41.3180399,36.1526004 41.437318,36.0391899 41.5859696,35.9862909 L42.0996803,35.8032778 C42.4837403,35.6665752 42.7402448,35.3029945 42.7402448,34.8953134 C42.7402448,34.4876324 42.4837403,34.1240516 42.0996803,33.9873491 Z M37.8712978,36.7678834 C37.1197267,36.756938 36.4435577,36.3069567 36.1408422,35.6162886 C35.7462032,34.6569836 36.1993639,33.5580033 37.1539439,33.1593706 C38.1095003,32.7757432 39.1954696,33.2270213 39.6013638,34.176404 C39.9960028,35.1357091 39.5428421,36.2346893 38.5882621,36.633322 C38.3610219,36.7271506 38.116957,36.7729572 37.8712978,36.7678834 Z" id="Shape" fill="url(#linearGradient-8)" fill-rule="nonzero" opacity="0.400000006"></path>
        </g>
    </g>
</svg>