<?xml version="1.0" encoding="UTF-8"?>
<svg width="26px" height="26px" viewBox="0 0 26 26" version="1.1" xmlns="http://www.w3.org/2000/svg" xmlns:xlink="http://www.w3.org/1999/xlink">
    <!-- Generator: Sketch 61 (89581) - https://sketch.com -->
    <title>xq_dianzan备份</title>
    <desc>Created with Sketch.</desc>
    <g id="xq_dianzan备份" stroke="none" stroke-width="1" fill="none" fill-rule="evenodd" stroke-linejoin="round">
        <path d="M21.5781152,9.2835621 C21.3056583,8.617565 20.9171875,8.02298851 20.4232495,7.51768776 C19.4670137,6.53922553 18.2119542,6 16.8900989,6 C15.3836759,6 13.9721734,6.69635085 12.9983598,7.91764312 C12.0245461,6.69635085 10.6130436,6 9.10662069,6 C7.78652311,6 6.53146362,6.54279656 5.57171225,7.52840085 C5.07601648,8.03727263 4.6857879,8.63363464 4.4150888,9.30141725 C4.13384297,9.99419708 3.99322006,10.7280437 4.00025121,11.4833166 C4.01255571,13.1206339 4.70512355,14.6472492 5.9004183,15.6757058 C5.95490968,15.7221292 6.00588549,15.7667671 6.05686129,15.814976 C6.31877147,16.054235 7.0763774,16.7577279 8.03612878,17.6486999 C9.67965906,19.1753153 11.7257224,21.0751032 12.5624288,21.8303761 C12.6854738,21.9392925 12.840159,22 13.0001176,22 C13.1618339,22 13.3182769,21.9392925 13.4378064,21.8303761 C14.0442427,21.282223 15.2975444,20.1180672 16.6264309,18.8842763 C17.9307084,17.6736971 19.2789306,16.4202656 20.0681767,15.7024886 C21.2898382,14.6686754 21.9947106,13.1242049 22,11.4654614 C22.0017417,10.7066176 21.859361,9.9727709 21.5781152,9.2835621 Z" id="Path" stroke="#FF2525" stroke-width="1.5" fill="#FF2525" fill-rule="nonzero"></path>
    </g>
</svg>