<?xml version="1.0" encoding="UTF-8"?>
<svg width="26px" height="26px" viewBox="0 0 26 26" version="1.1" xmlns="http://www.w3.org/2000/svg" xmlns:xlink="http://www.w3.org/1999/xlink">
    <!-- Generator: Sketch 61 (89581) - https://sketch.com -->
    <title>xq_dianzan</title>
    <desc>Created with Sketch.</desc>
    <g id="xq_dianzan" stroke="none" stroke-width="1" fill="none" fill-rule="evenodd" stroke-linejoin="round">
        <path d="M24.4374869,7.30967526 C24.0742111,6.43555407 23.55625,5.65517241 22.897666,4.99196518 C21.622685,3.70773351 19.9492723,3 18.1867985,3 C16.1782346,3 14.2962313,3.9139605 12.997813,5.5169066 C11.6993948,3.9139605 9.81739151,3 7.80882759,3 C6.04869748,3 4.37528483,3.71242049 3.09561633,5.00602611 C2.43468864,5.67392032 1.91438387,6.45664546 1.55345173,7.33311014 C1.1784573,8.24238366 0.990960082,9.20555742 1.00033494,10.196853 C1.01674095,12.3458319 1.94016474,14.3495146 3.53389107,15.6993639 C3.60654624,15.7602946 3.67451398,15.8188818 3.74248172,15.882156 C4.09169529,16.1961835 5.10183654,17.1195179 6.38150504,18.2889186 C8.57287875,20.2926013 11.3009632,22.786073 12.4165717,23.7773686 C12.5806317,23.9203214 12.7868787,24 13.0001568,24 C13.2157786,24 13.4243692,23.9203214 13.5837418,23.7773686 C14.3923236,23.0579176 16.0633925,21.5299632 17.8352412,19.9106127 C19.5742779,18.3217275 21.3719074,16.6765986 22.4242356,15.7345162 C24.0531176,14.3776364 24.9929474,12.3505189 25,10.1734181 C25.0023223,9.17743555 24.8124813,8.2142618 24.4374869,7.30967526 Z" id="Path" stroke="#303133" stroke-width="1.5" fill-rule="nonzero"></path>
    </g>
</svg>