<?xml version="1.0" encoding="UTF-8"?>
<svg width="12px" height="12px" viewBox="0 0 12 12" version="1.1" xmlns="http://www.w3.org/2000/svg" xmlns:xlink="http://www.w3.org/1999/xlink">
    <!-- Generator: Sketch 61 (89581) - https://sketch.com -->
    <title>景点</title>
    <desc>Created with Sketch.</desc>
    <g id="景点" stroke="none" stroke-width="1" fill="none" fill-rule="evenodd">
        <rect id="矩形" x="0" y="0" width="12" height="12"></rect>
        <path d="M1,10.9786699 C1,10.9786699 2.00538795,8.32746202 2.30952783,7.42887567 C2.61366771,6.52831818 3.1977416,5.12700938 3.99387788,6.42349485 C4.78815572,7.71999636 5.51360964,10.2062049 5.51360964,10.2062049 L5.70145081,11 L1,10.9786699 Z M6.67429294,9.70349849 C6.67429294,9.70349849 6.03254582,7.50451641 5.22340043,5.77134989 C5.79444984,4.10416067 6.57571857,1.88383253 6.80635005,1.55195879 C7.18396761,1.01240954 8.25169793,0.137076311 9.19105735,3.10075102 C10.3685127,6.80777227 11,9.94417065 11,9.94417065 L6.73009236,9.94417065 L6.67429294,9.70349849 Z" id="形状" fill="#FFFFFF" fill-rule="nonzero"></path>
    </g>
</svg>