<?xml version="1.0" encoding="UTF-8"?>
<svg width="77px" height="61px" viewBox="0 0 77 61" version="1.1" xmlns="http://www.w3.org/2000/svg" xmlns:xlink="http://www.w3.org/1999/xlink">
    <!-- Generator: Sketch 61 (89581) - https://sketch.com -->
    <title>wenjianjia</title>
    <desc>Created with Sketch.</desc>
    <defs>
        <path d="M29.0386036,0.92358 C28.6223127,0.34146 27.9816873,-1.13686838e-13 27.3040582,-1.13686838e-13 L5.78181818,-1.13686838e-13 C2.58909818,-1.13686838e-13 9.09494702e-13,2.82114 9.09494702e-13,6.3 L9.09494702e-13,54.18 C9.09494702e-13,57.66012 2.58909818,60.48 5.78181818,60.48 L70.5381818,60.48 C73.7320582,60.48 76.32,57.66012 76.32,54.18 L76.32,15.12 C76.32,11.64114 73.7320582,8.82 70.5381818,8.82 L35.7651709,8.82 C35.0875418,8.82 34.4469164,8.4798 34.0306255,7.89768 L29.0386036,0.92358 Z" id="path-1"></path>
    </defs>
    <g id="wenjianjia" stroke="none" stroke-width="1" fill="none" fill-rule="evenodd">
        <g id="矩形">
            <mask id="mask-2" fill="white">
                <use xlink:href="#path-1"></use>
            </mask>
            <use id="蒙版" fill="#FFE512" xlink:href="#path-1"></use>
            <rect fill="#FEBF1E" mask="url(#mask-2)" x="-8" y="-43" width="76" height="51.8"></rect>
            <path d="M45.9842829,30.8526145 C45.6939727,30.5697644 45.5615157,30.1622458 45.6300771,29.7628541 L46.7187054,23.419226 C46.8038623,22.9165583 46.7188451,22.556293 46.306499,22.2560441 C46.0731836,22.086496 45.7956134,22.0000045 45.5180153,22.0000045 C45.3048157,22.0000045 45.0909176,22.0509443 44.8944812,22.1541645 L39.0730785,25.2903709 C38.7142908,25.4789097 38.2856565,25.4789097 37.9268687,25.2903709 L32.3498452,22.1541365 C31.897938,21.9162218 31.350844,21.9564375 30.9371289,22.2560162 C30.5247828,22.5562651 30.1954144,22.9158601 30.2819403,23.4191981 L31.6155344,29.8945324 C31.6840679,30.2939241 31.5516109,30.7014427 31.2613286,30.9842928 L26.4058758,34.8019311 C26.0391256,35.1578117 25.9083728,35.6906412 26.0652761,36.1758542 C26.2234925,36.6610951 26.6425718,37.0142947 27.1480932,37.0880234 L33.4637021,38.1959366 C33.864733,38.2542493 34.2113954,38.5059881 34.3908173,38.8691857 L37.2984453,45.002715 C37.5237424,45.4604473 37.9897306,45.75 38.5006162,45.75 C39.0115018,45.75 39.476149,45.4604752 39.7027871,45.002715 L42.4963697,38.8693254 C42.6757636,38.5060161 43.0224819,38.2541655 43.4235966,38.1958808 L49.8531392,37.0880234 C50.3573475,37.0149649 50.7777399,36.6610951 50.9346432,36.1758542 C51.092217,35.6906412 50.9594527,35.1578396 50.5947419,34.801959 L45.9842829,30.8526145 Z" id="Shape" fill="#FFFFFF" mask="url(#mask-2)" transform="translate(38.500000, 33.875000) scale(1, -1) translate(-38.500000, -33.875000) "></path>
        </g>
    </g>
</svg>