<?xml version="1.0" encoding="UTF-8"?>
<svg width="74px" height="74px" viewBox="0 0 74 74" version="1.1" xmlns="http://www.w3.org/2000/svg" xmlns:xlink="http://www.w3.org/1999/xlink">
    <!-- Generator: Sketch 61 (89581) - https://sketch.com -->
    <title>暂无关注</title>
    <desc>Created with Sketch.</desc>
    <g id="暂无关注" stroke="none" stroke-width="1" fill="none" fill-rule="evenodd">
        <g id="编组-3" transform="translate(1.000000, 7.000000)">
            <path d="M51.5277778,19.4033101 C51.5277778,30.1191434 42.6046053,38.8059701 31.5965544,38.8059701 C20.5898392,38.8059701 11.6666667,30.1191434 11.6666667,19.4033101 C11.6666667,8.68747682 20.5898392,0 31.5965544,0 C42.6046053,0 51.5277778,8.68747682 51.5277778,19.4033101" id="Fill-3" fill="#FFE512"></path>
            <path d="M31.7841586,34.9253731 C45.7828308,34.9253731 57.7025289,43.6515034 62.2221057,55.8679551 L54.213659,55.8681869 L54.213,62.0893731 L1.3337784,62.0895522 C0.536966823,62.0895522 -0.0706786698,61.4101633 0.0066373449,60.650035 L0.0259505965,60.5227021 C2.96606984,45.9292463 16.0656242,34.9253731 31.7841586,34.9253731 Z" id="形状结合" fill="#FFE512"></path>
            <path d="M67.1020785,39.8292471 C70.9659738,43.7310313 70.9659738,49.9752903 67.1020785,53.4877259 L56.2832981,64.4150196 C55.5103926,65.1949935 54.3513504,65.1949935 53.578445,64.4150196 L42.7590326,53.4877259 C38.8951373,49.5846651 38.8951373,43.3416827 42.7590326,39.8292471 C46.2367911,36.3168115 51.2603606,35.9268246 55.1242559,38.6580097 C58.6013825,35.9268246 64.0110887,36.3168115 67.1020785,39.8292471" id="Fill-1" stroke="#FFFFFF" stroke-width="3" fill="#FFF1B8"></path>
        </g>
    </g>
</svg>