<?xml version="1.0" encoding="UTF-8"?>
<svg width="74px" height="74px" viewBox="0 0 74 74" version="1.1" xmlns="http://www.w3.org/2000/svg" xmlns:xlink="http://www.w3.org/1999/xlink">
    <!-- Generator: Sketch 61 (89581) - https://sketch.com -->
    <title>点赞</title>
    <desc>Created with Sketch.</desc>
    <g id="点赞" stroke="none" stroke-width="1" fill="none" fill-rule="evenodd">
        <g id="Group-31" transform="translate(0.000000, 4.000000)">
            <g id="like" transform="translate(5.375000, 5.375000)" fill="#FFE512" fill-rule="nonzero" stroke="#FFE512" stroke-width="3">
                <polygon id="Path" points="9.71108491 59.2393868 1.04363208 59.2393868 1.04363208 30.7606132 9.71108491 30.7606132"></polygon>
                <path d="M59.2393868,29.584316 L59.0923496,30.1879422 C58.9530513,30.7760908 58.7054098,31.3255454 58.3726415,31.8208284 L56.9100088,33.9799528 L57.629717,36.4873231 C57.7225825,36.8046138 57.7767541,37.1373821 57.7999705,37.4701504 C57.8154481,38.360112 57.5445902,39.1881633 56.9564416,40.0626474 L55.5015478,42.2295106 L56.2367335,44.7291421 C56.3063827,44.9535672 56.3450767,45.1857311 56.3605542,45.417895 C56.4147258,46.4394163 56.1283903,47.4377211 55.4628538,48.4669811 L54.2401238,50.4016804 L54.6502801,52.3518573 L53.9770047,52.3518573 L54.6502801,52.3518573 L54.7121904,52.6149764 C54.84375,53.2340802 54.882444,53.8686616 54.8205336,54.4955041 L54.8127948,54.5419369 L54.8127948,54.5883697 C54.7354068,55.5944133 54.4181162,56.4611586 53.8609228,57.1653892 C53.2959906,57.8773585 52.4988945,58.4268131 51.4928508,58.7518426 C50.2469045,59.1619988 48.9080926,59.231648 47.6466686,59.231648 L40.3799381,59.231648 C39.1030366,59.231648 37.8183962,59.2161704 36.5182783,59.2161704 C35.2104216,59.2161704 33.9025649,59.2084316 32.5869693,59.2084316 C28.9033019,59.2084316 24.5618367,59.231648 20.2513267,59.231648 L15.3062353,59.231648 L15.3681456,29.2283314 C17.72074,28.0829894 19.6167453,26.4346256 20.9013856,24.3993219 L20.9091244,24.3838443 L20.9168632,24.3683667 C22.3640183,22.0467276 23.7415242,19.6477005 25.0725973,17.3260613 L25.1267689,17.2409346 L25.1345077,17.2331958 L25.1422465,17.225457 C25.4904923,16.614092 25.8619546,15.9717718 26.2179393,15.352668 C26.419148,15.0044222 26.6203567,14.6639151 26.8138267,14.323408 C27.5103184,13.1393721 27.8276091,11.7928213 27.7347435,10.430793 C27.6728331,8.96816038 27.6418779,7.45909493 27.6186616,6.00420106 L27.6186616,5.87264151 C27.5954452,4.8124263 27.5799676,3.91472583 27.5567512,3.02476415 C27.5412736,2.55269752 27.6650943,2.3514888 27.7037883,2.28183962 C27.8585643,2.01872052 28.1835937,1.809773 28.4312353,1.68595224 C29.2592866,1.2525796 30.0795991,1.04363208 30.9386055,1.04363208 C31.7047465,1.04363208 32.5173202,1.22162441 33.3453715,1.56213149 C33.8096993,1.75560142 34.1579452,2.02645932 34.4365419,2.77712264 C34.6687058,3.38848762 34.9086085,4.01533019 35.1407724,4.63443396 C35.8372642,6.4530513 36.4099351,7.96985554 36.9516509,9.53309257 C37.5707547,11.3439711 37.6404039,13.4334463 37.1451209,15.9176002 C36.9361733,16.9855542 36.758181,18.0225531 36.5569723,19.2530218 L35.4890183,25.730395 L43.7076209,25.730395 C44.5201946,25.730395 45.3405071,25.730395 46.1685584,25.7226563 L48.6681899,25.7226563 C50.6647995,25.7226563 53.0251327,25.7226563 55.4241598,25.7458726 L55.4628538,25.7381338 L55.5015478,25.730395 L55.5325029,25.730395 C56.2135171,25.730395 56.8867925,25.846477 57.5368514,26.0554245 C58.1482164,26.2798496 58.7595814,26.6977447 59.115566,28.098467 C59.15426,28.2609817 59.2393868,28.4080189 59.2393868,28.5318396 L59.2393868,29.584316 L59.2393868,29.584316 Z" id="Path"></path>
            </g>
            <rect id="Rectangle-34" x="0" y="0" width="70" height="70"></rect>
        </g>
        <path d="M65.4615643,11.5732898 C67.5128119,13.6446518 67.5128119,16.9595764 65.4615643,18.8242426 L59.718138,24.625276 C59.3078213,25.039345 58.6925142,25.039345 58.2821975,24.625276 L52.5384357,18.8242426 C50.4871881,16.752203 50.4871881,13.4379561 52.5384357,11.5732898 C54.3846928,9.70862356 57.0515831,9.50158902 59.1028308,10.9515085 C60.9487524,9.50158902 63.8206333,9.70862356 65.4615643,11.5732898" id="Fill-1" fill="#FFF1B8"></path>
    </g>
</svg>