<?xml version="1.0" encoding="UTF-8"?>
<svg width="48px" height="48px" viewBox="0 0 48 48" version="1.1" xmlns="http://www.w3.org/2000/svg" xmlns:xlink="http://www.w3.org/1999/xlink">
    <!-- Generator: Sketch 64 (93537) - https://sketch.com -->
    <title>图片加载失败</title>
    <desc>Created with Sketch.</desc>
    <defs>
        <polygon id="path-1" points="0 4.33497537e-05 43.8693005 4.33497537e-05 43.8693005 40.2348571 0 40.2348571"></polygon>
    </defs>
    <g id="图片加载失败" stroke="none" stroke-width="1" fill="none" fill-rule="evenodd">
        <g id="图片" transform="translate(23.000000, 23.500000) scale(-1, 1) translate(-23.000000, -23.500000) translate(1.000000, 3.000000)">
            <mask id="mask-2" fill="white">
                <use xlink:href="#path-1"></use>
            </mask>
            <g id="Clip-2"></g>
            <path d="M5.69052217,3.43095961 L38.2338325,3.43095961 C39.4445911,3.43095961 40.438601,4.42171823 40.438601,5.63876256 L40.438601,27.0505064 C37.890069,24.8936394 35.2656749,22.8278069 32.5704039,20.8573438 L24.0987783,28.2300532 L10.0070739,16.166467 C6.19836453,20.2443783 4.02155665,22.8299744 3.47339901,23.9230384 L3.47339901,5.64179704 C3.47708374,4.42020099 4.46914286,3.4322601 5.69052217,3.43399409 L5.69052217,3.43095961 Z M38.2338325,4.33497537e-05 L5.69052217,4.33497537e-05 C2.5786601,4.33497537e-05 0.0550541872,2.52364926 0.0550541872,5.63551133 L0.0550541872,32.2956099 C-0.0184236453,32.5769498 -0.0184236453,32.8721616 0.0550541872,33.1532847 L0.0550541872,34.5994325 C0.0550541872,37.7112946 2.5786601,40.2349005 5.69052217,40.2349005 L38.2338325,40.2349005 C41.3456946,40.2349005 43.8693005,37.7112946 43.8693005,34.5994325 L43.8693005,5.64179704 C43.8693005,2.52668374 41.3456946,0.00329458128 38.2338325,0.00329458128 L38.2338325,4.33497537e-05 Z" id="Fill-1" fill="#DBDBDB" mask="url(#mask-2)"></path>
            <circle id="椭圆形" fill="#DBDBDB" mask="url(#mask-2)" cx="32" cy="13" r="4"></circle>
        </g>
        <g id="编组" transform="translate(27.000000, 26.000000)">
            <circle id="椭圆形" stroke="#F2F2F2" stroke-width="2.5" fill="#D8D8D8" cx="10" cy="10" r="10"></circle>
            <path d="M10,3.5 C10.7836808,3.5 11.4189797,4.13529885 11.4189797,4.9189797 C11.4189797,4.9452318 11.4182512,4.97147885 11.416795,4.99769053 L11.05547,11.5015396 C11.0243493,12.0617132 10.5610373,12.5 10,12.5 C9.43896268,12.5 8.97565073,12.0617132 8.94452998,11.5015396 L8.58320503,4.99769053 C8.53973424,4.21521627 9.13881491,3.54565552 9.92128917,3.50218473 C9.94750085,3.50072852 9.9737479,3.5 10,3.5 Z" id="矩形" fill="#F2F2F2"></path>
            <path d="M10,16.5 C10.8284271,16.5 11.5,15.8284271 11.5,15 C11.5,14.1715729 10.8284271,13.5 10,13.5 C9.17157288,13.5 8.5,14.1715729 8.5,15 C8.5,15.8284271 9.17157288,16.5 10,16.5 Z" id="椭圆形" fill="#F2F2F2"></path>
        </g>
    </g>
</svg>