<?xml version="1.0" encoding="UTF-8"?>
<svg width="8px" height="8px" viewBox="0 0 8 8" version="1.1" xmlns="http://www.w3.org/2000/svg" xmlns:xlink="http://www.w3.org/1999/xlink">
    <!-- Generator: Sketch 61 (89581) - https://sketch.com -->
    <title>关注</title>
    <desc>Created with Sketch.</desc>
    <g id="关注" stroke="none" stroke-width="1" fill="none" fill-rule="evenodd">
        <g fill="#303133" id="形状结合">
            <path d="M4,0 C4.36818983,-6.76353751e-17 4.66666667,0.298476833 4.66666667,0.666666667 L4.666,3.333 L7.33333333,3.33333333 C7.70152317,3.33333333 8,3.63181017 8,4 C8,4.36818983 7.70152317,4.66666667 7.33333333,4.66666667 L4.666,4.666 L4.66666667,7.33333333 C4.66666667,7.70152317 4.36818983,8 4,8 C3.63181017,8 3.33333333,7.70152317 3.33333333,7.33333333 L3.333,4.666 L0.666666667,4.66666667 C0.298476833,4.66666667 0,4.36818983 0,4 C0,3.63181017 0.298476833,3.33333333 0.666666667,3.33333333 L3.333,3.333 L3.33333333,0.666666667 C3.33333333,0.298476833 3.63181017,-4.33869274e-17 4,0 Z"></path>
        </g>
    </g>
</svg>