<?xml version="1.0" encoding="UTF-8"?>
<svg width="24px" height="24px" viewBox="0 0 24 24" version="1.1" xmlns="http://www.w3.org/2000/svg" xmlns:xlink="http://www.w3.org/1999/xlink">
    <!-- Generator: Sketch 61 (89581) - https://sketch.com -->
    <title>关注问题</title>
    <desc>Created with Sketch.</desc>
    <g id="关注问题" stroke="none" stroke-width="1" fill="none" fill-rule="evenodd">
        <path d="M14,9.5 C14.2761424,9.5 14.5,9.72385763 14.5,10 L14.5,11 L15.5,11 C15.7761424,11 16,11.2238576 16,11.5 C16,11.7761424 15.7761424,12 15.5,12 L14.5,12 L14.5,13 C14.5,13.2761424 14.2761424,13.5 14,13.5 C13.7238576,13.5 13.5,13.2761424 13.5,13 L13.499,12 L12.5,12 C12.2238576,12 12,11.7761424 12,11.5 C12,11.2238576 12.2238576,11 12.5,11 L13.5,11 L13.5,10 C13.5,9.72385763 13.7238576,9.5 14,9.5 Z" id="形状结合" fill="#303133"></path>
        <path d="M10.5,7 L17.5,7 C17.7761424,7 18,7.22385763 18,7.5 L18,17.0954915 C18,17.2335627 17.8880712,17.3454915 17.75,17.3454915 C17.7111887,17.3454915 17.6729105,17.3364552 17.6381966,17.3190983 L14.2236068,15.6118034 C14.0828431,15.5414215 13.9171569,15.5414215 13.7763932,15.6118034 L10.3618034,17.3190983 C10.2383088,17.3808456 10.0881405,17.3307895 10.0263932,17.2072949 C10.0090363,17.172581 10,17.1343028 10,17.0954915 L10,7.5 C10,7.22385763 10.2238576,7 10.5,7 Z" id="矩形" stroke="#303133"></path>
    </g>
</svg>