<?xml version="1.0" encoding="UTF-8"?>
<svg width="21px" height="21px" viewBox="0 0 21 21" version="1.1" xmlns="http://www.w3.org/2000/svg" xmlns:xlink="http://www.w3.org/1999/xlink">
    <!-- Generator: Sketch 61 (89581) - https://sketch.com -->
    <title>关注</title>
    <desc>Created with Sketch.</desc>
    <g id="关注" stroke="none" stroke-width="1" fill="none" fill-rule="evenodd">
        <g transform="translate(1.000000, 1.000000)">
            <circle id="椭圆形" fill="#FFE512" cx="9.5" cy="9.5" r="9.5"></circle>
            <path d="M9.5,5 C9.91421356,5 10.25,5.33578644 10.25,5.75 L10.25,8.75 L13.25,8.75 C13.6642136,8.75 14,9.08578644 14,9.5 C14,9.91421356 13.6642136,10.25 13.25,10.25 L10.25,10.25 L10.25,13.25 C10.25,13.6642136 9.91421356,14 9.5,14 C9.08578644,14 8.75,13.6642136 8.75,13.25 L8.75,10.249 L5.75,10.25 C5.33578644,10.25 5,9.91421356 5,9.5 C5,9.08578644 5.33578644,8.75 5.75,8.75 L8.75,8.749 L8.75,5.75 C8.75,5.33578644 9.08578644,5 9.5,5 Z" id="形状结合" fill="#303133"></path>
        </g>
    </g>
</svg>