<?xml version="1.0" encoding="UTF-8"?>
<svg width="13px" height="13px" viewBox="0 0 13 13" version="1.1" xmlns="http://www.w3.org/2000/svg" xmlns:xlink="http://www.w3.org/1999/xlink">
    <!-- Generator: Sketch 61 (89581) - https://sketch.com -->
    <title>heart未选中</title>
    <desc>Created with Sketch.</desc>
    <g id="heart未选中" stroke="none" stroke-width="1" fill="none" fill-rule="evenodd">
        <path d="M11.0551491,2.13745475 C10.0097774,0.993778709 8.34513067,0.892937158 7.1910271,1.9031642 L6.5,2.5082135 L5.8089729,1.9031642 C4.65486933,0.892937158 2.99022257,0.993778709 1.94485091,2.13745475 C0.880161386,3.30226524 0.815584573,5.14337835 1.81348952,6.33173867 C2.68168891,7.36672321 3.69339232,8.51281462 4.60409098,9.39623491 C5.06054419,9.83885083 5.47891363,10.2035712 5.83270626,10.4541654 C6.21464775,10.7240826 6.42824798,10.7923168 6.5,10.7923168 C6.57175202,10.7923168 6.78535225,10.7240826 7.16729374,10.4541654 C7.52108637,10.2035712 7.93945581,9.83885083 8.39590902,9.39623491 C9.30660768,8.51281462 10.3183111,7.36672321 11.1865105,6.33173867 C12.1838635,5.14337835 12.1198386,3.30226524 11.0551491,2.13745475 Z M11.8355902,1.28301885 C13.2965717,2.88199147 13.4179982,5.45858368 11.999516,7.14873639 C11.8918275,7.27708021 11.7816591,7.40748155 11.66948,7.53921154 C10.8680566,8.48030882 9.96400429,9.48921926 9.12833151,10.3001858 C8.6531124,10.7615208 8.18727624,11.1703216 7.7661471,11.4686194 C7.37371877,11.7463865 6.92168107,12 6.5,12 C6.07831893,12 5.62628123,11.7463865 5.2338529,11.4686194 C4.81272376,11.1703216 4.3468876,10.7615208 3.87166849,10.3001858 C2.9190225,9.3757043 1.8775144,8.19398624 1.000484,7.14873639 C-0.417998152,5.45858368 -0.296571664,2.88199147 1.16440975,1.28301885 C2.60772914,-0.29542316 4.90489751,-0.434306733 6.49889612,0.959963578 C8.09510249,-0.434306733 10.3922709,-0.29542316 11.8355902,1.28301885 Z" id="Fill-1161" fill="#909399"></path>
    </g>
</svg>