<?xml version="1.0" encoding="UTF-8"?>
<svg width="13px" height="13px" viewBox="0 0 13 13" version="1.1" xmlns="http://www.w3.org/2000/svg" xmlns:xlink="http://www.w3.org/1999/xlink">
    <!-- Generator: Sketch 61 (89581) - https://sketch.com -->
    <title>hear选中</title>
    <desc>Created with Sketch.</desc>
    <g id="hear选中" stroke="none" stroke-width="1" fill="none" fill-rule="evenodd">
        <path d="M11.8355902,1.28301885 C13.2965717,2.88199147 13.4179982,5.45858368 11.999516,7.14873639 C11.8918275,7.27708021 11.7816591,7.40748155 11.66948,7.53921154 C10.8680566,8.48030882 9.96400429,9.48921926 9.12833151,10.3001858 C8.6531124,10.7615208 8.18727624,11.1703216 7.7661471,11.4686194 C7.37371877,11.7463865 6.92168107,12 6.5,12 C6.07831893,12 5.62628123,11.7463865 5.2338529,11.4686194 C4.81272376,11.1703216 4.3468876,10.7615208 3.87166849,10.3001858 C2.9190225,9.3757043 1.8775144,8.19398624 1.000484,7.14873639 C-0.417998152,5.45858368 -0.296571664,2.88199147 1.16440975,1.28301885 C2.60772914,-0.29542316 4.90489751,-0.434306733 6.49889612,0.959963578 C8.09510249,-0.434306733 10.3922709,-0.29542316 11.8355902,1.28301885 Z" id="Fill-1161" fill="#FF3B3B"></path>
    </g>
</svg>