<?xml version="1.0" encoding="UTF-8"?>
<svg width="14px" height="14px" viewBox="0 0 14 14" version="1.1" xmlns="http://www.w3.org/2000/svg" xmlns:xlink="http://www.w3.org/1999/xlink">
    <!-- Generator: Sketch 61 (89581) - https://sketch.com -->
    <title>hear选中</title>
    <desc>Created with Sketch.</desc>
    <g id="hear选中" stroke="none" stroke-width="1" fill="none" fill-rule="evenodd">
        <path d="M11.9251602,3.17610061 C13.2737585,4.64182551 13.3858444,7.00370171 12.0764763,8.55300836 C11.9770715,8.67065686 11.8753776,8.79019142 11.7718277,8.91094391 C11.0320522,9.77361642 10.1975424,10.698451 9.42615217,11.441837 C8.98748837,11.8647274 8.55748576,12.2394615 8.16875117,12.5129011 C7.80650963,12.767521 7.38924407,13 7,13 C6.61075593,13 6.19349037,12.767521 5.83124883,12.5129011 C5.44251424,12.2394615 5.01251163,11.8647274 4.57384783,11.441837 C3.69448231,10.5943956 2.73309021,9.51115405 1.92352369,8.55300836 C0.614155552,7.00370171 0.72624154,4.64182551 2.07483977,3.17610061 C3.40713459,1.72919544 5.5275977,1.60188549 6.99898104,2.87996661 C8.4724023,1.60188549 10.5928654,1.72919544 11.9251602,3.17610061 Z" id="Fill-1161" fill="#FF2525"></path>
    </g>
</svg>