<?xml version="1.0" encoding="UTF-8"?>
<svg width="14px" height="14px" viewBox="0 0 14 14" version="1.1" xmlns="http://www.w3.org/2000/svg" xmlns:xlink="http://www.w3.org/1999/xlink">
    <!-- Generator: Sketch 61 (89581) - https://sketch.com -->
    <title>heart未选中</title>
    <desc>Created with Sketch.</desc>
    <g id="heart未选中" stroke="none" stroke-width="1" fill="none" fill-rule="evenodd">
        <path d="M11.204753,3.95933352 C10.2397945,2.91096382 8.70319754,2.81852573 7.63787117,3.74456718 L7,4.29919571 L6.36212883,3.74456718 C5.29680246,2.81852573 3.76020545,2.91096382 2.79524699,3.95933352 C1.81245666,5.02707647 1.7528473,6.71476349 2.67399033,7.80409378 C3.47540515,8.75282961 4.40928522,9.8034134 5.24993014,10.6132153 C5.67127156,11.0189466 6.05745873,11.3532736 6.38403655,11.582985 C6.73659793,11.8304091 6.93376737,11.892957 7,11.892957 C7.06623263,11.892957 7.26340207,11.8304091 7.61596345,11.582985 C7.94254127,11.3532736 8.32872844,11.0189466 8.75006986,10.6132153 C9.59071478,9.8034134 10.5245949,8.75282961 11.3260097,7.80409378 C12.2466432,6.71476349 12.1875433,5.02707647 11.204753,3.95933352 Z M11.9251602,3.17610061 C13.2737585,4.64182551 13.3858444,7.00370171 12.0764763,8.55300836 C11.9770715,8.67065686 11.8753776,8.79019142 11.7718277,8.91094391 C11.0320522,9.77361642 10.1975424,10.698451 9.42615217,11.441837 C8.98748837,11.8647274 8.55748576,12.2394615 8.16875117,12.5129011 C7.80650963,12.767521 7.38924407,13 7,13 C6.61075593,13 6.19349037,12.767521 5.83124883,12.5129011 C5.44251424,12.2394615 5.01251163,11.8647274 4.57384783,11.441837 C3.69448231,10.5943956 2.73309021,9.51115405 1.92352369,8.55300836 C0.614155552,7.00370171 0.72624154,4.64182551 2.07483977,3.17610061 C3.40713459,1.72919544 5.5275977,1.60188549 6.99898104,2.87996661 C8.4724023,1.60188549 10.5928654,1.72919544 11.9251602,3.17610061 Z" id="Fill-1161" fill="#909399"></path>
    </g>
</svg>