<?xml version="1.0" encoding="UTF-8"?>
<svg width="4px" height="6px" viewBox="0 0 4 6" version="1.1" xmlns="http://www.w3.org/2000/svg" xmlns:xlink="http://www.w3.org/1999/xlink">
    <!-- Generator: Sketch 61 (89581) - https://sketch.com -->
    <title>icon/下一步</title>
    <desc>Created with Sketch.</desc>
    <g id="热门景点更新" stroke="none" stroke-width="1" fill="none" fill-rule="evenodd">
        <g id="景点详情页2" transform="translate(-235.000000, -336.000000)">
            <g id="icon/下一步" transform="translate(233.000000, 335.000000)">
                <g id="Group-64">
                    <rect id="Rectangle-36-Copy-5" x="0" y="0" width="8" height="8"></rect>
                    <g id="right" transform="translate(2.000000, 1.000000)" fill="#74440D" fill-rule="nonzero">
                        <path d="M0.3415771,5.9947021 C0.4165771,5.9947021 0.49235835,5.9697021 0.5556396,5.9197021 L3.8665771,3.25642085 C3.94704585,3.1915771 3.99392085,3.09392085 3.99392085,2.9900146 C3.99392085,2.8868896 3.94704585,2.7884521 3.8665771,2.7243896 L0.5697021,0.0751708501 C0.4228271,-0.0427978999 0.20798335,-0.0193603999 0.0900146001,0.1275146 C-0.0279541499,0.2743896 -0.00451664993,0.48923335 0.14235835,0.6072021 L3.10798335,2.99079585 L0.1275146,5.38767085 C-0.0193603999,5.5056396 -0.0427978999,5.72048335 0.0751708501,5.86735835 C0.1431396,5.9509521 0.2415771,5.9947021 0.3415771,5.9947021 Z" id="Shape"></path>
                    </g>
                </g>
            </g>
        </g>
    </g>
</svg>