<?xml version="1.0" encoding="UTF-8"?>
<svg width="18px" height="19px" viewBox="0 0 18 19" version="1.1" xmlns="http://www.w3.org/2000/svg" xmlns:xlink="http://www.w3.org/1999/xlink">
    <!-- Generator: Sketch 61 (89581) - https://sketch.com -->
    <title>icon-fhsy</title>
    <desc>Created with Sketch.</desc>
    <g id="热门景点更新" stroke="none" stroke-width="1" fill="none" fill-rule="evenodd" stroke-linecap="round" stroke-linejoin="round">
        <g id="省景点排名" transform="translate(-49.000000, -57.000000)" stroke="#FFFFFF" stroke-width="2">
            <g id="标题" transform="translate(0.000000, 44.000000)">
                <g id="icon-fhsy" transform="translate(50.000000, 14.000000)">
                    <g id="Stroke-3">
                        <path d="M16,7.45721146 L15.2305,7.45721146 L15.2305,14.2844654 C15.2305,15.7514828 14.0615,16.9411765 12.6195,16.9411765 L10.41,16.9411765 L10.41,12.8530675 C10.41,11.4985061 9.331,10.4004057 8,10.4004057 C6.669,10.4004057 5.59,11.4985061 5.59,12.8530675 L5.59,16.9411765 L3.3805,16.9411765 C1.9385,16.9411765 0.7695,15.7514828 0.7695,14.2844654 L0.7695,7.45721146 L0,7.45721146 L6.852,0.483917305 C7.486,-0.161305768 8.514,-0.161305768 9.148,0.483917305 L16,7.45721146 Z"></path>
                    </g>
                </g>
            </g>
        </g>
    </g>
</svg>