<?xml version="1.0" encoding="UTF-8"?>
<svg width="16px" height="16px" viewBox="0 0 16 16" version="1.1" xmlns="http://www.w3.org/2000/svg" xmlns:xlink="http://www.w3.org/1999/xlink">
    <!-- Generator: Sketch 61 (89581) - https://sketch.com -->
    <title>icon/编辑</title>
    <desc>Created with Sketch.</desc>
    <g id="icon/编辑" stroke="none" stroke-width="1" fill="none" fill-rule="evenodd">
        <g id="编辑" fill-rule="nonzero">
            <rect id="矩形" fill="#000000" opacity="0" x="0" y="0" width="16" height="16"></rect>
            <path d="M1.71428572,14.072 L14.2857143,14.072 C14.68,14.072 15,14.3588571 15,14.7142857 C15,15.0685714 14.68,15.3577143 14.2857143,15.3577143 L1.71428572,15.3577143 C1.32,15.3577143 1,15.0697143 1,14.7142857 C1,14.36 1.32,14.0708571 1.71428572,14.0708571 L1.71428572,14.072 Z M8.49485714,3.984 L3.21485714,9.264 L3.21485714,11.4857143 L5.43657142,11.4857143 L10.7165714,6.20571428 L8.49485714,3.984 Z M9.40342858,3.07428572 L11.6262857,5.29714286 L12.5348571,4.38742858 L10.3131429,2.16571428 L9.40342858,3.07428572 L9.40342858,3.07428572 Z M2.13828572,8.52228572 L9.80571428,0.852571422 C9.93972037,0.718226134 10.1216753,0.642723158 10.3114286,0.642723158 C10.5011818,0.642723158 10.6831368,0.718226134 10.8171429,0.852571422 L13.8468571,3.88228572 C13.9808524,4.01624568 14.0561332,4.19795559 14.0561332,4.38742857 C14.0561332,4.57690155 13.9808524,4.75861146 13.8468571,4.89257142 L6.17828572,12.5622857 C6.04402404,12.6965126 5.86184979,12.7717674 5.672,12.7714297 L2.64228572,12.7714297 C2.248243,12.7707981 1.92914286,12.4511861 1.92914286,12.0571429 L1.92914286,9.02857142 C1.92914286,8.83885714 2.00342858,8.65714284 2.13828572,8.52342858 L2.13828572,8.52228572 Z" id="形状" fill="#909399"></path>
        </g>
    </g>
</svg>