<?xml version="1.0" encoding="UTF-8"?>
<svg width="20px" height="20px" viewBox="0 0 20 20" version="1.1" xmlns="http://www.w3.org/2000/svg" xmlns:xlink="http://www.w3.org/1999/xlink">
    <!-- Generator: Sketch 61 (89581) - https://sketch.com -->
    <title>切片</title>
    <desc>Created with Sketch.</desc>
    <g id="热门景点更新" stroke="none" stroke-width="1" fill="none" fill-rule="evenodd">
        <g id="省景点排名" transform="translate(-56.000000, -56.000000)">
            <g id="标题" transform="translate(0.000000, 44.000000)">
                <g id="icon-fhsy备份" transform="translate(56.000000, 12.000000)">
                    <g id="编组">
                        <rect id="矩形" x="0" y="0" width="20" height="20"></rect>
                        <path d="M11.708927,19.5 L11.708927,12.679475 C11.708927,12.338425 11.7577725,12.04611 11.4160442,12.04611 L8.53511023,12.04611 C8.24213227,12.04611 8.2909778,12.338425 8.2909778,12.679475 L8.2909778,19.5 L5.11716105,19.451265 C3.74996233,19.451265 2.91977878,18.720525 2.91977878,17.551265 L2.91977878,11.2179 L2.38276362,11.2179 C1.16200627,11.2179 0.722586945,10.6821 0.57605036,10.389785 C0.429608991,10.097375 0.331917934,9.464105 1.11316074,8.635895 L7.90030879,1.42568 C8.43741917,0.84105 9.16981645,0.5 10,0.5 C10.7812428,0.5 11.5624856,0.84105 12.099596,1.42568 L18.8378985,8.58716 C19.6191413,9.41537 19.5215455,10.048735 19.3750089,10.34105 C19.2773178,10.6821 18.8378985,11.2179 17.5683909,11.2179 L17.0800308,11.2179 L17.0800308,17.551265 C17.0800308,18.720525 16.2011921,19.451265 14.882839,19.451265 L11.708927,19.5 Z" id="Fill-1" fill="#FFFFFF"></path>
                    </g>
                </g>
            </g>
        </g>
    </g>
</svg>