<?xml version="1.0" encoding="UTF-8"?>
<svg width="17px" height="32px" viewBox="0 0 17 32" version="1.1" xmlns="http://www.w3.org/2000/svg" xmlns:xlink="http://www.w3.org/1999/xlink">
    <!-- Generator: Sketch 61 (89581) - https://sketch.com -->
    <title>编组</title>
    <desc>Created with Sketch.</desc>
    <defs>
        <polygon id="path-1" points="0 -0.000108333333 12.2286667 -0.000108333333 12.2286667 32.2723917 0 32.2723917"></polygon>
    </defs>
    <g id="热门景点更新" stroke="none" stroke-width="1" fill="none" fill-rule="evenodd">
        <g id="省景点排名" transform="translate(-65.000000, -113.000000)">
            <g id="编组" transform="translate(72.736524, 129.246325) rotate(-12.000000) translate(-72.736524, -129.246325) translate(66.236524, 112.996325)">
                <mask id="mask-2" fill="white">
                    <use xlink:href="#path-1"></use>
                </mask>
                <g id="Clip-2"></g>
                <path d="M4.82050833,16.0438417 C4.790175,15.8390917 4.76525833,15.6278417 4.741425,15.4155083 C5.436925,15.7242583 5.99050833,15.885675 6.44875833,15.950675 C5.80200833,16.8920917 5.48675833,18.0068417 5.56259167,19.2645917 C5.56800833,19.3805083 5.573425,19.486675 5.579925,19.5917583 C5.27009167,18.4705083 5.01334167,17.3048417 4.82050833,16.0438417 M4.942925,5.56800833 C4.76850833,6.35559167 4.617925,7.14859167 4.504175,7.945925 C4.250675,6.59825833 3.45875833,5.42609167 2.19125833,4.49225833 C1.83484167,5.27009167 1.569425,6.45850833 1.826175,7.29484167 C2.08184167,8.12684167 2.45450833,8.969675 4.31784167,10.0725083 C4.25500833,11.676925 4.29184167,13.243425 4.44459167,14.8153417 C4.396925,14.6755917 4.34275833,14.5358417 4.286425,14.3820083 C3.64184167,12.6075083 2.323425,11.4180083 0.513175,10.864425 C0.513175,11.7310917 0.745008333,12.9530917 1.27909167,13.652925 C1.819675,14.3625083 2.45775833,15.0395917 4.50850833,15.4122583 C4.68834167,16.971175 4.98734167,18.5485083 5.42175833,20.1875917 C5.18884167,20.0770917 4.955925,20.0272583 4.686175,19.9568417 C3.02325833,19.5105083 1.41559167,19.954675 -0.000325,21.1680083 C0.636675,21.6500917 1.66150833,22.135425 2.47400833,22.076925 C3.278925,22.018425 4.11525833,21.8635083 5.48459167,20.4335083 C5.65034167,21.046675 5.83125833,21.6685083 6.038175,22.3033417 C6.36859167,23.3162583 6.79109167,24.3605917 7.27100833,25.3962583 C7.06409167,25.2207583 6.84200833,25.1178417 6.58525833,24.982425 C5.098925,24.1915917 3.464175,24.2695917 1.842425,25.1265083 C2.34075833,25.7288417 3.21175833,26.4178417 3.99934167,26.5370083 C4.796675,26.6583417 5.64384167,26.6930083 7.34034167,25.5468417 C8.03475833,27.0223417 8.85375833,28.472925 9.72800833,29.795675 C9.583925,29.6797583 9.427925,29.5790083 9.258925,29.4598417 C7.74659167,28.3992583 5.95909167,28.2605917 4.075175,28.973425 C4.53559167,29.6960083 5.38925833,30.5648417 6.23209167,30.8010083 C7.07925833,31.040425 7.99575833,31.193175 9.983675,30.1867583 C10.2155083,30.5258417 10.451675,30.8562583 10.688925,31.1747583 C10.9640917,31.5430917 12.239175,32.827925 12.1860917,31.999175 C12.1470917,31.323175 10.9695083,30.3362583 10.5675917,29.841175 C10.5578417,29.8292583 10.5480917,29.8162583 10.539425,29.8043417 C12.037675,28.4967583 12.180675,27.5705083 12.226175,26.6637583 C12.2695083,25.7710917 11.767925,24.537175 11.2750083,23.7398417 C10.0920083,25.0918417 9.67600833,26.8013417 10.149425,28.7350917 C10.2317583,29.0665917 10.285925,29.347175 10.4148417,29.642925 C9.834175,28.901925 9.32825833,28.1197583 8.86784167,27.296425 C8.48325833,26.6052583 8.13334167,25.9357583 7.80075833,25.271675 C10.253425,24.384425 11.2760917,22.3520917 11.160175,20.3923417 C10.3368417,20.588425 9.22425833,21.0867583 8.67934167,21.7540917 C8.13659167,22.4170917 7.64259167,23.1667583 7.73250833,25.1330083 C6.92434167,23.5015083 6.27000833,21.9122583 5.761925,20.234175 C7.30350833,19.1952583 7.58625833,18.384925 7.77475833,17.5810917 C7.890675,17.0903417 7.84084167,16.4663417 7.71300833,15.8813417 C7.88634167,15.8347583 8.04775833,15.7762583 8.205925,15.7145083 C8.96425833,15.417675 9.71500833,14.510925 10.1115083,13.7775083 C8.368425,13.2455917 6.74234167,13.522925 5.401175,14.666925 C5.14334167,14.8857583 4.91909167,15.0547583 4.73059167,15.3277583 C4.55400833,13.646425 4.60275833,11.7765917 4.630925,10.1245083 C6.53759167,10.282675 7.26559167,9.76050833 7.91559167,9.184175 C8.553675,8.61975833 9.05959167,7.455175 9.27625833,6.587425 C7.56459167,6.68275833 6.12375833,7.539675 5.12059167,9.15059167 C4.92559167,9.46584167 4.75009167,9.71500833 4.63200833,10.0627583 C4.63309167,10.009675 4.63309167,9.95334167 4.634175,9.90025833 C4.65475833,8.48650833 4.955925,6.97959167 5.102175,5.631925 C5.35025833,5.43259167 5.51600833,5.20400833 5.72725833,4.94075833 C6.88209167,3.49884167 7.20709167,1.793675 6.74884167,-0.000325 C6.02409167,0.439508333 5.12059167,1.254175 4.806425,2.05584167 C4.49225833,2.85750833 4.25284167,3.71984167 4.942925,5.56800833" id="Fill-1" stroke="#FFFFFF" stroke-width="0.5" fill="#FFFFFF" mask="url(#mask-2)"></path>
            </g>
        </g>
    </g>
</svg>