<?xml version="1.0" encoding="UTF-8"?>
<svg width="16px" height="16px" viewBox="0 0 16 16" version="1.1" xmlns="http://www.w3.org/2000/svg" xmlns:xlink="http://www.w3.org/1999/xlink">
    <!-- Generator: Sketch 61 (89581) - https://sketch.com -->
    <title>liulan</title>
    <desc>Created with Sketch.</desc>
    <g id="liulan" stroke="none" stroke-width="1" fill="none" fill-rule="evenodd">
        <g id="眼睛1" fill-rule="nonzero">
            <rect id="矩形" fill="#000000" opacity="0" x="0" y="0" width="15.9843902" height="15.9843902"></rect>
            <path d="M8,4 C10.7506507,4 13.0813038,6.62466667 13.8672992,7.62166667 C14.0442336,7.84285858 14.0442336,8.15714142 13.8672992,8.37833333 C13.0813038,9.37533334 10.7506507,12 8,12 C5.24934931,12 2.9186962,9.37533334 2.13270077,8.37833333 C1.95576641,8.15714142 1.95576641,7.84285858 2.13270077,7.62166667 C2.9186962,6.62466666 5.24934933,4 8,4 Z M6.337343,7.29366666 C6.05867795,7.98366666 6.21267707,8.77733333 6.72734074,9.30533333 C7.23522792,9.83191131 8.01513144,9.99096802 8.68866267,9.70533334 C9.36132542,9.42 9.79998953,8.74666667 9.79998953,8 C9.79998953,6.98033333 8.99432755,6.154 8.00033333,6.154 C7.27200422,6.154 6.61567471,6.60366667 6.337343,7.29366666 Z" id="形状" fill="#C9CAD1"></path>
        </g>
    </g>
</svg>