<?xml version="1.0" encoding="UTF-8"?>
<svg width="44px" height="41px" viewBox="0 0 44 41" version="1.1" xmlns="http://www.w3.org/2000/svg" xmlns:xlink="http://www.w3.org/1999/xlink">
    <!-- Generator: Sketch 61 (89581) - https://sketch.com -->
    <title>切片</title>
    <desc>Created with Sketch.</desc>
    <defs>
        <polygon id="path-1" points="0 4.03940887e-05 43.8693005 4.03940887e-05 43.8693005 37.4915714 0 37.4915714"></polygon>
    </defs>
    <g id="热门景点" stroke="none" stroke-width="1" fill="none" fill-rule="evenodd">
        <g id="图片未加载出样式" transform="translate(-166.000000, -177.000000)">
            <g id="图片" transform="translate(166.000000, 177.000000)">
                <g transform="translate(0.000000, 1.863636)">
                    <mask id="mask-2" fill="white">
                        <use xlink:href="#path-1"></use>
                    </mask>
                    <g id="Clip-2"></g>
                    <path d="M5.69052217,3.19703054 L38.2338325,3.19703054 C39.4445911,3.19703054 40.438601,4.12023744 40.438601,5.25430148 L40.438601,25.2061537 C37.890069,23.1963458 35.2656749,21.2713655 32.5704039,19.4352522 L24.0987783,26.3052768 L10.0070739,15.0642079 C6.19836453,18.8640798 4.02155665,21.2733852 3.47339901,22.2919222 L3.47339901,5.25712906 C3.47708374,4.11882365 4.46914286,3.19824236 5.69052217,3.19985813 L5.69052217,3.19703054 Z M38.2338325,4.03940887e-05 L5.69052217,4.03940887e-05 C2.5786601,4.03940887e-05 0.0550541872,2.35158227 0.0550541872,5.25127192 L0.0550541872,30.0936365 C-0.0184236453,30.3557941 -0.0184236453,30.6308778 0.0550541872,30.8928335 L0.0550541872,32.2403803 C0.0550541872,35.14007 2.5786601,37.4916118 5.69052217,37.4916118 L38.2338325,37.4916118 C41.3456946,37.4916118 43.8693005,35.14007 43.8693005,32.2403803 L43.8693005,5.25712906 C43.8693005,2.35440985 41.3456946,0.00306995074 38.2338325,0.00306995074 L38.2338325,4.03940887e-05 Z" id="Fill-1" fill="#DBDBDB" mask="url(#mask-2)"></path>
                    <ellipse id="椭圆形" fill="#DBDBDB" mask="url(#mask-2)" cx="31.5" cy="12.5795455" rx="3.5" ry="3.26136364"></ellipse>
                </g>
            </g>
        </g>
    </g>
</svg>