<?xml version="1.0" encoding="UTF-8"?>
<svg width="48px" height="48px" viewBox="0 0 48 48" version="1.1" xmlns="http://www.w3.org/2000/svg" xmlns:xlink="http://www.w3.org/1999/xlink">
    <!-- Generator: Sketch 64 (93537) - https://sketch.com -->
    <title>图片</title>
    <desc>Created with Sketch.</desc>
    <defs>
        <polygon id="path-1" points="0 4.33497537e-05 43.8693005 4.33497537e-05 43.8693005 40.2348571 0 40.2348571"></polygon>
    </defs>
    <g id="图片" stroke="none" stroke-width="1" fill="none" fill-rule="evenodd">
        <g transform="translate(24.000000, 23.500000) scale(-1, 1) translate(-24.000000, -23.500000) translate(2.000000, 3.000000)">
            <mask id="mask-2" fill="white">
                <use xlink:href="#path-1"></use>
            </mask>
            <g id="Clip-2"></g>
            <path d="M5.69052217,3.43095961 L38.2338325,3.43095961 C39.4445911,3.43095961 40.438601,4.42171823 40.438601,5.63876256 L40.438601,27.0505064 C37.890069,24.8936394 35.2656749,22.8278069 32.5704039,20.8573438 L24.0987783,28.2300532 L10.0070739,16.166467 C6.19836453,20.2443783 4.02155665,22.8299744 3.47339901,23.9230384 L3.47339901,5.64179704 C3.47708374,4.42020099 4.46914286,3.4322601 5.69052217,3.43399409 L5.69052217,3.43095961 Z M38.2338325,4.33497537e-05 L5.69052217,4.33497537e-05 C2.5786601,4.33497537e-05 0.0550541872,2.52364926 0.0550541872,5.63551133 L0.0550541872,32.2956099 C-0.0184236453,32.5769498 -0.0184236453,32.8721616 0.0550541872,33.1532847 L0.0550541872,34.5994325 C0.0550541872,37.7112946 2.5786601,40.2349005 5.69052217,40.2349005 L38.2338325,40.2349005 C41.3456946,40.2349005 43.8693005,37.7112946 43.8693005,34.5994325 L43.8693005,5.64179704 C43.8693005,2.52668374 41.3456946,0.00329458128 38.2338325,0.00329458128 L38.2338325,4.33497537e-05 Z" id="Fill-1" fill="#DBDBDB" mask="url(#mask-2)"></path>
            <circle id="椭圆形" fill="#DBDBDB" mask="url(#mask-2)" cx="32" cy="13" r="4"></circle>
        </g>
    </g>
</svg>