<?xml version="1.0" encoding="UTF-8"?>
<svg width="375px" height="220px" viewBox="0 0 375 220" version="1.1" xmlns="http://www.w3.org/2000/svg" xmlns:xlink="http://www.w3.org/1999/xlink">
    <!-- Generator: Sketch 64 (93537) - https://sketch.com -->
    <title>背景+icon</title>
    <desc>Created with Sketch.</desc>
    <defs>
        <polygon id="path-1" points="0 3.97372742e-05 40.2135255 3.97372742e-05 40.2135255 36.8819524 0 36.8819524"></polygon>
    </defs>
    <g id="背景+icon" stroke="none" stroke-width="1" fill="none" fill-rule="evenodd">
        <g>
            <rect id="矩形备份-3" fill="#F2F2F2" x="0" y="0" width="375" height="220"></rect>
            <g id="图片" transform="translate(166.000000, 88.000000)">
                <g transform="translate(22.000000, 21.541667) scale(-1, 1) translate(-22.000000, -21.541667) translate(1.833333, 2.750000)">
                    <mask id="mask-2" fill="white">
                        <use xlink:href="#path-1"></use>
                    </mask>
                    <g id="Clip-2"></g>
                    <path d="M5.21631199,3.14504631 L35.0476798,3.14504631 C36.1575419,3.14504631 37.0687176,4.05324171 37.0687176,5.16886568 L37.0687176,24.7962975 C34.7325632,22.8191695 32.3268686,20.9254897 29.8562036,19.1192319 L22.0905468,25.8775488 L9.17315107,14.8192614 C5.68183415,18.5573468 3.68642693,20.9274765 3.1839491,21.9294519 L3.1839491,5.17164729 C3.18732677,4.0518509 4.09671429,3.14623842 5.21631199,3.14782791 L5.21631199,3.14504631 Z M35.0476798,3.97372742e-05 L5.21631199,3.97372742e-05 C2.36377176,3.97372742e-05 0.0504663383,2.31334516 0.0504663383,5.16588539 L0.0504663383,29.604309 C-0.0168883415,29.8622039 -0.0168883415,30.1328148 0.0504663383,30.390511 L0.0504663383,31.7161465 C0.0504663383,34.5686867 2.36377176,36.8819921 5.21631199,36.8819921 L35.0476798,36.8819921 C37.90022,36.8819921 40.2135255,34.5686867 40.2135255,31.7161465 L40.2135255,5.17164729 C40.2135255,2.31612677 37.90022,0.00302003284 35.0476798,0.00302003284 L35.0476798,3.97372742e-05 Z" id="Fill-1" fill="#DBDBDB" mask="url(#mask-2)"></path>
                    <circle id="椭圆形" fill="#DBDBDB" mask="url(#mask-2)" cx="29.3333333" cy="11.9166667" r="3.66666667"></circle>
                </g>
            </g>
        </g>
    </g>
</svg>