<?xml version="1.0" encoding="UTF-8"?>
<svg width="375px" height="220px" viewBox="0 0 375 220" version="1.1" xmlns="http://www.w3.org/2000/svg" xmlns:xlink="http://www.w3.org/1999/xlink">
    <title>切片</title>
    <g id="热门景点" stroke="none" stroke-width="1" fill="none" fill-rule="evenodd">
        <g id="图片加载logo包含" transform="translate(0.000000, -88.000000)">
            <g id="编组-4" transform="translate(0.000000, 88.000000)">
                <rect id="矩形" fill="#F2F2F2" x="0" y="0" width="375" height="220"></rect>
                <g id="logo" transform="translate(162.000000, 84.000000)">
                    <rect id="矩形" x="0" y="0" width="52" height="52"></rect>
                    <path d="M46.6955546,32.466708 C46.7984855,32.9670526 46.8526596,33.4845373 46.8526596,34.0146127 C46.8526596,37.5886539 44.4029046,40.6029947 41.0549421,41.5435875 C39.9411216,44.5621605 36.981046,46.7205512 33.5052326,46.7205512 C32.9060665,46.7205512 32.3220691,46.6560111 31.7608249,46.5343371 C30.3057073,47.9827866 28.2795941,48.88 26.0378677,48.88 C23.788557,48.88 21.7559429,47.9764384 20.3009336,46.5205827 C19.7200784,46.651779 19.1154948,46.7205512 18.4947674,46.7205512 C14.8444049,46.7205512 11.764171,44.3409254 10.7921784,41.0844005 C8.09430578,39.8232231 6.23071502,37.1315829 6.23071502,34.0146127 C6.23071502,33.6993184 6.25021772,33.3871982 6.28824797,33.0814261 C3.78215179,31.7567667 2.08,29.1666978 2.08,26.1883302 C2.08,23.4776453 3.48950303,21.088603 5.63154892,19.6824749 C5.16792655,18.6910964 4.90886576,17.5886243 4.90886576,16.4279602 C4.90886576,12.4444597 7.95356134,9.15608786 11.8940807,8.6598696 C13.3416139,6.61680462 15.757781,5.27944879 18.4947674,5.27944879 C19.1154948,5.27944879 19.7200784,5.34822104 20.3009336,5.47941734 C21.7559429,4.02356162 23.788557,3.12 26.0378677,3.12 C28.2795941,3.12 30.3057073,4.01721341 31.7608249,5.46566289 C32.3220691,5.3439889 32.9060665,5.27944879 33.5052326,5.27944879 C36.242219,5.27944879 38.6582777,6.61680462 40.1059193,8.6598696 C44.0464387,9.15608786 47.0910259,12.4444597 47.0910259,16.4279602 C47.0910259,17.5886243 46.8320735,18.6910964 46.3683427,19.6824749 C48.5103886,21.088603 49.92,23.4776453 49.92,26.1883302 C49.92,28.7582964 48.6524332,31.0383612 46.6955546,32.466708 Z" id="Stroke-1" stroke="#C9CAD1" stroke-width="2.08" fill="#FFFFFF" stroke-linecap="round" stroke-linejoin="round"></path>
                    <path d="M41.6670638,25.4380488 C41.2724264,25.8316871 40.7569001,26.0296052 40.2403748,26.0296052 C39.7238494,26.0296052 39.207324,25.8316871 38.8136857,25.4380488 L33.9831244,20.6074875 L33.9831244,27.0166982 C33.9831244,29.2766216 33.0669662,31.3226416 31.5853277,32.803381 C30.1046882,34.2850195 28.0585683,35.2011777 25.7976458,35.2011777 C21.277799,35.2011777 17.6131664,31.5364451 17.6131664,27.0166982 L17.6131664,20.6294673 L12.8045849,25.4380488 C12.4109466,25.8316871 11.8944212,26.0296052 11.3778958,26.0296052 C10.8623695,26.0296052 10.344845,25.8316871 9.95120675,25.4380488 C9.16293108,24.6497731 9.16293108,23.3719473 9.95120675,22.5846707 L17.6101691,14.9257083 C17.6111682,14.9267074 17.6121673,14.9267074 17.6131664,14.9278064 C18.1226982,15.1794751 18.6971703,15.3203457 19.303613,15.3203457 C20.6733544,15.3203457 21.87525,14.6010067 22.5516285,13.52 C22.825377,13.9586969 23.1860456,14.3382481 23.6096563,14.6330772 C24.2290871,15.0665789 24.9843931,15.3203457 25.7976458,15.3203457 C26.6178921,15.3203457 27.3771944,15.0625826 27.9996225,14.6240855 C28.4172388,14.3302555 28.7729119,13.9555997 29.0456613,13.521099 C29.7220398,14.6020058 30.9229363,15.3203457 32.2916786,15.3203457 C32.8991205,15.3203457 33.4735926,15.1794751 33.9831244,14.9278064 L34.0011079,14.9187148 L41.6670638,22.5846707 C42.4553395,23.3719473 42.4553395,24.6497731 41.6670638,25.4380488 Z" id="Stroke-1" stroke="#C9CAD1" stroke-width="2.08" stroke-linecap="round" stroke-linejoin="round"></path>
                    <path d="M28.2534093,30.7545536 C27.5910179,31.3060468 26.738801,31.636743 25.8096548,31.636743 C24.8795095,31.636743 24.0272926,31.3060468 23.3649012,30.7545536" id="Stroke-3" stroke="#C9CAD1" stroke-width="2.08" stroke-linecap="round" stroke-linejoin="round"></path>
                    <line x1="25.8111712" y1="31.6370427" x2="25.8111712" y2="28.5398886" id="Stroke-5" stroke="#C9CAD1" stroke-width="2.08" stroke-linecap="round" stroke-linejoin="round"></line>
                    <polyline id="Stroke-7" stroke="#C9CAD1" stroke-width="2.08" stroke-linecap="round" stroke-linejoin="round" points="27.1750102 27.1741535 25.8092652 28.5398986 24.4435201 27.1741535"></polyline>
                </g>
            </g>
        </g>
    </g>
</svg>