<?xml version="1.0" encoding="UTF-8"?>
<svg width="62px" height="62px" viewBox="0 0 62 62" version="1.1" xmlns="http://www.w3.org/2000/svg" xmlns:xlink="http://www.w3.org/1999/xlink">
    <!-- Generator: Sketch 61 (89581) - https://sketch.com -->
    <title>个人中心-电话</title>
    <desc>Created with Sketch.</desc>
    <defs>
        <circle id="path-1" cx="23" cy="23" r="23"></circle>
        <filter x="-26.1%" y="-26.1%" width="152.2%" height="152.2%" filterUnits="objectBoundingBox" id="filter-2">
            <feMorphology radius="1" operator="dilate" in="SourceAlpha" result="shadowSpreadOuter1"></feMorphology>
            <feOffset dx="0" dy="0" in="shadowSpreadOuter1" result="shadowOffsetOuter1"></feOffset>
            <feGaussianBlur stdDeviation="3" in="shadowOffsetOuter1" result="shadowBlurOuter1"></feGaussianBlur>
            <feColorMatrix values="0 0 0 0 1   0 0 0 0 0.898039216   0 0 0 0 0.0705882353  0 0 0 0.35 0" type="matrix" in="shadowBlurOuter1"></feColorMatrix>
        </filter>
    </defs>
    <g id="个人中心" stroke="none" stroke-width="1" fill="none" fill-rule="evenodd">
        <g transform="translate(-304.000000, -634.000000)" id="个人中心-电话">
            <g transform="translate(309.000000, 639.000000)">
                <g id="编组-7" transform="translate(3.000000, 3.000000)">
                    <g id="椭圆形">
                        <use fill="black" fill-opacity="1" filter="url(#filter-2)" xlink:href="#path-1"></use>
                        <use fill="#FFE512" fill-rule="evenodd" xlink:href="#path-1"></use>
                    </g>
                    <path d="M31.1386006,17.9333557 C31.0378306,17.5137307 30.8995648,17.1034829 30.7284901,16.709645 C30.3300971,15.7906899 29.7606294,14.9655057 29.0318045,14.2551909 C28.3076666,13.5495646 27.4616672,12.9939719 26.5219284,12.6048225 C25.5470372,12.2039518 24.5135588,12 23.4519585,12 C22.3927017,12 21.3592233,12.2039518 20.3843321,12.6048225 C19.4445932,12.9916276 18.6009374,13.5472204 17.874456,14.2551909 C17.1479746,14.9631614 16.5761634,15.7883456 16.1777703,16.709645 C16.0043522,17.1081715 15.8637429,17.5301407 15.7582859,17.9638312 C15.3880147,18.0880777 15.038835,18.2685867 14.717777,18.4983255 C14.3709407,18.7468185 14.0662872,19.0468855 13.8131905,19.3914936 C13.2812186,20.106497 13,20.9598125 13,21.8576691 C13,22.9477562 13.4265149,23.9768922 14.2022096,24.7551909 C14.7716773,25.3248493 15.4794108,25.7116544 16.243388,25.871065 C16.2996317,25.8827863 16.3582189,25.8898192 16.4168062,25.8898192 C16.6370941,25.8898192 16.852695,25.8007368 17.0073652,25.6413262 C17.164379,25.4842599 17.2487446,25.2732753 17.2464011,25.0505693 L17.2112487,19.7267247 C17.2112487,18.1115204 17.8580516,16.5924313 19.0297958,15.448426 C20.210914,14.2973878 21.7810512,13.664434 23.449615,13.664434 C25.1181788,13.664434 26.688316,14.2973878 27.8694342,15.4460817 C29.0411784,16.5900871 29.6879813,18.1091762 29.6879813,19.7243804 L29.6879813,25.2756196 C29.6879813,26.8908238 29.0411784,28.4099129 27.8694342,29.5539183 C27.3726147,30.0391829 26.8078339,30.4330208 26.1868095,30.7260549 C26.2149314,30.5572672 26.2266488,30.3861353 26.2243053,30.2126591 C26.2079009,29.5117214 25.9266823,28.8506363 25.4298627,28.3513061 C24.9330432,27.8519759 24.2745229,27.5659745 23.5738199,27.5472204 C23.550385,27.5472204 23.5269501,27.5472204 23.5035152,27.5472204 C22.7770338,27.5472204 22.0927352,27.8308774 21.5771677,28.3466175 C21.0616003,28.8623577 20.7780382,29.5468855 20.7780382,30.2736102 C20.7780382,30.9909578 21.0545698,31.6707971 21.5607633,32.1841929 C22.0646133,32.6975887 22.734851,32.9859344 23.4519585,33 C23.454302,33 23.454302,33 23.4566455,33 L23.4894543,33 L23.5058587,33 L23.5480415,33 L23.5644459,33 L23.5714764,33 C23.5714764,33 23.5738199,33 23.5738199,33 C24.5979243,32.9859344 25.5915634,32.7819826 26.5242718,32.3951775 C27.4640107,32.0083724 28.3076666,31.4527796 29.034148,30.7448091 C29.7606294,30.0368386 30.3324406,29.2116544 30.7308336,28.290355 C31.0870439,27.4675151 31.2932708,26.5954454 31.3448276,25.6952445 C31.8885169,25.4912927 32.378306,25.1724715 32.7977904,24.7505023 C33.5734851,23.9745479 34,22.9454119 34,21.8553248 C33.9976565,20.0455459 32.8282558,18.4490958 31.1386006,17.9333557 Z M13.4147975,23.1728064 C13.4458319,23.2314133 13.4803147,23.2923644 13.5147975,23.3509712 C13.4803147,23.2923644 13.4458319,23.2337575 13.4147975,23.1728064 Z M13.6468028,23.6932351 C13.6866421,23.7659076 13.7288249,23.83858 13.7710077,23.9089082 C13.7288249,23.83858 13.6866421,23.7682518 13.6468028,23.6932351 Z M15.2474054,23.709645 C15.2239705,23.6862023 15.2005357,23.6627595 15.1794443,23.6393168 C15.2005357,23.6627595 15.2239705,23.6862023 15.2474054,23.709645 C15.2661533,23.7283992 15.2849012,23.7471534 15.3036491,23.7659076 C15.2849012,23.7471534 15.2661533,23.7283992 15.2474054,23.709645 Z M15.5497154,23.7307435 C15.4911282,23.6815137 15.4348845,23.6299397 15.3809843,23.5760214 C14.919317,23.1141996 14.6638768,22.5023443 14.6638768,21.8576691 C14.6638768,21.4239786 14.7763642,20.9973208 14.9872782,20.6245814 C15.1325745,20.3667113 15.3247405,20.1393168 15.5497154,19.9541192 L15.5497154,23.7307435 Z M15.7715768,24.1542755 C15.739434,24.1209347 15.7037197,24.087594 15.6715768,24.0542532 C15.7037197,24.0931508 15.739434,24.1264915 15.7715768,24.1542755 L15.7715768,24.1542755 Z M15.9152996,18.1091762 L15.9152996,18.1091762 C15.9465496,18.0083724 15.9809246,17.9075687 16.0152996,17.8067649 C15.9777996,17.9075687 15.9434246,18.0083724 15.9152996,18.1091762 Z M16.2832273,25.7185136 C16.2035487,25.6925818 16.1262136,25.6629456 16.0488785,25.6296048 C16.1262136,25.6592411 16.2035487,25.6925818 16.2832273,25.7185136 C16.2949448,25.7222181 16.3066622,25.7259226 16.3183796,25.7296271 C16.3066622,25.7259226 16.2949448,25.7222181 16.2832273,25.7185136 Z M16.4550887,25.699933 C16.4350887,25.699933 16.4150887,25.699933 16.4050887,25.699933 C16.4350887,25.699933 16.4650887,25.699933 16.4950887,25.699933 C16.4850887,25.699933 16.4650887,25.699933 16.4550887,25.699933 Z M17.1190078,25.0857334 C17.1190078,25.0740121 17.1190078,25.0622907 17.1190078,25.0505693 L17.0237697,19.7267247 L17.1190078,25.0505693 C17.125357,25.0622907 17.125357,25.0740121 17.1190078,25.0857334 Z M18.6993639,13.7863362 C18.776699,13.7277294 18.8540341,13.6691226 18.9337128,13.6152043 C18.8563776,13.6691226 18.776699,13.7253851 18.6993639,13.7863362 Z M20.4546368,12.7782987 C19.9765651,12.9752177 19.5242718,13.2166778 19.1001004,13.5003349 C19.5242718,13.2166778 19.9765651,12.9752177 20.4546368,12.7782987 C20.4897891,12.7642331 20.5272849,12.7501674 20.5624372,12.7361018 C20.5249414,12.7478232 20.4897891,12.7618888 20.4546368,12.7782987 Z M21.8466689,13.7292923 C21.9075996,13.6959515 21.9685303,13.6570539 22.029461,13.6292699 C21.9708738,13.6626107 21.9075996,13.6959515 21.8466689,13.7292923 Z M28.9005691,14.3888145 C28.1928356,13.6972539 27.3655842,13.1557267 26.4492802,12.7782987 C26.4141279,12.7642331 26.3766321,12.7501674 26.3414797,12.7361018 C26.3766321,12.7501674 26.4141279,12.7642331 26.4492802,12.7782987 C27.3655842,13.1557267 28.1904921,13.6972539 28.9005691,14.3888145 C28.9450954,14.4310114 28.9896217,14.4755526 29.0318045,14.5200938 C28.9872782,14.4755526 28.9450954,14.4333557 28.9005691,14.3888145 Z M29.1700703,14.6654387 C29.2450619,14.745144 29.3177101,14.8271936 29.3880147,14.9092431 C29.3177101,14.8271936 29.2450619,14.745144 29.1700703,14.6654387 Z M29.4231671,14.9537843 C29.4864412,15.0288011 29.5473719,15.1061621 29.6083026,15.1835231 C29.5497154,15.1061621 29.4864412,15.0288011 29.4231671,14.9537843 Z M20.9631738,30.3079929 L20.9631738,30.3079929 C20.9631738,30.2758428 20.9631738,30.2401206 20.9631738,30.2079705 C20.9631738,30.2436928 20.9631738,30.2758428 20.9631738,30.3079929 Z M23.5011717,27.7347622 C23.5333146,27.7347622 23.5690289,27.7347622 23.6011717,27.7347622 C23.5690289,27.7347622 23.5333146,27.7347622 23.5011717,27.7347622 C23.5011717,27.7347622 23.5011717,27.7347622 23.5011717,27.7347622 Z M24.260462,31.0167448 C24.0682959,31.2136638 23.8128557,31.3285332 23.5386676,31.3379102 L23.4871108,31.3379102 C22.9106127,31.3308774 22.4395715,30.85499 22.4395715,30.2759545 C22.4395715,29.6898861 22.9152996,29.2139987 23.5011717,29.2139987 C24.0870439,29.2139987 24.562772,29.6898861 24.562772,30.2759545 C24.5604285,30.5525787 24.4549715,30.8174816 24.260462,31.0167448 Z M24.7361902,30.4634963 C24.7761902,30.4025452 24.7961902,30.3392498 24.7961902,30.2759545 C24.7961902,30.254856 24.7961902,30.2337575 24.7861902,30.2126591 C24.7861902,30.2337575 24.7961902,30.254856 24.7961902,30.2759545 C24.7961902,30.3392498 24.7761902,30.4025452 24.7361902,30.4634963 Z M25.9149648,31.0792588 C25.9219953,31.045918 25.9290258,31.0125772 25.9360562,30.9792364 C25.9290258,31.0125772 25.9219953,31.045918 25.9149648,31.0792588 C25.9501172,31.0592543 25.987613,31.0359158 26.0227653,31.0159113 C25.987613,31.0392498 25.9524607,31.0592543 25.9149648,31.0792588 Z M28.9005691,30.6111855 C28.8536994,30.658071 28.8044861,30.7026122 28.7576163,30.7471534 C28.8044861,30.7026122 28.8536994,30.6557267 28.9005691,30.6111855 C28.9450954,30.5689886 28.9896217,30.5244474 29.0318045,30.4799062 C28.9872782,30.5244474 28.9450954,30.5666443 28.9005691,30.6111855 Z M29.8984299,25.2756196 C29.8984299,25.3787676 29.8884299,25.4795713 29.8684299,25.5827194 C29.8884299,25.4795713 29.8984299,25.3787676 29.8984299,25.2756196 L29.8984299,19.7243804 C29.8984299,19.6798392 29.8984299,19.6329538 29.8884299,19.5884126 C29.8884299,19.6329538 29.8984299,19.6798392 29.8984299,19.7243804 L29.8984299,25.2756196 Z M30.555072,28.2153382 C30.5058587,28.3278634 30.454302,28.4380442 30.4004017,28.5482251 C30.4566455,28.4380442 30.5082022,28.3278634 30.555072,28.2153382 C30.5714764,28.1754856 30.5902243,28.135633 30.6066287,28.0957803 C30.5902243,28.135633 30.5738199,28.1754856 30.555072,28.2153382 Z M30.555072,16.7846618 C30.5058587,16.6721366 30.454302,16.5619558 30.4004017,16.4517749 C30.4566455,16.5619558 30.5082022,16.6721366 30.555072,16.7846618 C30.5785069,16.8362358 30.5995983,16.8901541 30.6206897,16.9440723 C30.6019417,16.8901541 30.5785069,16.8362358 30.555072,16.7846618 Z M31.0464345,18.0810449 C31.0131012,18.0318151 30.9797679,17.9849297 30.9464345,17.9380442 C30.9797679,17.9849297 31.0131012,18.0341594 31.0464345,18.0810449 L31.0464345,18.0810449 Z M31.164379,19.5368386 C31.2581185,19.5884126 31.3495146,19.6446752 31.4362236,19.7079705 C31.3495146,19.6446752 31.2581185,19.5884126 31.164379,19.5368386 C31.164379,19.5368386 31.164379,19.5368386 31.164379,19.5368386 Z M31.7502511,23.709645 C31.572146,23.8878098 31.3752929,24.035499 31.1667225,24.1527127 L31.1667225,24.1527127 C31.3752929,24.035499 31.572146,23.8854655 31.7502511,23.709645 C31.7619685,23.6979236 31.7713425,23.6862023 31.7830599,23.6768252 C31.7713425,23.6862023 31.7619685,23.6979236 31.7502511,23.709645 Z M31.6166722,23.5760214 C31.5323067,23.6604153 31.4455976,23.735432 31.3518581,23.8057602 L31.3518581,19.8791025 C31.6026113,20.0666443 31.8182123,20.3034159 31.9822564,20.5800402 C32.2119183,20.964501 32.3314362,21.4052244 32.3314362,21.8576691 C32.3337797,22.5046885 32.0783395,23.1141996 31.6166722,23.5760214 Z M33.69692,20.7206966 C33.6635867,20.6691226 33.6350152,20.6175486 33.59692,20.5683188 C33.6302533,20.6175486 33.6635867,20.6691226 33.69692,20.7206966 Z M33.4164714,20.1275954 C33.4521857,20.1744809 33.4843285,20.2237106 33.5164714,20.2705961 C33.4843285,20.2213664 33.4486142,20.1744809 33.4164714,20.1275954 Z M33.5898895,23.1470194 C33.6262532,23.0954454 33.6580713,23.0415271 33.6898895,22.9899531 C33.6626168,23.0438714 33.6262532,23.0954454 33.5898895,23.1470194 Z" id="Shape" fill="#303133" fill-rule="nonzero"></path>
                </g>
            </g>
        </g>
    </g>
</svg>