<?xml version="1.0" encoding="UTF-8"?>
<svg width="44px" height="44px" viewBox="0 0 44 44" version="1.1" xmlns="http://www.w3.org/2000/svg" xmlns:xlink="http://www.w3.org/1999/xlink">
    <!-- Generator: Sketch 61 (89581) - https://sketch.com -->
    <title>播放</title>
    <desc>Created with Sketch.</desc>
    <g id="播放" stroke="none" stroke-width="1" fill="none" fill-rule="evenodd">
        <g fill-rule="nonzero">
            <rect id="矩形" fill="#000000" opacity="0" x="0" y="0" width="44" height="44"></rect>
            <path d="M22,0 C9.86829154,0 0,9.86829154 0,22 C0,34.1317085 9.86829154,44 22,44 C34.1317085,44 44,34.1317085 44,22 C44,9.86829154 34.1317085,0 22,0 Z" id="路径" fill="#000000" opacity="0.1"></path>
            <path d="M22,43 C33.5777934,43 43,33.5777934 43,22 C43,10.4222066 33.5777934,1 22,1 C10.4222066,1 1,10.4222066 1,22 C1,33.5777934 10.4222066,43 22,43 Z" id="路径" stroke="#FFFFFF" stroke-width="2"></path>
            <path d="M18.6828125,29.5710937 C18.3648437,29.5710937 18.0511719,29.4894531 17.7675781,29.3261719 C17.2003906,28.9996094 16.8523437,28.39375 16.8523437,27.7363281 L16.8523437,16.5 C16.8523437,15.846875 17.2003906,15.2410156 17.7675781,14.9101562 C18.3347656,14.5835937 19.0351562,14.5835937 19.6023437,14.9101562 L29.3347656,20.5304687 C29.9019531,20.8570312 30.25,21.4628906 30.25,22.1203125 C30.25,22.7734375 29.9019531,23.3792969 29.3347656,23.7101562 L19.5980469,29.3261719 C19.3144531,29.49375 19.0007812,29.5710937 18.6828125,29.5710937 Z" id="形状" fill="#FFFFFF"></path>
        </g>
    </g>
</svg>