<?xml version="1.0" encoding="UTF-8"?>
<svg width="26px" height="26px" viewBox="0 0 26 26" version="1.1" xmlns="http://www.w3.org/2000/svg" xmlns:xlink="http://www.w3.org/1999/xlink">
    <!-- Generator: Sketch 61 (89581) - https://sketch.com -->
    <title>评论</title>
    <desc>Created with Sketch.</desc>
    <g id="评论" stroke="none" stroke-width="1" fill="none" fill-rule="evenodd">
        <g id="message" transform="translate(4.000000, 4.000000)" fill-rule="nonzero">
            <path d="M5.13318546,7.46997363 C4.59886263,7.46997363 4.16648299,7.90235329 4.16648299,8.43667611 C4.16648299,8.97099894 4.60062028,9.40337858 5.13318546,9.40337858 C5.66750828,9.40337858 6.09988794,8.97099892 6.09988794,8.43667611 C6.09988794,7.9023533 5.66750828,7.46997363 5.13318546,7.46997363 L5.13318546,7.46997363 Z M12.8668052,7.46997363 C12.3324824,7.46997363 11.9001027,7.90235329 11.9001027,8.43667611 C11.9001027,8.97099894 12.33424,9.40337858 12.8668052,9.40337858 C13.3993704,9.40337858 13.8317501,8.97099892 13.8335077,8.43667611 C13.8335077,7.90235329 13.3993704,7.46997363 12.8668052,7.46997363 L12.8668052,7.46997363 Z M8.99999534,7.46997363 C8.46567251,7.46997363 8.03329286,7.90235329 8.03329286,8.43667611 C8.03329286,8.97099894 8.46743015,9.40337858 8.99999534,9.40337858 C9.53256053,9.40337858 9.9666978,8.97099892 9.9666978,8.43667611 C9.9666978,7.9023533 9.53256052,7.46997363 8.99999534,7.46997363 L8.99999534,7.46997363 Z" id="Shape" fill="#303133"></path>
            <path d="M16.6024003,5.44015872 C16.1881473,4.52695629 15.5945743,3.70669168 14.8355139,3.00058849 C14.0780508,2.29469736 13.1967455,1.74068769 12.2147762,1.35370413 C11.1952972,0.953368172 10.1140632,0.75 8.99999534,0.75 C7.8859275,0.75 6.80469352,0.953368172 5.7860618,1.35337081 C4.80324519,1.7406877 3.92193989,2.29469738 3.16456151,3.00050954 C2.40575717,3.70786953 1.81254571,4.52725796 1.39768383,5.43995234 C0.968355966,6.38798485 0.75087416,7.39168541 0.75087416,8.42613026 C0.75087416,10.2863824 1.46837734,12.069105 2.78382415,13.4726756 L2.95265794,13.6528198 L2.9814692,13.8980273 L3.36680462,17.1775506 L6.10038974,15.6236651 L6.40989598,15.7188051 C7.24170855,15.9744985 8.11128271,16.1040182 8.99823771,16.1040182 C10.1123056,16.1040182 11.1935395,15.90065 12.2121713,15.5006474 C13.1949879,15.1133305 14.0762932,14.5593208 14.8336715,13.8535086 C15.5924758,13.1461486 16.1856873,12.3267602 16.6009818,11.4131123 C17.0307001,10.4677322 17.2473684,9.46636066 17.2473693,8.42674209 C17.2489497,7.39230397 17.0320502,6.38897827 16.6024003,5.44015872 Z M16.6024003,5.44015872 C16.6023692,5.44008992 16.602338,5.44002113 16.6023069,5.43995234 L16.6024939,5.44036503 C16.6024627,5.44029626 16.6024315,5.44022749 16.6024003,5.44015872 Z" id="Path" stroke="#303133" stroke-width="1.5"></path>
        </g>
    </g>
</svg>