<?xml version="1.0" encoding="UTF-8"?>
<svg width="22px" height="22px" viewBox="0 0 22 22" version="1.1" xmlns="http://www.w3.org/2000/svg" xmlns:xlink="http://www.w3.org/1999/xlink">
    <!-- Generator: Sketch 61 (89581) - https://sketch.com -->
    <title>举报</title>
    <desc>Created with Sketch.</desc>
    <g id="举报" stroke="none" stroke-width="1" fill="none" fill-rule="evenodd">
        <path d="M11,5 C7.6859375,5 5,7.6859375 5,11 C5,14.3140625 7.6859375,17 11,17 C14.3140625,17 17,14.3140625 17,11 C17,7.6859375 14.3140625,5 11,5 L11,5 Z" id="Path" stroke="#606266" fill-rule="nonzero"></path>
        <path d="M11,12.75 C10.6978516,12.75 10.453125,12.5052734 10.453125,12.203125 L10.453125,7.15820312 C10.453125,6.85605469 10.6978516,6.61132812 11,6.61132812 C11.3021484,6.61132812 11.546875,6.85605469 11.546875,7.15820312 L11.546875,12.203125 C11.546875,12.5052734 11.3021484,12.75 11,12.75 Z" id="Path" fill="#606266" fill-rule="nonzero"></path>
        <path d="M10.3847656,14.2402344 C10.3847656,14.5800189 10.6602154,14.8554688 11,14.8554688 C11.3397846,14.8554688 11.6152344,14.5800189 11.6152344,14.2402344 C11.6152344,13.9004498 11.3397846,13.625 11,13.625 C10.6602154,13.625 10.3847656,13.9004498 10.3847656,14.2402344 Z" id="Path" fill="#606266" fill-rule="nonzero"></path>
    </g>
</svg>