<?xml version="1.0" encoding="UTF-8"?>
<svg width="23px" height="23px" viewBox="0 0 23 23" version="1.1" xmlns="http://www.w3.org/2000/svg" xmlns:xlink="http://www.w3.org/1999/xlink">
    <!-- Generator: Sketch 61 (89581) - https://sketch.com -->
    <title>联系客服</title>
    <desc>Created with Sketch.</desc>
    <g id="联系客服" stroke="none" stroke-width="1" fill="none" fill-rule="evenodd">
        <path d="M19.1386006,6.93335566 C19.0378306,6.51373074 18.8995648,6.10348292 18.7284901,5.70964501 C18.3300971,4.79068989 17.7606294,3.96550569 17.0318045,3.25519089 C16.3076666,2.54956463 15.4616672,1.99397187 14.5219284,1.60482251 C13.5470372,1.20395177 12.5135588,1 11.4519585,1 C10.3927017,1 9.3592233,1.20395177 8.38433211,1.60482251 C7.44459324,1.9916276 6.6009374,2.54722036 5.87445598,3.25519089 C5.14797456,3.96316142 4.57616337,4.78834561 4.17777034,5.70964501 C4.00435219,6.10817147 3.86374289,6.53014066 3.75828591,6.96383121 C3.38801473,7.0880777 3.03883495,7.26858674 2.71777703,7.49832552 C2.37094074,7.74681849 2.06628724,8.04688547 1.81319049,8.39149364 C1.28121861,9.10649699 1,9.95981246 1,10.8576691 C1,11.9477562 1.4265149,12.9768922 2.20220957,13.7551909 C2.77167727,14.3248493 3.47941078,14.7116544 4.24338801,14.871065 C4.29963174,14.8827863 4.35821895,14.8898192 4.41680616,14.8898192 C4.63709407,14.8898192 4.85269501,14.8007368 5.00736525,14.6413262 C5.16437898,14.4842599 5.24874456,14.2732753 5.24640107,14.0505693 L5.21124874,8.72672472 C5.21124874,7.11152043 5.85805156,5.59243135 7.02979578,4.44842599 C8.21091396,3.29738781 9.78105122,2.66443403 11.449615,2.66443403 C13.1181788,2.66443403 14.688316,3.29738781 15.8694342,4.44608171 C17.0411784,5.59008707 17.6879813,7.10917616 17.6879813,8.72438044 L17.6879813,14.2756196 C17.6879813,15.8908238 17.0411784,17.4099129 15.8694342,18.5539183 C15.3726147,19.0391829 14.8078339,19.4330208 14.1868095,19.7260549 C14.2149314,19.5572672 14.2266488,19.3861353 14.2243053,19.2126591 C14.2079009,18.5117214 13.9266823,17.8506363 13.4298627,17.3513061 C12.9330432,16.8519759 12.2745229,16.5659745 11.5738199,16.5472204 C11.550385,16.5472204 11.5269501,16.5472204 11.5035152,16.5472204 C10.7770338,16.5472204 10.0927352,16.8308774 9.57716773,17.3466175 C9.06160027,17.8623577 8.77803817,18.5468855 8.77803817,19.2736102 C8.77803817,19.9909578 9.0545698,20.6707971 9.56076331,21.1841929 C10.0646133,21.6975887 10.734851,21.9859344 11.4519585,22 C11.454302,22 11.454302,22 11.4566455,22 L11.4894543,22 L11.5058587,22 L11.5480415,22 L11.5644459,22 L11.5714764,22 C12.5979243,21.9859344 13.5915634,21.7819826 14.5242718,21.3951775 C15.4640107,21.0083724 16.3076666,20.4527796 17.034148,19.7448091 C17.7606294,19.0368386 18.3324406,18.2116544 18.7308336,17.290355 C19.0870439,16.4675151 19.2932708,15.5954454 19.3448276,14.6952445 C19.8885169,14.4912927 20.378306,14.1724715 20.7977904,13.7505023 C21.5734851,12.9745479 22,11.9454119 22,10.8553248 C21.9976565,9.04554588 20.8282558,7.44909578 19.1386006,6.93335566 Z M1.41479746,12.1728064 C1.44583194,12.2314133 1.4803147,12.2923644 1.51479746,12.3509712 C1.4803147,12.2923644 1.44583194,12.2337575 1.41479746,12.1728064 Z M1.64680281,12.6932351 C1.68664212,12.7659076 1.72882491,12.83858 1.7710077,12.9089082 C1.72882491,12.83858 1.68664212,12.7682518 1.64680281,12.6932351 Z M3.24740542,12.709645 C3.22397054,12.6862023 3.20053565,12.6627595 3.17944426,12.6393168 C3.20053565,12.6627595 3.22397054,12.6862023 3.24740542,12.709645 C3.26615333,12.7283992 3.28490124,12.7471534 3.30364915,12.7659076 C3.28490124,12.7471534 3.26615333,12.7283992 3.24740542,12.709645 Z M3.54971543,12.7307435 C3.49112822,12.6815137 3.4348845,12.6299397 3.38098427,12.5760214 C2.91931704,12.1141996 2.6638768,11.5023443 2.6638768,10.8576691 C2.6638768,10.4239786 2.77636425,9.99732083 2.98727821,9.62458138 C3.13257449,9.36671132 3.32474054,9.13931681 3.54971543,8.95411922 L3.54971543,12.7307435 Z M3.67157683,13.0542532 C3.70371969,13.0931508 3.73943398,13.1264915 3.77157683,13.1542755 C3.73943398,13.1209347 3.70371969,13.087594 3.67157683,13.0542532 Z M3.91529963,7.10917616 C3.94654963,7.0083724 3.98092463,6.90756865 4.01529963,6.8067649 C3.97779963,6.90756865 3.94342463,7.0083724 3.91529963,7.10917616 Z M4.28322732,14.7185136 C4.20354871,14.6925818 4.12621359,14.6629456 4.04887847,14.6296048 C4.12621359,14.6592411 4.20354871,14.6925818 4.28322732,14.7185136 C4.29494476,14.7222181 4.3066622,14.7259226 4.31837965,14.7296271 C4.3066622,14.7259226 4.29494476,14.7222181 4.28322732,14.7185136 Z M4.45508872,14.699933 C4.43508872,14.699933 4.41508872,14.699933 4.40508872,14.699933 C4.43508872,14.699933 4.46508872,14.699933 4.49508872,14.699933 C4.48508872,14.699933 4.46508872,14.699933 4.45508872,14.699933 Z M5.11900776,14.0857334 C5.11900776,14.0740121 5.11900776,14.0622907 5.11900776,14.0505693 L5.02376967,8.72672472 L5.11900776,14.0505693 C5.12535697,14.0622907 5.12535697,14.0740121 5.11900776,14.0857334 Z M6.69936391,2.78633624 C6.77669903,2.7277294 6.85403415,2.66912257 6.93371276,2.61520429 C6.85637764,2.66912257 6.77669903,2.72538513 6.69936391,2.78633624 Z M8.45463676,1.77829873 C7.97656512,1.97521768 7.52427184,2.21667783 7.10010044,2.5003349 C7.52427184,2.21667783 7.97656512,1.97521768 8.45463676,1.77829873 C8.48978909,1.76423309 8.5272849,1.75016745 8.56243723,1.73610181 C8.52494141,1.74782317 8.48978909,1.76188881 8.45463676,1.77829873 Z M9.8466689,2.72929225 C9.9075996,2.69595148 9.9685303,2.65705391 10.029461,2.62926993 C9.97087379,2.6626107 9.9075996,2.69595148 9.8466689,2.72929225 Z M16.9005691,3.38881447 C16.1928356,2.69725385 15.3655842,2.15572672 14.4492802,1.77829873 C14.4141279,1.76423309 14.3766321,1.75016745 14.3414797,1.73610181 C14.3766321,1.75016745 14.4141279,1.76423309 14.4492802,1.77829873 C15.3655842,2.15572672 16.1904921,2.69725385 16.9005691,3.38881447 C16.9450954,3.43101139 16.9896217,3.47555258 17.0318045,3.52009377 C16.9872782,3.47555258 16.9450954,3.43335566 16.9005691,3.38881447 Z M17.1700703,3.66543871 C17.2450619,3.74514401 17.3177101,3.82719357 17.3880147,3.90924313 C17.3177101,3.82719357 17.2450619,3.74514401 17.1700703,3.66543871 Z M17.4231671,3.95378433 C17.4864412,4.02880107 17.5473719,4.10616209 17.6083026,4.18352311 C17.5497154,4.10616209 17.4864412,4.02880107 17.4231671,3.95378433 Z M8.96317375,19.3079929 C8.96317375,19.2758428 8.96317375,19.2401206 8.96317375,19.2079705 C8.96317375,19.2436928 8.96317375,19.2758428 8.96317375,19.3079929 Z M11.6011717,16.7347622 C11.5690289,16.7347622 11.5333146,16.7347622 11.5011717,16.7347622 C11.5333146,16.7347622 11.5690289,16.7347622 11.6011717,16.7347622 Z M12.260462,20.0167448 C12.0682959,20.2136638 11.8128557,20.3285332 11.5386676,20.3379102 L11.4871108,20.3379102 C10.9106127,20.3308774 10.4395715,19.85499 10.4395715,19.2759545 C10.4395715,18.6898861 10.9152996,18.2139987 11.5011717,18.2139987 C12.0870439,18.2139987 12.562772,18.6898861 12.562772,19.2759545 C12.5604285,19.5525787 12.4549715,19.8174816 12.260462,20.0167448 Z M12.7361902,19.4634963 C12.7761902,19.4025452 12.7961902,19.3392498 12.7961902,19.2759545 C12.7961902,19.254856 12.7961902,19.2337575 12.7861902,19.2126591 C12.7861902,19.2337575 12.7961902,19.254856 12.7961902,19.2759545 C12.7961902,19.3392498 12.7761902,19.4025452 12.7361902,19.4634963 Z M13.9149648,20.0792588 C13.9219953,20.045918 13.9290258,20.0125772 13.9360562,19.9792364 C13.9290258,20.0125772 13.9219953,20.045918 13.9149648,20.0792588 C13.9501172,20.0592543 13.987613,20.0359158 14.0227653,20.0159113 C13.987613,20.0392498 13.9524607,20.0592543 13.9149648,20.0792588 Z M16.9005691,19.6111855 C16.8536994,19.658071 16.8044861,19.7026122 16.7576163,19.7471534 C16.8044861,19.7026122 16.8536994,19.6557267 16.9005691,19.6111855 C16.9450954,19.5689886 16.9896217,19.5244474 17.0318045,19.4799062 C16.9872782,19.5244474 16.9450954,19.5666443 16.9005691,19.6111855 Z M17.8984299,14.2756196 C17.8984299,14.3787676 17.8884299,14.4795713 17.8684299,14.5827194 C17.8884299,14.4795713 17.8984299,14.3787676 17.8984299,14.2756196 L17.8984299,8.72438044 C17.8984299,8.67983925 17.8984299,8.63295378 17.8884299,8.58841259 C17.8884299,8.63295378 17.8984299,8.67983925 17.8984299,8.72438044 L17.8984299,14.2756196 Z M18.555072,17.2153382 C18.5058587,17.3278634 18.454302,17.4380442 18.4004017,17.5482251 C18.4566455,17.4380442 18.5082022,17.3278634 18.555072,17.2153382 C18.5714764,17.1754856 18.5902243,17.135633 18.6066287,17.0957803 C18.5902243,17.135633 18.5738199,17.1754856 18.555072,17.2153382 Z M18.555072,5.78466175 C18.5058587,5.67213664 18.454302,5.56195579 18.4004017,5.45177495 C18.4566455,5.56195579 18.5082022,5.67213664 18.555072,5.78466175 C18.5785069,5.83623577 18.5995983,5.89015405 18.6206897,5.94407234 C18.6019417,5.89015405 18.5785069,5.83623577 18.555072,5.78466175 Z M18.9464345,6.93804421 C18.9797679,6.98492967 19.0131012,7.03415941 19.0464345,7.08104488 C19.0131012,7.03181514 18.9797679,6.98492967 18.9464345,6.93804421 Z M19.4362236,8.70797053 C19.3495146,8.64467515 19.2581185,8.58841259 19.164379,8.53683858 C19.2581185,8.58841259 19.3495146,8.64467515 19.4362236,8.70797053 Z M19.7502511,12.709645 C19.572146,12.8878098 19.3752929,13.035499 19.1667225,13.1527127 C19.3752929,13.035499 19.572146,12.8854655 19.7502511,12.709645 C19.7619685,12.6979236 19.7713425,12.6862023 19.7830599,12.6768252 C19.7713425,12.6862023 19.7619685,12.6979236 19.7502511,12.709645 Z M19.6166722,12.5760214 C19.5323067,12.6604153 19.4455976,12.735432 19.3518581,12.8057602 L19.3518581,8.87910248 C19.6026113,9.06664434 19.8182123,9.30341594 19.9822564,9.58004019 C20.2119183,9.964501 20.3314362,10.4052244 20.3314362,10.8576691 C20.3337797,11.5046885 20.0783395,12.1141996 19.6166722,12.5760214 Z M21.69692,9.72069658 C21.6635867,9.66912257 21.6350152,9.61754856 21.59692,9.56831882 C21.6302533,9.61754856 21.6635867,9.66912257 21.69692,9.72069658 Z M21.4164714,9.12759545 C21.4521857,9.17448091 21.4843285,9.22371065 21.5164714,9.27059612 C21.4843285,9.22136638 21.4486142,9.17448091 21.4164714,9.12759545 Z M21.5898895,12.1470194 C21.6262532,12.0954454 21.6580713,12.0415271 21.6898895,11.9899531 C21.6626168,12.0438714 21.6262532,12.0954454 21.5898895,12.1470194 Z" id="Shape" fill="#303133" fill-rule="nonzero"></path>
    </g>
</svg>