<?xml version="1.0" encoding="UTF-8"?>
<svg width="26px" height="26px" viewBox="0 0 26 26" version="1.1" xmlns="http://www.w3.org/2000/svg" xmlns:xlink="http://www.w3.org/1999/xlink">
    <!-- Generator: Sketch 61 (89581) - https://sketch.com -->
    <title>切片</title>
    <desc>Created with Sketch.</desc>
    <g id="话题+路线" stroke="none" stroke-width="1" fill="none" fill-rule="evenodd">
        <g id="路线" transform="translate(-14.000000, -1619.000000)">
            <g id="ic_fenxiang" transform="translate(14.000000, 1619.000000)">
                <g id="编组">
                    <rect id="矩形" x="0" y="0" width="26" height="26"></rect>
                    <path d="M13,14.5 C13,13.9188034 13,14.5470085 13,13.3846154 C13,10.4107744 15.4107744,8 18.3846154,8 C19.5470085,8 19.4188034,8 20,8" id="路径" stroke="#303133" stroke-width="1.5" stroke-linecap="round"></path>
                    <polyline id="路径" stroke="#303133" stroke-width="1.5" stroke-linecap="round" stroke-linejoin="round" transform="translate(18.732233, 8.000000) rotate(-315.000000) translate(-18.732233, -8.000000) " points="17.482233 6.75 19.982233 6.75 19.982233 9.25"></polyline>
                    <path d="M14.0467879,4.56381769 C13.7037616,4.52169094 13.3544139,4.5 13,4.5 C8.30557963,4.5 4.5,8.30557963 4.5,13 C4.5,17.6944204 8.30557963,21.5 13,21.5 C17.6944204,21.5 21.5,17.6944204 21.5,13 C21.5,12.6748291 21.4817409,12.3539228 21.446192,12.0382506" id="路径" stroke="#303133" stroke-width="1.5" stroke-linecap="round"></path>
                </g>
            </g>
        </g>
    </g>
</svg>