<?xml version="1.0" encoding="UTF-8"?>
<svg width="62px" height="62px" viewBox="0 0 62 62" version="1.1" xmlns="http://www.w3.org/2000/svg" xmlns:xlink="http://www.w3.org/1999/xlink">
    <!-- Generator: Sketch 61 (89581) - https://sketch.com -->
    <title>个人中心-电话</title>
    <desc>Created with Sketch.</desc>
    <defs>
        <circle id="path-1" cx="26" cy="26" r="23"></circle>
        <filter x="-26.1%" y="-26.1%" width="152.2%" height="152.2%" filterUnits="objectBoundingBox" id="filter-2">
            <feMorphology radius="1" operator="dilate" in="SourceAlpha" result="shadowSpreadOuter1"></feMorphology>
            <feOffset dx="0" dy="0" in="shadowSpreadOuter1" result="shadowOffsetOuter1"></feOffset>
            <feGaussianBlur stdDeviation="3" in="shadowOffsetOuter1" result="shadowBlurOuter1"></feGaussianBlur>
            <feColorMatrix values="0 0 0 0 1   0 0 0 0 0.898039216   0 0 0 0 0.0705882353  0 0 0 0.35 0" type="matrix" in="shadowBlurOuter1"></feColorMatrix>
        </filter>
    </defs>
    <g id="热门景点更新" stroke="none" stroke-width="1" fill="none" fill-rule="evenodd">
        <g id="省景点排名" transform="translate(-304.000000, -834.000000)">
            <g id="分享" transform="translate(309.000000, 839.000000)">
                <g id="椭圆形">
                    <use fill="black" fill-opacity="1" filter="url(#filter-2)" xlink:href="#path-1"></use>
                    <use fill="#FFE512" fill-rule="evenodd" xlink:href="#path-1"></use>
                </g>
                <g id="icon/share" transform="translate(17.000000, 16.000000)" fill="#000000" fill-rule="evenodd" stroke="#000000" stroke-width="1">
                    <g id="分享" transform="translate(1.117647, 1.117647)">
                        <path d="M13.4507099,16.8145254 L13.4505768,16.8145254 L3.44100133,16.8145254 C1.58424173,16.8120546 0.079656623,15.3074695 0.0771857855,13.4505768 L0.0771858741,3.44100133 C0.079656623,1.58424173 1.58424173,0.079656623 3.44113439,0.0771857855 L8.44585561,0.0771857855 C8.8616099,0.0771857855 9.19864534,0.414221226 9.19864534,0.829975511 C9.19864534,1.2457298 8.8616099,1.58276524 8.44585561,1.58276524 L3.44135588,1.58276499 C2.41582679,1.58503639 1.58503639,2.41582679 1.58276524,3.44113439 L1.58276499,13.4503554 C1.58503639,14.4758844 2.41582679,15.3066748 3.44113439,15.308946 L13.4503554,15.3089462 C14.4758844,15.3066748 15.3066748,14.4758844 15.308946,13.4505768 L15.308946,8.44585561 C15.308946,8.03010133 15.6459814,7.69306589 16.0617357,7.69306589 C16.47749,7.69306589 16.8145254,8.03010133 16.8145254,8.44585561 L16.8145254,13.4507099 C16.8120546,15.3074695 15.3074695,16.8120546 13.4507099,16.8145254 Z" id="路径" stroke-width="0.2" fill-rule="nonzero"></path>
                        <path d="M8.22862113,9.41624127 L8.22789694,9.41624127 C8.02859702,9.41551961 7.83761892,9.33624568 7.69667651,9.19589788 C7.55433668,9.05528506 7.4742242,8.86353366 7.4742242,8.6634522 C7.4742242,8.46337073 7.55433668,8.27161934 7.69624362,8.13143678 L15.5322587,0.295509668 C15.8288677,0.0191265586 16.2910806,0.0272817582 16.577755,0.313956214 C16.8644295,0.600630669 16.8725847,1.06284354 16.5937511,1.36199093 L8.76012454,9.19561721 C8.61889915,9.33624568 8.42792105,9.41551961 8.22862113,9.41624127 Z" id="路径" stroke-width="0.2" fill-rule="nonzero"></path>
                        <path d="M15.7883634,1.58276524 L12.5370265,1.58276524 C12.1435243,1.58276524 11.8274008,1.24425888 11.8274008,0.829975511 C11.8274008,0.415692144 12.1435243,0.0771857855 12.5370265,0.0771857855 L15.7883634,0.0771857855 C16.1818656,0.0771857855 16.497989,0.415692145 16.497989,0.829975511 C16.497989,1.24425888 16.1818656,1.58276524 15.7883634,1.58276524 Z" id="路径" stroke-width="0.2" fill-rule="nonzero"></path>
                        <path d="M16.2998485,4.96431043 C15.9393227,4.96431043 15.6470588,4.67204651 15.6470588,4.3115207 L15.6470588,0.829975511 C15.6470588,0.469449701 15.9393227,0.177185786 16.2998485,0.177185786 C16.6603744,0.177185786 16.9526383,0.469449701 16.9526383,0.829975511 L16.9526383,4.3115207 C16.9526383,4.67204651 16.6603744,4.96431043 16.2998485,4.96431043 L16.2998485,4.96431043 Z" id="路径" stroke-width="0.2" fill-rule="nonzero"></path>
                    </g>
                </g>
            </g>
        </g>
    </g>
</svg>