<?xml version="1.0" encoding="UTF-8"?>
<svg width="26px" height="26px" viewBox="0 0 26 26" version="1.1" xmlns="http://www.w3.org/2000/svg" xmlns:xlink="http://www.w3.org/1999/xlink">
    <!-- Generator: Sketch 61 (89581) - https://sketch.com -->
    <title>xq_fenxiang</title>
    <desc>Created with Sketch.</desc>
    <g id="xq_fenxiang" stroke="none" stroke-width="1" fill="none" fill-rule="evenodd">
        <g id="分享" transform="translate(2.000000, 2.000000)" fill="#303133" fill-rule="nonzero">
            <path d="M4.41756612,21.4573198 C2.10471194,21.4542422 0.230540423,19.5800707 0.227462759,17.2672165 L0.227462759,4.41756612 C0.230540423,2.10471194 2.10471194,0.230540423 4.41756612,0.227462759 L10.8423913,0.227462759 C11.3052173,0.227462759 11.680412,0.602657396 11.680412,1.06548344 C11.680412,1.52830948 11.3052173,1.90350411 10.8423913,1.90350411 L4.41756612,1.90350411 C3.03036266,1.90657657 1.90657657,3.03036266 1.90350411,4.41756612 L1.90350411,17.2672165 C1.90657657,18.6544199 3.03036266,19.778206 4.41756612,19.7812785 L17.2672165,19.7812785 C18.6544199,19.778206 19.778206,18.6544199 19.7812785,17.2672165 L19.7812785,10.8423913 C19.7812785,10.3795653 20.1564731,10.0043706 20.6192992,10.0043706 C21.0821252,10.0043706 21.4573198,10.3795653 21.4573198,10.8423913 L21.4573198,17.2672165 C21.4542422,19.5800707 19.5800707,21.4542422 17.2672165,21.4573198 L4.41756612,21.4573198 Z" id="路径"></path>
            <path d="M9.97084979,11.7139328 C9.81253537,11.5575392 9.72343199,11.3442679 9.72343199,11.1217315 C9.72343199,10.8991952 9.81253537,10.6859238 9.97084979,10.5295303 L20.0270979,0.473282157 C20.3572889,0.165606915 20.8718336,0.174685448 21.1909654,0.493817223 C21.5100972,0.812948998 21.5191757,1.32749367 21.2115005,1.65768472 L11.1552523,11.7139328 C10.997899,11.8706211 10.7851111,11.9589481 10.5630511,11.9597522 C10.340991,11.9589481 10.1282032,11.8706211 9.97084979,11.7139328 Z" id="路径"></path>
            <path d="M15.8181818,1.5 C15.3663125,1.5 15,1.16421356 15,0.75 C15,0.335786442 15.3663125,1.77635684e-15 15.8181818,1.77635684e-15 L20.1818182,1.77635684e-15 C20.6336875,1.77635684e-15 21,0.335786444 21,0.75 C21,1.16421356 20.6336875,1.5 20.1818182,1.5 L15.8181818,1.5 Z" id="路径"></path>
            <path d="M20,5.18181818 L20,0.81818182 C20,0.366312478 20.3357864,0 20.75,0 C21.1642136,0 21.5,0.366312478 21.5,0.81818182 L21.5,5.18181818 C21.5,5.63368752 21.1642136,6 20.75,6 C20.3357864,6 20,5.63368752 20,5.18181818 Z" id="路径"></path>
        </g>
    </g>
</svg>