<?xml version="1.0" encoding="UTF-8"?>
<svg width="44px" height="20px" viewBox="0 0 44 20" version="1.1" xmlns="http://www.w3.org/2000/svg" xmlns:xlink="http://www.w3.org/1999/xlink">
    <!-- Generator: Sketch 61 (89581) - https://sketch.com -->
    <title>攻略</title>
    <desc>Created with Sketch.</desc>
    <defs>
        <linearGradient x1="100%" y1="50%" x2="0%" y2="50%" id="linearGradient-1">
            <stop stop-color="#FF947A" offset="0%"></stop>
            <stop stop-color="#FF6A59" offset="100%"></stop>
        </linearGradient>
    </defs>
    <g id="攻略" stroke="none" stroke-width="1" fill="none" fill-rule="evenodd">
        <g>
            <rect id="矩形" fill="url(#linearGradient-1)" x="0" y="0" width="44" height="20" rx="2"></rect>
            <path d="M8.30198831,12.8669665 L6.06107374,14.045085 L6.06107374,14.045085 L6.48905034,11.5497899 C6.57250725,11.0631988 6.41118452,10.5666985 6.05765539,10.2220928 L4.24471742,8.45491503 L4.24471742,8.45491503 L6.75013607,8.09085639 C7.23870132,8.0198637 7.6610497,7.71300964 7.87954271,7.27029443 L9,5 L9,5 L10.1204573,7.27029443 C10.3389503,7.71300964 10.7612987,8.0198637 11.2498639,8.09085639 L13.7552826,8.45491503 L13.7552826,8.45491503 L11.9423446,10.2220928 C11.5888155,10.5666985 11.4274928,11.0631988 11.5109497,11.5497899 L11.9389263,14.045085 L11.9389263,14.045085 L9.69801169,12.8669665 C9.26102565,12.6372293 8.73897435,12.6372293 8.30198831,12.8669665 Z" id="星形" fill="#FFFFFF"></path>
            <text font-family="PingFangSC-Medium, PingFang SC" font-size="11" font-weight="400" fill="#FFFFFF">
                <tspan x="17" y="14">攻略</tspan>
            </text>
        </g>
    </g>
</svg>