<?xml version="1.0" encoding="UTF-8"?>
<svg width="18px" height="18px" viewBox="0 0 18 18" version="1.1" xmlns="http://www.w3.org/2000/svg" xmlns:xlink="http://www.w3.org/1999/xlink">
    <!-- Generator: Sketch 61 (89581) - https://sketch.com -->
    <title>icon/话题</title>
    <desc>Created with Sketch.</desc>
    <g id="icon/话题" stroke="none" stroke-width="1" fill="none" fill-rule="evenodd">
        <g transform="translate(1.000000, 1.000000)">
            <path d="M15.68,15.3487683 C15.68,15.6829042 15.4165581,15.9562882 15.0853953,15.9748102 C15.0705116,15.975551 15.0555535,15.975551 15.0407442,15.975551 C14.1625302,15.9918503 13.2822326,16 12.3996279,16 C10.8584186,16 9.32316279,15.975551 7.79386047,15.9259122 C3.4708093,15.8170031 0,12.2942026 0,7.96443786 C0,3.56584553 3.58176744,0 8,0 C12.4182326,0 16,3.56584553 16,7.96443786 C16,9.80107427 15.3756279,11.4932395 14.3255814,12.8408965 C14.1767442,13.0387109 14.0889302,13.2846823 14.0889302,13.5506575 C14.0889302,14.1433599 14.5272558,14.6353028 15.0980465,14.7227264 C15.0995349,14.7235414 15.101693,14.7235414 15.104,14.7235414 C15.1181395,14.7256899 15.1315349,14.7271717 15.1456,14.7286535 C15.4485581,14.7745879 15.68,15.034636 15.68,15.3487683 Z" id="Stroke-1" fill="#FFE512"></path>
            <path d="M4.28571429,5.66666667 L11.7142857,5.66666667 M4.28571429,9 L11.7142857,9 M5.33333333,11.175449 L7.2559891,4 M8.66666667,11.175449 L10.5893224,4" id="形状结合" stroke="#303133" stroke-width="1.2" stroke-linecap="round"></path>
        </g>
    </g>
</svg>