<?xml version="1.0" encoding="UTF-8"?>
<svg width="24px" height="24px" viewBox="0 0 24 24" version="1.1" xmlns="http://www.w3.org/2000/svg" xmlns:xlink="http://www.w3.org/1999/xlink">
    <!-- Generator: Sketch 61 (89581) - https://sketch.com -->
    <title>tw</title>
    <desc>Created with Sketch.</desc>
    <g id="tw" stroke="none" stroke-width="1" fill="none" fill-rule="evenodd">
        <path d="M18.3639244,5.63603925 C16.6640632,3.93616969 14.4039566,3 11.9999798,3 C9.59600305,3 7.33589646,3.93618984 5.63603529,5.63609971 C3.93615397,7.33602974 3,9.59617428 3,12.0001915 C3,13.2378911 3.24681027,14.4371387 3.73359905,15.5646213 C4.20364092,16.6533295 4.87502855,17.6260971 5.72912067,18.4558788 C5.73974115,18.466177 5.74673414,18.4730089 5.74685506,18.5146653 C5.747903,18.8865697 5.19428783,19.6043206 4.82027363,19.9718316 C4.64607581,20.1422458 4.59235092,20.4011441 4.68435853,20.6268014 C4.77636614,20.8524587 4.99580018,21 5.23949036,21 L12,21 C14.403997,21 16.6640834,20.0638706 18.3639446,18.3640212 C20.0638259,16.6641718 21,14.4040877 21,12.0000705 C21,9.59605336 20.0638057,7.33592897 18.3639244,5.63603925 Z" id="路径" stroke="#303133" stroke-width="1.5" fill-rule="nonzero"></path>
        <rect id="矩形" fill="#303133" x="8" y="9" width="8" height="1.5" rx="0.75"></rect>
        <rect id="矩形备份" fill="#303133" x="8" y="12" width="4" height="1.5" rx="0.75"></rect>
    </g>
</svg>