<?xml version="1.0" encoding="UTF-8"?>
<svg width="65px" height="65px" viewBox="0 0 65 65" version="1.1" xmlns="http://www.w3.org/2000/svg" xmlns:xlink="http://www.w3.org/1999/xlink">
    <!-- Generator: Sketch 61 (89581) - https://sketch.com -->
    <title>编组</title>
    <desc>Created with Sketch.</desc>
    <defs>
        <circle id="path-1" cx="32.5" cy="32.5" r="32.5"></circle>
    </defs>
    <g id="小程序" stroke="none" stroke-width="1" fill="none" fill-rule="evenodd">
        <g id="个人中心-默认" transform="translate(-15.000000, -85.000000)">
            <g id="编组" transform="translate(15.000000, 85.000000)">
                <mask id="mask-2" fill="white">
                    <use xlink:href="#path-1"></use>
                </mask>
                <use id="蒙版" fill="#FFF1B8" xlink:href="#path-1"></use>
                <g id="编组-19" mask="url(#mask-2)">
                    <g transform="translate(7.000000, 16.000000)">
                        <path d="M49.1083309,18.3020906 C48.5084626,18.9065858 47.7248372,19.2105211 46.9396932,19.2105211 C46.1545491,19.2105211 45.369405,18.9065858 44.7710554,18.3020906 L37.4283639,10.8839828 L37.4283639,20.726362 C37.4283639,24.1968397 36.0357583,27.3388341 33.7835946,29.6127488 C31.5329495,31.8880443 28.4227464,33.2949533 24.9860326,33.2949533 C18.1156425,33.2949533 12.54522,27.667164 12.54522,20.726362 L12.54522,10.9177363 L5.23593892,18.3020906 C4.63758929,18.9065858 3.85244523,19.2105211 3.06730118,19.2105211 C2.28367577,19.2105211 1.49701306,18.9065858 0.898663434,18.3020906 C-0.299554478,17.0915659 -0.299554478,15.1292577 0.898663434,13.9202672 L12.5406641,2.15869238 C12.5421827,2.16022664 12.5437014,2.16022664 12.54522,2.16191431 C13.3197335,2.54839236 14.1929595,2.76472187 15.1147824,2.76472187 C17.1968569,2.76472187 19.0237975,1.66006053 20.0519262,1.05434619e-13 C20.4680373,0.673689997 21.0162714,1.25655228 21.6601806,1.70931001 C22.6017461,2.3750219 23.7498484,2.76472187 24.9860326,2.76472187 C26.2328475,2.76472187 27.3870244,2.36888489 28.3331458,1.69550174 C28.9679431,1.24427827 29.5085839,0.668933816 29.9231764,0.00168767706 C30.9513051,1.66159478 32.7767271,2.76472187 34.8572829,2.76472187 C35.7806244,2.76472187 36.6538504,2.54839236 37.4283639,2.16191431 L37.4556997,2.14795262 L49.1083309,13.9202672 C50.3065488,15.1292577 50.3065488,17.0915659 49.1083309,18.3020906 Z" id="Stroke-1" stroke="none" fill="#FFFFFF" fill-rule="evenodd"></path>
                        <path d="M28.826087,26.4587272 C27.824132,27.2501363 26.5350407,27.724695 25.1295836,27.724695 C23.7226152,27.724695 22.4335239,27.2501363 21.431569,26.4587272" id="Stroke-3" stroke="#FFF1B8" stroke-width="2" fill="none" stroke-linecap="round" stroke-linejoin="round"></path>
                        <line x1="25.0034972" y1="27.724695" x2="25.0034972" y2="22.9140173" id="Stroke-5" stroke="#FFF1B8" stroke-width="2" fill="none" stroke-linecap="round" stroke-linejoin="round"></line>
                        <polyline id="Stroke-7" stroke="#FFF1B8" stroke-width="2" fill="none" stroke-linecap="round" stroke-linejoin="round" points="27.1967864 21.0150656 25.0661626 23.1672109 22.9355388 21.0150656"></polyline>
                    </g>
                </g>
            </g>
        </g>
    </g>
</svg>