<?xml version="1.0" encoding="UTF-8"?>
<svg width="60px" height="21px" viewBox="0 0 60 21" version="1.1" xmlns="http://www.w3.org/2000/svg" xmlns:xlink="http://www.w3.org/1999/xlink">
    <!-- Generator: Sketch 61 (89581) - https://sketch.com -->
    <title>水印</title>
    <desc>Created with Sketch.</desc>
    <g id="水印" stroke="none" stroke-width="1" fill="none" fill-rule="evenodd" stroke-linecap="round">
        <path d="M11.9,14.3 L11.9,8.6 C11.9,6.66700338 13.4670034,5.1 15.4,5.1 C17.3329966,5.1 18.9,6.66700338 18.9,8.6 L18.9,14.3" id="路径" stroke="#FFFFFF" stroke-width="1.6"></path>
        <path d="M2,6.7 L3.72309187,3.49145936 C4.02216201,2.93456582 4.52599591,2.6 5.06557044,2.6 L7.61030086,2.6 C8.25574493,2.6 8.83903766,3.07714027 9.09305015,3.81290627 L9.5,4.99166667" id="路径" stroke="#FFFFFF" stroke-width="1.6" stroke-linejoin="round"></path>
        <path d="M9.2,10.1 C8.43333333,13.0666667 7.2,15.4833333 5.5,17.35" id="路径-2" stroke="#FFFFFF" stroke-width="1.6"></path>
        <line x1="15.4" y1="13.7" x2="19.5" y2="19.5" id="直线-2备份-4" stroke="#FFFFFF" stroke-width="1.6"></line>
        <line x1="14.1" y1="5.35" x2="18.3023702" y2="2.8" id="直线-2备份-3" stroke="#FFFFFF" stroke-width="1.6"></line>
        <path d="M15.3,8.9 C15.3666667,14.1333333 13.7666667,17.7 10.5,19.6" id="路径-3" stroke="#FFFFFF" stroke-width="1.6"></path>
        <line x1="11.45" y1="2.75" x2="18.3" y2="2.7" id="直线-2备份-2" stroke="#FFFFFF" stroke-width="1.6"></line>
        <line x1="6.3" y1="5.8" x2="6.3" y2="7.8" id="直线备份-3" stroke="#FFFFFF" stroke-width="1.6"></line>
        <path d="M28.3,10.05 C28.3,9.06758068 28.3,8.10091401 28.3,7.15 C28.3,4.25050506 30.6505051,1.9 33.55,1.9 C36.4494949,1.9 38.8,4.25050506 38.8,7.15 C38.8,8.56894347 38.8,9.0054492 38.8,10.05" id="路径" stroke="#FFFFFF" stroke-width="1.6"></path>
        <line x1="30.2" y1="10.6" x2="36.9" y2="10.6" id="直线-2备份-6" stroke="#FFFFFF" stroke-width="1.6"></line>
        <path d="M29.5,12.5 C29.3333333,14.2333333 28.8166667,15.65 27.95,16.75" id="路径-4" stroke="#FFFFFF" stroke-width="1.6"></path>
        <line x1="37.9" y1="12.5" x2="39.3" y2="16.55" id="直线-2备份-7" stroke="#FFFFFF" stroke-width="1.6"></line>
        <line x1="33.6" y1="9.1" x2="33.6" y2="16.8" id="直线备份" stroke="#FFFFFF" stroke-width="1.6"></line>
        <line x1="24.5" y1="1.9" x2="24.5" y2="3.9" id="直线备份-2" stroke="#FFFFFF" stroke-width="1.6"></line>
        <path d="M39.7,19.4 L28,19.4 C26.0670034,19.4 24.5,17.7803242 24.5,15.7823529 L24.5,7.1" id="路径" stroke="#FFFFFF" stroke-width="1.6"></path>
        <line x1="30.7" y1="7.3" x2="36.3" y2="7.3" id="直线-2备份-5" stroke="#FFFFFF" stroke-width="1.6"></line>
        <line x1="43.4524648" y1="10.1" x2="58.2475352" y2="10.1" id="直线-2备份-9" stroke="#FFFFFF" stroke-width="1.6"></line>
        <line x1="43.5" y1="14.9" x2="58.2475352" y2="14.9" id="直线-2备份-10" stroke="#FFFFFF" stroke-width="1.6"></line>
        <line x1="43.4524648" y1="5.35" x2="58.2475352" y2="5.35" id="直线-2备份-8" stroke="#FFFFFF" stroke-width="1.6"></line>
        <line x1="50.85" y1="19.8" x2="50.9" y2="7.3" id="直线-2备份-11" stroke="#FFFFFF" stroke-width="1.6"></line>
        <path d="M55.1,1 C55.1,3.40243866 53.1524387,5.35 50.75,5.35 C48.963145,5.35 47.4279234,4.27262929 46.7584915,2.73204417" id="路径" stroke="#FFFFFF" stroke-width="1.6"></path>
        <line x1="3.3" y1="10.1" x2="9.2" y2="10.1" id="直线-2" stroke="#FFFFFF" stroke-width="1.6"></line>
        <line x1="3.3" y1="17.2" x2="8.06379097" y2="19.183479" id="直线-2备份" stroke="#FFFFFF" stroke-width="1.6"></line>
    </g>
</svg>