<?xml version="1.0" encoding="UTF-8"?>
<svg width="24px" height="24px" viewBox="0 0 24 24" version="1.1" xmlns="http://www.w3.org/2000/svg" xmlns:xlink="http://www.w3.org/1999/xlink">
    <title>切片</title>
    <g id="问答1" stroke="none" stroke-width="1" fill="none" fill-rule="evenodd">
        <g id="发表完成2" transform="translate(-21.000000, -890.000000)">
            <g id="编组" transform="translate(21.000000, 890.000000)">
                <rect id="矩形" x="0" y="0" width="24" height="24"></rect>
                <path d="M12.0325219,6.26681421 C8.88385516,6.26681421 6.33185795,8.81881142 6.33185795,11.9674781 C6.33185795,13.0607388 6.63906039,14.0805242 7.17175577,14.9476585 L7.34340909,15.2269911 L6.27105087,17.7289491 L8.77300892,16.6565909 L9.05297486,16.8282442 C9.91947578,17.3609396 10.9392612,17.6681421 12.0325219,17.6681421 C15.1811886,17.6681421 17.7331858,15.1161448 17.7331858,11.9674781 C17.7331858,8.81881142 15.1811886,6.26681421 12.0325219,6.26681421 Z M5.06504374,11.9674781 C5.06504374,8.11952998 8.18457372,5 12.0325219,5 C15.88047,5 19,8.11952998 19,11.9674781 C19,15.8154263 15.88047,18.9349563 12.0325219,18.9349563 C10.817647,18.9349563 9.67371382,18.62332 8.67799786,18.0760562 L6.77017566,18.8937848 C5.71871987,19.3441372 4.65586276,18.2812801 5.10621521,17.2298243 L5.92394377,15.3220021 C5.37668004,14.3262862 5.06504374,13.182353 5.06504374,11.9674781 Z M8.86548636,10.7006639 C8.86548636,10.3510232 9.14925274,10.0672568 9.49889346,10.0672568 L11.3991148,10.0672568 C11.7487555,10.0672568 12.0325219,10.3510232 12.0325219,10.7006639 C12.0325219,11.0503046 11.7487555,11.334071 11.3991148,11.334071 L9.49889346,11.334071 C9.14925274,11.334071 8.86548636,11.0503046 8.86548636,10.7006639 Z M9.49889346,12.6008852 L14.5661503,12.6008852 C14.915791,12.6008852 15.1995574,12.8846516 15.1995574,13.2342923 C15.1995574,13.5839331 14.915791,13.8676994 14.5661503,13.8676994 L9.49889346,13.8676994 C9.14925274,13.8676994 8.86548636,13.5839331 8.86548636,13.2342923 C8.86548636,12.8846516 9.14925274,12.6008852 9.49889346,12.6008852 Z" id="Fill-951" fill="#303133"></path>
            </g>
        </g>
    </g>
</svg>