<?xml version="1.0" encoding="UTF-8"?>
<svg width="38px" height="27px" viewBox="0 0 38 27" version="1.1" xmlns="http://www.w3.org/2000/svg" xmlns:xlink="http://www.w3.org/1999/xlink">
    <!-- Generator: Sketch 61 (89581) - https://sketch.com -->
    <title>“ </title>
    <desc>Created with Sketch.</desc>
    <g id="“-" stroke="none" stroke-width="1" fill="none" fill-rule="evenodd" fill-opacity="0.2">
        <g id="“-2" fill="#FFFFFF" fill-rule="nonzero">
            <path d="M35.76,27 L35.76,12.96 L29.16,12.96 C30.28,10.08 32.56,7.68 36,5.76 C36.48,5.52 37.08,5.2 37.8,4.8 L33.84,0 C26.24,4.72 22.44,10.52 22.44,17.4 L22.44,27 L35.76,27 Z M13.32,27 L13.32,12.96 L6.72,12.96 C7.84,10.08 10.12,7.68 13.56,5.76 C14.04,5.52 14.64,5.2 15.36,4.8 L11.4,0 C3.8,4.72 3.19744231e-14,10.52 3.19744231e-14,17.4 L3.19744231e-14,27 L13.32,27 Z" id="“"></path>
        </g>
    </g>
</svg>