<?xml version="1.0" encoding="UTF-8"?>
<svg width="24px" height="24px" viewBox="0 0 24 24" version="1.1" xmlns="http://www.w3.org/2000/svg" xmlns:xlink="http://www.w3.org/1999/xlink">
    <title>切片</title>
    <g id="话题+路线" stroke="none" stroke-width="1" fill="none" fill-rule="evenodd">
        <g id="路线调整3" transform="translate(-12.000000, -1082.000000)">
            <g id="编组-19" transform="translate(12.000000, 918.000000)">
                <g id="线路/住宿" transform="translate(0.000000, 164.000000)">
                    <circle id="椭圆形" stroke="#FFFFFF" stroke-width="2" fill="#EDEFF2" cx="12" cy="12" r="11"></circle>
                    <g id="住宿接待" transform="translate(2.000000, 2.000000)">
                        <rect id="矩形" x="0" y="0" width="20" height="20"></rect>
                        <path d="M15.6326531,15 L5.36870748,15 C5.16462585,15 5,14.8340547 5,14.6313837 C5,14.4287127 5.16598639,14.2627674 5.36870748,14.2627674 L5.68843537,14.2627674 L5.68843537,4.6148139 C5.68843537,4.27476196 5.96326531,4 6.30340136,4 L11.9646259,4 C12.3047619,4 12.5795918,4.27612217 12.5795918,4.6148139 L12.5795918,14.2614072 L14.5741497,14.2614072 L14.5741497,8.884506 C14.5741497,8.74848522 14.4639456,8.6383084 14.3278912,8.6383084 L13.7986395,8.6383084 C13.5945578,8.6383084 13.429932,8.47236305 13.429932,8.2696921 C13.429932,8.06566094 13.5959184,7.9010758 13.7986395,7.9010758 L14.6965986,7.9010758 C15.0367347,7.9010758 15.3115646,8.17583776 15.3115646,8.5158897 L15.3115646,14.2627674 L15.6312925,14.2627674 C15.8353741,14.2627674 16,14.4287127 16,14.6313837 C16,14.8340547 15.8367347,15 15.6326531,15 Z M11.8421769,4.9834302 C11.8421769,4.84740942 11.7319728,4.7372326 11.5959184,4.7372326 L6.67346939,4.7372326 C6.53741497,4.7372326 6.42721088,4.84740942 6.42721088,4.9834302 L6.42721088,14.2614072 L11.8421769,14.2614072 L11.8421769,4.9834302 Z M7.98911565,6.05391369 L10.2789116,6.05391369 C10.4829932,6.05391369 10.647619,6.21849883 10.647619,6.42252999 C10.647619,6.62656115 10.4816327,6.79114628 10.2789116,6.79114628 L7.98911565,6.79114628 C7.78503401,6.79114628 7.62040816,6.62520094 7.62040816,6.42252999 C7.62040816,6.21849883 7.78639456,6.05391369 7.98911565,6.05391369 L7.98911565,6.05391369 Z M7.98911565,7.89971559 L10.2789116,7.89971559 C10.4829932,7.89971559 10.647619,8.06430073 10.647619,8.26833189 C10.647619,8.47236305 10.4816327,8.63694819 10.2789116,8.63694819 L7.98911565,8.63694819 C7.78503401,8.63694819 7.62040816,8.47100284 7.62040816,8.26833189 C7.62040816,8.06430073 7.78639456,7.89971559 7.98911565,7.89971559 L7.98911565,7.89971559 Z M7.98911565,9.7455175 L10.2789116,9.7455175 C10.4829932,9.7455175 10.647619,9.91010263 10.647619,10.1141338 C10.647619,10.318165 10.4816327,10.4827501 10.2789116,10.4827501 L7.98911565,10.4827501 C7.78503401,10.4827501 7.62040816,10.3168047 7.62040816,10.1141338 C7.62040816,9.91010263 7.78639456,9.7455175 7.98911565,9.7455175 L7.98911565,9.7455175 Z M7.98911565,11.5913194 L10.2789116,11.5913194 C10.4829932,11.5913194 10.647619,11.7559045 10.647619,11.9599357 C10.647619,12.1639669 10.4816327,12.328552 10.2789116,12.328552 L7.98911565,12.328552 C7.78503401,12.328552 7.62040816,12.1626067 7.62040816,11.9599357 C7.62040816,11.7559045 7.78639456,11.5913194 7.98911565,11.5913194 L7.98911565,11.5913194 Z" id="形状" stroke="#000000" stroke-width="0.2" fill="#000000" fill-rule="nonzero"></path>
                    </g>
                </g>
            </g>
        </g>
    </g>
</svg>