<?xml version="1.0" encoding="UTF-8"?>
<svg width="24px" height="24px" viewBox="0 0 24 24" version="1.1" xmlns="http://www.w3.org/2000/svg" xmlns:xlink="http://www.w3.org/1999/xlink">
    <title>切片</title>
    <g id="话题+路线" stroke="none" stroke-width="1" fill="none" fill-rule="evenodd">
        <g id="路线调整3" transform="translate(-12.000000, -1117.000000)">
            <g id="编组-19" transform="translate(12.000000, 918.000000)">
                <g id="线路/行程" transform="translate(0.000000, 199.000000)">
                    <rect id="矩形" stroke="#FFFFFF" stroke-width="2" fill="#EDEFF2" x="1" y="1" width="22" height="22" rx="11"></rect>
                    <g id="flag-alt" transform="translate(2.000000, 2.000000)">
                        <rect id="矩形" x="0" y="0" width="20" height="20"></rect>
                        <path d="M14.7009346,9.24375 L15.4369159,7.6875 C15.5,7.63125 15.5,7.5375 15.5,7.48125 C15.5,7.18125 15.2686916,6.975 14.932243,6.975 L11.567757,6.975 L11.567757,6.46875 C11.567757,6.20625 11.3364486,6 11,6 L7.63551402,6 L7.63551402,5.00625 C7.63551402,4.70625 7.40420561,4.5 7.06775701,4.5 C6.73130841,4.5 6.5,4.70625 6.5,5.00625 L6.5,6 L6.5,10.5 L6.5,15.99375 C6.5,16.29375 6.73130841,16.5 7.06775701,16.5 C7.40420561,16.5 7.63551402,16.29375 7.63551402,15.99375 L7.63551402,10.5 L10.432243,10.5 L10.432243,10.8 C10.432243,11.19375 10.7686916,11.49375 11.2102804,11.49375 L14.911215,11.49375 C15.2476636,11.49375 15.478972,11.2875 15.478972,10.9875 C15.478972,10.95 15.478972,10.85625 15.4369159,10.8 L14.7009346,9.24375 Z M7.63551402,9.50625 L7.63551402,6.99375 L10.432243,6.99375 L10.432243,9.4875 L7.63551402,9.4875 L7.63551402,9.50625 Z M11.567757,9.50625 L11.567757,8.00625 L14.0911215,8.00625 L13.4813084,9.2625 L14.0911215,10.51875 L11.567757,10.51875 L11.567757,9.50625 Z" id="形状" fill="#000000" fill-rule="nonzero"></path>
                    </g>
                </g>
            </g>
        </g>
    </g>
</svg>