<?xml version="1.0" encoding="UTF-8"?>
<svg width="24px" height="24px" viewBox="0 0 24 24" version="1.1" xmlns="http://www.w3.org/2000/svg" xmlns:xlink="http://www.w3.org/1999/xlink">
    <title>切片</title>
    <g id="话题+路线" stroke="none" stroke-width="1" fill="none" fill-rule="evenodd">
        <g id="路线调整3" transform="translate(-12.000000, -1047.000000)">
            <g id="编组-19" transform="translate(12.000000, 918.000000)">
                <g id="线路/餐饮" transform="translate(0.000000, 129.000000)">
                    <rect id="矩形" stroke="#FFFFFF" stroke-width="2" fill="#EDEFF2" x="1" y="1" width="22" height="22" rx="11"></rect>
                    <g id="coffee-cup" transform="translate(7.000000, 7.000000)" fill="#000000" fill-rule="nonzero">
                        <path d="M9.6566692,4.07783418 C9.2958328,4.07783418 8.96936178,4.21319797 8.72880419,4.43316413 L8.72880419,3.75634518 C8.72880419,3.43485618 8.45388122,3.1641286 8.1274102,3.1641286 L1.0653265,3.1641286 C0.738855472,3.1641286 0.463932506,3.43485618 0.463932506,3.75634518 L0.463932506,5.78680203 C0.463932506,7.19120135 1.28870141,8.46023689 2.43994133,9.08629442 L0.463932506,9.08629442 C0.189009539,9.08629442 0,9.27241963 0,9.54314721 C0,9.81387479 0.189009539,10 0.463932506,10 L8.74598687,10 C9.02090984,10 9.20991938,9.81387479 9.20991938,9.54314721 C9.20991938,9.27241963 9.02090984,9.08629442 8.74598687,9.08629442 L6.80434342,9.08629442 C7.62911232,8.62944162 8.28205437,7.8680203 8.55697733,6.95431472 C8.78035224,7.27580372 9.19273669,7.49576988 9.62230383,7.49576988 C9.98314022,7.49576988 10.3611593,7.36040609 10.6360823,7.08967851 C10.8594572,6.81895093 10.9969187,6.49746193 10.9969187,6.14213198 L10.9969187,5.41455161 C11.0484667,4.67005076 10.4470727,4.07783418 9.6566692,4.07783418 Z M7.81812186,5.88832487 C7.81812186,7.37732657 6.58096851,8.61252115 5.01734414,8.61252115 L4.27848867,8.61252115 C2.66331624,8.61252115 1.37461483,7.34348562 1.37461483,5.75296108 L1.37461483,4.07783418 L7.81812186,4.07783418 L7.81812186,5.88832487 Z M10.0346883,6.39593909 C9.93159216,6.48054146 9.79413068,6.53130288 9.6566692,6.53130288 C9.43329429,6.53130288 9.19273669,6.31133672 9.19273669,6.07445008 L9.19273669,5.44839255 C9.19273669,5.2284264 9.4161116,4.99153976 9.6566692,4.99153976 C9.88004411,4.99153976 10.1206017,5.21150592 10.1206017,5.44839255 L10.1206017,6.12521151 C10.1206017,6.2605753 10.0690536,6.34517766 10.0346883,6.39593909 Z" id="形状"></path>
                        <path d="M2.30247984,2.26734349 C2.57740281,2.26734349 2.76641235,2.08121827 2.76641235,1.81049069 L2.76641235,0.456852792 C2.76641235,0.186125212 2.57740281,0 2.30247984,0 C2.02755688,0 1.83854734,0.186125212 1.83854734,0.456852792 L1.83854734,1.81049069 C1.83854734,2.08121827 2.02755688,2.26734349 2.30247984,2.26734349 Z" id="路径"></path>
                        <path d="M4.60495969,2.26734349 C4.87988266,2.26734349 5.06889219,2.08121827 5.06889219,1.81049069 L5.06889219,0.456852792 C5.06889219,0.186125212 4.87988266,0 4.60495969,0 C4.33003672,0 4.14102718,0.186125212 4.14102718,0.456852792 L4.14102718,1.81049069 C4.14102718,2.08121827 4.33003672,2.26734349 4.60495969,2.26734349 Z" id="路径"></path>
                        <path d="M6.90743953,2.26734349 C7.1823625,2.26734349 7.37137204,2.08121827 7.37137204,1.81049069 L7.37137204,0.456852792 C7.37137204,0.186125212 7.1823625,0 6.90743953,0 C6.63251657,0 6.44350703,0.186125212 6.44350703,0.456852792 L6.44350703,1.81049069 C6.44350703,2.08121827 6.63251657,2.26734349 6.90743953,2.26734349 Z" id="路径"></path>
                    </g>
                </g>
            </g>
        </g>
    </g>
</svg>