<?xml version="1.0" encoding="UTF-8"?>
<svg width="24px" height="24px" viewBox="0 0 24 24" version="1.1" xmlns="http://www.w3.org/2000/svg" xmlns:xlink="http://www.w3.org/1999/xlink">
    <title>切片</title>
    <g id="话题+路线" stroke="none" stroke-width="1" fill="none" fill-rule="evenodd">
        <g id="路线调整3" transform="translate(-12.000000, -1012.000000)">
            <g id="编组-19" transform="translate(12.000000, 918.000000)">
                <g id="线路/交通" transform="translate(0.000000, 94.000000)">
                    <rect id="矩形" stroke="#FFFFFF" stroke-width="2" fill="#EDEFF2" x="1" y="1" width="22" height="22" rx="11"></rect>
                    <g id="bi-cycle" transform="translate(2.000000, 2.000000)">
                        <path d="M6.25,10.2857143 C4.99375,10.2857143 4,11.3267857 4,12.6428571 C4,13.9589286 4.99375,15 6.25,15 C7.50625,15 8.5,13.9589286 8.5,12.6428571 C8.5,11.3267857 7.50625,10.2857143 6.25,10.2857143 Z M6.25,13.9589286 C5.55625,13.9589286 4.99375,13.3892857 4.99375,12.6428571 C4.99375,11.8964286 5.5375,11.3267857 6.25,11.3267857 C6.9625,11.3267857 7.50625,11.8964286 7.50625,12.6428571 C7.50625,13.3892857 6.94375,13.9589286 6.25,13.9589286 Z" id="形状" fill="#000000" fill-rule="nonzero"></path>
                        <path d="M13.75,10.2857143 C12.49375,10.2857143 11.5,11.3267857 11.5,12.6428571 C11.5,13.9589286 12.49375,15 13.75,15 C15.00625,15 16,13.9589286 16,12.6428571 C16,11.3267857 14.95,10.2857143 13.75,10.2857143 Z M13.75,13.9589286 C13.05625,13.9589286 12.49375,13.3892857 12.49375,12.6428571 C12.49375,11.8964286 13.0375,11.3267857 13.75,11.3267857 C14.4625,11.3267857 15.00625,11.8964286 15.00625,12.6428571 C15.00625,13.3892857 14.40625,13.9589286 13.75,13.9589286 Z" id="形状" fill="#000000" fill-rule="nonzero"></path>
                        <path d="M12.75625,9.24464286 C12.90625,9.46071429 13.2625,9.5 13.45,9.34285714 C13.65625,9.18571429 13.69375,8.8125 13.54375,8.61607143 L11.89375,6.41607143 L11.85625,6.35714286 C11.65,6.14107143 11.35,6.10178571 11.05,6.25892857 L8.8,7.61428571 C8.59375,7.7125 8.5,7.92857143 8.5,8.14464286 C8.5,8.36071429 8.55625,8.55714286 8.65,8.675 L9.4,9.55892857 C9.49375,9.65714286 9.55,9.81428571 9.55,9.97142857 L9.55,11.3267857 C9.55,11.6410714 9.75625,11.8571429 10.05625,11.8571429 C10.35625,11.8571429 10.5625,11.6410714 10.5625,11.3267857 L10.5625,9.97142857 C10.5625,9.55892857 10.4125,9.18571429 10.16875,8.87142857 L9.6625,8.30178571 L11.3125,7.3 L12.75625,9.24464286 Z" id="路径" fill="#000000" fill-rule="nonzero"></path>
                        <path d="M13.24375,6.6125 C13.9375,6.6125 14.5,6.04285714 14.5,5.29642857 C14.5,4.55 13.95625,4 13.24375,4 C12.55,4 11.9875,4.56964286 11.9875,5.31607143 C11.9875,6.0625 12.55,6.6125 13.24375,6.6125 Z M13.24375,5.04107143 C13.39375,5.04107143 13.4875,5.13928571 13.4875,5.29642857 C13.4875,5.45357143 13.39375,5.55178571 13.24375,5.55178571 C13.09375,5.55178571 13,5.45357143 13,5.29642857 C13,5.15892857 13.09375,5.04107143 13.24375,5.04107143 Z" id="形状" fill="#000000" fill-rule="nonzero"></path>
                        <rect id="矩形" x="0" y="0" width="20" height="20"></rect>
                    </g>
                </g>
            </g>
        </g>
    </g>
</svg>