<?xml version="1.0" standalone="no"?><!DOCTYPE svg PUBLIC "-//W3C//DTD SVG 1.1//EN" "http://www.w3.org/Graphics/SVG/1.1/DTD/svg11.dtd"><svg class="icon" width="81px" height="58.62px" viewBox="0 0 1415 1024" version="1.1" xmlns="http://www.w3.org/2000/svg"><path fill="#ffffff" d="M1378.322124 951.504425H36.247788a36.247788 36.247788 0 0 0 0 72.495575h1342.980531a36.247788 36.247788 0 0 0 0-72.495575z"  /><path fill="#ffffff" d="M280.920354 761.20354m-54.371681 0a54.371681 54.371681 0 1 0 108.743362 0 54.371681 54.371681 0 1 0-108.743362 0Z"  /><path fill="#ffffff" d="M706.831858 761.20354m-54.371681 0a54.371681 54.371681 0 1 0 108.743363 0 54.371681 54.371681 0 1 0-108.743363 0Z"  /><path fill="#ffffff" d="M1132.743363 761.20354m-54.371682 0a54.371681 54.371681 0 1 0 108.743363 0 54.371681 54.371681 0 1 0-108.743363 0Z"  /><path fill="#ffffff" d="M489.345133 525.59292m-54.371682 0a54.371681 54.371681 0 1 0 108.743363 0 54.371681 54.371681 0 1 0-108.743363 0Z"  /><path fill="#ffffff" d="M54.371681 525.59292m-54.371681 0a54.371681 54.371681 0 1 0 108.743363 0 54.371681 54.371681 0 1 0-108.743363 0Z"  /><path fill="#ffffff" d="M924.318584 525.59292m-54.371681 0a54.371681 54.371681 0 1 0 108.743362 0 54.371681 54.371681 0 1 0-108.743362 0Z"  /><path fill="#ffffff" d="M1359.292035 525.59292m-54.371681 0a54.371681 54.371681 0 1 0 108.743363 0 54.371681 54.371681 0 1 0-108.743363 0Z"  /><path fill="#ffffff" d="M489.345133 54.371681m-54.371682 0a54.371681 54.371681 0 1 0 108.743363 0 54.371681 54.371681 0 1 0-108.743363 0Z"  /><path fill="#ffffff" d="M54.371681 54.371681m-54.371681 0a54.371681 54.371681 0 1 0 108.743363 0 54.371681 54.371681 0 1 0-108.743363 0Z"  /><path fill="#ffffff" d="M924.318584 54.371681m-54.371681 0a54.371681 54.371681 0 1 0 108.743362 0 54.371681 54.371681 0 1 0-108.743362 0Z"  /><path fill="#ffffff" d="M1359.292035 54.371681m-54.371681 0a54.371681 54.371681 0 1 0 108.743363 0 54.371681 54.371681 0 1 0-108.743363 0Z"  /><path fill="#ffffff" d="M280.920354 289.982301m-54.371681 0a54.371681 54.371681 0 1 0 108.743362 0 54.371681 54.371681 0 1 0-108.743362 0Z"  /><path fill="#ffffff" d="M706.831858 289.982301m-54.371681 0a54.371681 54.371681 0 1 0 108.743363 0 54.371681 54.371681 0 1 0-108.743363 0Z"  /><path fill="#ffffff" d="M1132.743363 289.982301m-54.371682 0a54.371681 54.371681 0 1 0 108.743363 0 54.371681 54.371681 0 1 0-108.743363 0Z"  /></svg>