<?xml version="1.0" standalone="no"?><!DOCTYPE svg PUBLIC "-//W3C//DTD SVG 1.1//EN" "http://www.w3.org/Graphics/SVG/1.1/DTD/svg11.dtd"><svg class="icon" width="81px" height="58.08px" viewBox="0 0 1428 1024" version="1.1" xmlns="http://www.w3.org/2000/svg"><path fill="#ffffff" d="M1390.628571 950.857143H36.571429a36.571429 36.571429 0 0 0 0 73.142857h1354.971428a36.571429 36.571429 0 0 0 0-73.142857zM1390.628571 475.428571H36.571429a36.571429 36.571429 0 0 0 0 73.142858h1354.971428a36.571429 36.571429 0 0 0 0-73.142858zM36.571429 73.142857h1354.971428a36.571429 36.571429 0 0 0 36.571429-36.571428 36.571429 36.571429 0 0 0-36.571429-36.571429H36.571429a36.571429 36.571429 0 0 0-36.571429 36.571429 36.571429 36.571429 0 0 0 36.571429 36.571428z"  /></svg>